Roboto Serif Display-Super.ufo
<glyph name="exclam" format="2">
  <advance width="331"/>
  <unicode hex="0021"/>
  <outline>
    <contour>
      <point x="291" y="730" type="curve"/>
      <point x="40" y="730" type="line"/>
      <point x="40" y="532"/>
      <point x="129" y="427"/>
      <point x="129" y="262" type="curve"/>
      <point x="202" y="262" type="line"/>
      <point x="202" y="427"/>
      <point x="291" y="533"/>
    </contour>
    <contour>
      <point x="267" y="85" type="curve" smooth="yes"/>
      <point x="267" y="139"/>
      <point x="230" y="177"/>
      <point x="165" y="177" type="curve" smooth="yes"/>
      <point x="101" y="177"/>
      <point x="63" y="139"/>
      <point x="63" y="85" type="curve" smooth="yes"/>
      <point x="63" y="30"/>
      <point x="101" y="-8"/>
      <point x="165" y="-8" type="curve" smooth="yes"/>
      <point x="230" y="-8"/>
      <point x="267" y="30"/>
    </contour>
  </outline>
</glyph>
<glyph name="numbersign" format="2">
  <advance width="628"/>
  <unicode hex="0023"/>
  <outline>
    <contour>
      <point x="81" y="0" type="line"/>
      <point x="147" y="0" type="line"/>
      <point x="187" y="172" type="line"/>
      <point x="331" y="172" type="line"/>
      <point x="291" y="0" type="line"/>
      <point x="357" y="0" type="line"/>
      <point x="397" y="172" type="line"/>
      <point x="562" y="172" type="line"/>
      <point x="562" y="322" type="line"/>
      <point x="433" y="322" type="line"/>
      <point x="462" y="448" type="line"/>
      <point x="618" y="448" type="line"/>
      <point x="618" y="598" type="line"/>
      <point x="497" y="598" type="line"/>
      <point x="533" y="750" type="line"/>
      <point x="465" y="750" type="line"/>
      <point x="430" y="598" type="line"/>
      <point x="287" y="598" type="line"/>
      <point x="323" y="750" type="line"/>
      <point x="257" y="750" type="line"/>
      <point x="221" y="598" type="line"/>
      <point x="66" y="598" type="line"/>
      <point x="66" y="448" type="line"/>
      <point x="186" y="448" type="line"/>
      <point x="157" y="322" type="line"/>
      <point x="10" y="322" type="line"/>
      <point x="10" y="172" type="line"/>
      <point x="121" y="172" type="line"/>
    </contour>
    <contour>
      <point x="223" y="322" type="line"/>
      <point x="252" y="448" type="line"/>
      <point x="395" y="448" type="line"/>
      <point x="366" y="322" type="line"/>
    </contour>
  </outline>
</glyph>
<glyph name="dollar" format="2">
  <advance width="560"/>
  <unicode hex="0024"/>
  <outline>
    <contour>
      <point x="248" y="790" type="line"/>
      <point x="248" y="696" type="line"/>
      <point x="114" y="685"/>
      <point x="27" y="613"/>
      <point x="27" y="487" type="curve" smooth="yes"/>
      <point x="27" y="363"/>
      <point x="116" y="300"/>
      <point x="243" y="263" type="curve" smooth="yes"/>
      <point x="251" y="261" type="line"/>
      <point x="251" y="66" type="line"/>
      <point x="212" y="69"/>
      <point x="181" y="79"/>
      <point x="156" y="91" type="curve"/>
      <point x="156" y="219" type="line"/>
      <point x="13" y="219" type="line"/>
      <point x="13" y="84" type="line"/>
      <point x="52" y="55"/>
      <point x="137" y="19"/>
      <point x="248" y="13" type="curve"/>
      <point x="248" y="-120" type="line"/>
      <point x="313" y="-120" type="line"/>
      <point x="313" y="13" type="line"/>
      <point x="462" y="22"/>
      <point x="547" y="99"/>
      <point x="547" y="243" type="curve" smooth="yes"/>
      <point x="547" y="369"/>
      <point x="463" y="427"/>
      <point x="310" y="472" type="curve"/>
      <point x="310" y="647" type="line"/>
      <point x="339" y="646"/>
      <point x="365" y="641"/>
      <point x="387" y="630" type="curve"/>
      <point x="387" y="517" type="line"/>
      <point x="517" y="517" type="line"/>
      <point x="517" y="638" type="line"/>
      <point x="484" y="665"/>
      <point x="406" y="693"/>
      <point x="313" y="697" type="curve"/>
      <point x="313" y="790" type="line"/>
    </contour>
    <contour>
      <point x="161" y="569" type="curve" smooth="yes"/>
      <point x="161" y="615"/>
      <point x="192" y="640"/>
      <point x="251" y="646" type="curve"/>
      <point x="251" y="489" type="line"/>
      <point x="202" y="503"/>
      <point x="161" y="519"/>
    </contour>
    <contour>
      <point x="403" y="153" type="curve" smooth="yes"/>
      <point x="403" y="97"/>
      <point x="371" y="72"/>
      <point x="310" y="66" type="curve"/>
      <point x="310" y="242" type="line"/>
      <point x="374" y="219"/>
      <point x="403" y="199"/>
    </contour>
  </outline>
</glyph>
<glyph name="ampersand" format="2">
  <advance width="810"/>
  <unicode hex="0026"/>
  <outline>
    <contour>
      <point x="791" y="0" type="line"/>
      <point x="792" y="39" type="line"/>
      <point x="791" y="39" type="line" smooth="yes"/>
      <point x="771" y="39"/>
      <point x="729" y="70"/>
      <point x="693" y="105" type="curve" smooth="yes"/>
      <point x="675" y="122"/>
      <point x="657" y="140"/>
      <point x="640" y="157" type="curve"/>
      <point x="684" y="214"/>
      <point x="713" y="279"/>
      <point x="729" y="338" type="curve" smooth="yes"/>
      <point x="735" y="361"/>
      <point x="744" y="366"/>
      <point x="777" y="366" type="curve" smooth="yes"/>
      <point x="792" y="366" type="line"/>
      <point x="792" y="405" type="line"/>
      <point x="589" y="405" type="line"/>
      <point x="589" y="366" type="line"/>
      <point x="597" y="366" type="line" smooth="yes"/>
      <point x="624" y="366"/>
      <point x="657" y="363"/>
      <point x="657" y="356" type="curve" smooth="yes"/>
      <point x="657" y="302"/>
      <point x="635" y="246"/>
      <point x="602" y="198" type="curve"/>
      <point x="536" y="269"/>
      <point x="482" y="339"/>
      <point x="447" y="406" type="curve"/>
      <point x="558" y="440"/>
      <point x="640" y="496"/>
      <point x="640" y="578" type="curve" smooth="yes"/>
      <point x="640" y="659"/>
      <point x="569" y="720"/>
      <point x="433" y="720" type="curve" smooth="yes"/>
      <point x="286" y="720"/>
      <point x="190" y="652"/>
      <point x="190" y="525" type="curve" smooth="yes"/>
      <point x="190" y="480"/>
      <point x="201" y="430"/>
      <point x="222" y="378" type="curve"/>
      <point x="102" y="345"/>
      <point x="22" y="279"/>
      <point x="22" y="182" type="curve" smooth="yes"/>
      <point x="22" y="57"/>
      <point x="140" y="-10"/>
      <point x="303" y="-10" type="curve" smooth="yes"/>
      <point x="374" y="-10"/>
      <point x="436" y="5"/>
      <point x="488" y="30" type="curve"/>
      <point x="500" y="20"/>
      <point x="513" y="10"/>
      <point x="526" y="0" type="curve"/>
    </contour>
    <contour>
      <point x="398" y="575" type="curve" smooth="yes"/>
      <point x="398" y="642"/>
      <point x="416" y="670"/>
      <point x="447" y="670" type="curve" smooth="yes"/>
      <point x="480" y="670"/>
      <point x="490" y="638"/>
      <point x="490" y="585" type="curve" smooth="yes"/>
      <point x="490" y="525"/>
      <point x="476" y="472"/>
      <point x="430" y="441" type="curve"/>
      <point x="409" y="488"/>
      <point x="398" y="533"/>
    </contour>
    <contour>
      <point x="238" y="208" type="curve" smooth="yes"/>
      <point x="238" y="249"/>
      <point x="243" y="282"/>
      <point x="254" y="310" type="curve"/>
      <point x="298" y="228"/>
      <point x="363" y="143"/>
      <point x="444" y="69" type="curve"/>
      <point x="421" y="60"/>
      <point x="397" y="55"/>
      <point x="375" y="55" type="curve" smooth="yes"/>
      <point x="290" y="55"/>
      <point x="238" y="98"/>
    </contour>
  </outline>
</glyph>
<glyph name="parenleft" format="2">
  <advance width="332"/>
  <unicode hex="0028"/>
  <outline>
    <contour>
      <point x="179" y="310" type="curve" smooth="yes"/>
      <point x="179" y="517"/>
      <point x="253" y="671"/>
      <point x="321" y="747" type="curve"/>
      <point x="321" y="750" type="line"/>
      <point x="274" y="750" type="line"/>
      <point x="144" y="675"/>
      <point x="24" y="519"/>
      <point x="24" y="310" type="curve" smooth="yes"/>
      <point x="24" y="101"/>
      <point x="144" y="-55"/>
      <point x="274" y="-130" type="curve"/>
      <point x="321" y="-130" type="line"/>
      <point x="321" y="-127" type="line"/>
      <point x="253" y="-51"/>
      <point x="179" y="103"/>
    </contour>
  </outline>
</glyph>
<glyph name="asterisk" format="2">
  <advance width="400"/>
  <unicode hex="002A"/>
  <outline>
    <contour>
      <point x="316" y="416" type="curve"/>
      <point x="370" y="509" type="line"/>
      <point x="331" y="532"/>
      <point x="287" y="522"/>
      <point x="231" y="545" type="curve"/>
      <point x="287" y="568"/>
      <point x="331" y="558"/>
      <point x="370" y="581" type="curve"/>
      <point x="316" y="674" type="line"/>
      <point x="277" y="651"/>
      <point x="264" y="609"/>
      <point x="216" y="572" type="curve"/>
      <point x="223" y="633"/>
      <point x="254" y="664"/>
      <point x="254" y="710" type="curve"/>
      <point x="146" y="710" type="line"/>
      <point x="146" y="664"/>
      <point x="177" y="633"/>
      <point x="184" y="572" type="curve"/>
      <point x="136" y="609"/>
      <point x="123" y="651"/>
      <point x="84" y="674" type="curve"/>
      <point x="30" y="581" type="line"/>
      <point x="69" y="558"/>
      <point x="113" y="568"/>
      <point x="169" y="545" type="curve"/>
      <point x="113" y="522"/>
      <point x="69" y="532"/>
      <point x="30" y="509" type="curve"/>
      <point x="84" y="416" type="line"/>
      <point x="123" y="439"/>
      <point x="136" y="481"/>
      <point x="184" y="518" type="curve"/>
      <point x="177" y="457"/>
      <point x="146" y="426"/>
      <point x="146" y="380" type="curve"/>
      <point x="254" y="380" type="line"/>
      <point x="254" y="426"/>
      <point x="223" y="457"/>
      <point x="216" y="518" type="curve"/>
      <point x="264" y="481"/>
      <point x="277" y="439"/>
    </contour>
  </outline>
</glyph>
<glyph name="comma" format="2">
  <advance width="272"/>
  <unicode hex="002C"/>
  <outline>
    <contour>
      <point x="116" y="-153" type="line"/>
      <point x="202" y="-91"/>
      <point x="238" y="-14"/>
      <point x="238" y="63" type="curve" smooth="yes"/>
      <point x="238" y="141"/>
      <point x="195" y="177"/>
      <point x="133" y="177" type="curve" smooth="yes"/>
      <point x="73" y="177"/>
      <point x="34" y="137"/>
      <point x="34" y="83" type="curve" smooth="yes"/>
      <point x="34" y="28"/>
      <point x="74" y="-7"/>
      <point x="129" y="-7" type="curve" smooth="yes"/>
      <point x="152" y="-7"/>
      <point x="172" y="-1"/>
      <point x="184" y="9" type="curve"/>
      <point x="158" y="-42"/>
      <point x="108" y="-79"/>
      <point x="52" y="-106" type="curve"/>
    </contour>
  </outline>
</glyph>
<glyph name="hyphen" format="2">
  <advance width="435"/>
  <unicode hex="002D"/>
  <outline>
    <contour>
      <point x="65" y="348" type="line"/>
      <point x="65" y="223" type="line"/>
      <point x="370" y="223" type="line"/>
      <point x="370" y="348" type="line"/>
    </contour>
  </outline>
</glyph>
<glyph name="slash" format="2">
  <advance width="399"/>
  <unicode hex="002F"/>
  <outline>
    <contour>
      <point x="347" y="730" type="line"/>
      <point x="-10" y="-150" type="line"/>
      <point x="52" y="-150" type="line"/>
      <point x="409" y="730" type="line"/>
    </contour>
  </outline>
</glyph>
<glyph name="one" format="2">
  <advance width="560"/>
  <unicode hex="0031"/>
  <outline>
    <contour>
      <point x="433" y="79" type="curve" smooth="yes"/>
      <point x="433" y="609" type="line"/>
      <point x="291" y="609" type="line"/>
      <point x="230" y="549"/>
      <point x="179" y="522"/>
      <point x="40" y="522" type="curve"/>
      <point x="40" y="393" type="line"/>
      <point x="109" y="405"/>
      <point x="162" y="441"/>
      <point x="197" y="497" type="curve"/>
      <point x="197" y="79" type="line" smooth="yes"/>
      <point x="197" y="47"/>
      <point x="147" y="41"/>
      <point x="89" y="41" type="curve" smooth="yes"/>
      <point x="60" y="41" type="line"/>
      <point x="60" y="0" type="line"/>
      <point x="557" y="0" type="line"/>
      <point x="557" y="41" type="line"/>
      <point x="541" y="41" type="line" smooth="yes"/>
      <point x="478" y="41"/>
      <point x="433" y="47"/>
    </contour>
  </outline>
</glyph>
<glyph name="two" format="2">
  <advance width="560"/>
  <unicode hex="0032"/>
  <outline>
    <contour>
      <point x="373" y="154" type="curve" smooth="yes"/>
      <point x="155" y="154" type="line"/>
      <point x="327" y="215"/>
      <point x="518" y="299"/>
      <point x="518" y="438" type="curve" smooth="yes"/>
      <point x="518" y="549"/>
      <point x="433" y="618"/>
      <point x="267" y="618" type="curve" smooth="yes"/>
      <point x="155" y="618"/>
      <point x="73" y="584"/>
      <point x="29" y="550" type="curve"/>
      <point x="29" y="417" type="line"/>
      <point x="191" y="417" type="line"/>
      <point x="191" y="557" type="line"/>
      <point x="202" y="564"/>
      <point x="215" y="568"/>
      <point x="232" y="568" type="curve" smooth="yes"/>
      <point x="271" y="568"/>
      <point x="290" y="533"/>
      <point x="290" y="438" type="curve" smooth="yes"/>
      <point x="290" y="276"/>
      <point x="196" y="216"/>
      <point x="19" y="126" type="curve"/>
      <point x="19" y="0" type="line"/>
      <point x="532" y="0" type="line"/>
      <point x="532" y="264" type="line"/>
      <point x="487" y="264" type="line"/>
      <point x="476" y="199" type="line" smooth="yes"/>
      <point x="469" y="158"/>
      <point x="445" y="154"/>
    </contour>
  </outline>
</glyph>
<glyph name="three" format="2">
  <advance width="560"/>
  <unicode hex="0033"/>
  <outline>
    <contour>
      <point x="223" y="-34" type="curve" smooth="yes"/>
      <point x="136" y="-34"/>
      <point x="83" y="29"/>
      <point x="58" y="99" type="curve"/>
      <point x="14" y="71" type="line"/>
      <point x="47" y="-13"/>
      <point x="116" y="-90"/>
      <point x="277" y="-90" type="curve" smooth="yes"/>
      <point x="428" y="-90"/>
      <point x="550" y="-22"/>
      <point x="550" y="114" type="curve"/>
      <point x="550" y="213"/>
      <point x="483" y="278"/>
      <point x="320" y="294" type="curve"/>
      <point x="445" y="311"/>
      <point x="533" y="362"/>
      <point x="533" y="457" type="curve" smooth="yes"/>
      <point x="533" y="571"/>
      <point x="421" y="618"/>
      <point x="288" y="618" type="curve" smooth="yes"/>
      <point x="179" y="618"/>
      <point x="100" y="583"/>
      <point x="56" y="546" type="curve"/>
      <point x="56" y="427" type="line"/>
      <point x="218" y="427" type="line"/>
      <point x="218" y="557" type="line"/>
      <point x="229" y="564"/>
      <point x="241" y="568"/>
      <point x="257" y="568" type="curve" smooth="yes"/>
      <point x="292" y="568"/>
      <point x="316" y="540"/>
      <point x="316" y="449" type="curve" smooth="yes"/>
      <point x="316" y="349"/>
      <point x="293" y="307"/>
      <point x="217" y="307" type="curve" smooth="yes"/>
      <point x="169" y="307" type="line"/>
      <point x="169" y="260" type="line"/>
      <point x="213" y="260" type="line" smooth="yes"/>
      <point x="309" y="260"/>
      <point x="326" y="200"/>
      <point x="326" y="118" type="curve" smooth="yes"/>
      <point x="326" y="18"/>
      <point x="294" y="-34"/>
    </contour>
  </outline>
</glyph>
<glyph name="four" format="2">
  <advance width="560"/>
  <unicode hex="0034"/>
  <outline>
    <contour>
      <point x="20" y="71" type="line"/>
      <point x="266" y="71" type="line"/>
      <point x="266" y="-77" type="line"/>
      <point x="493" y="-77" type="line"/>
      <point x="493" y="71" type="line"/>
      <point x="554" y="71" type="line"/>
      <point x="554" y="210" type="line"/>
      <point x="493" y="210" type="line"/>
      <point x="493" y="609" type="line"/>
      <point x="315" y="609" type="line"/>
      <point x="20" y="177" type="line"/>
    </contour>
    <contour>
      <point x="98" y="210" type="line"/>
      <point x="266" y="456" type="line"/>
      <point x="266" y="210" type="line"/>
    </contour>
  </outline>
</glyph>
<glyph name="five" format="2">
  <advance width="560"/>
  <unicode hex="0035"/>
  <outline>
    <contour>
      <point x="271" y="-90" type="curve" smooth="yes"/>
      <point x="440" y="-90"/>
      <point x="544" y="4"/>
      <point x="544" y="152" type="curve" smooth="yes"/>
      <point x="544" y="274"/>
      <point x="459" y="366"/>
      <point x="317" y="366" type="curve" smooth="yes"/>
      <point x="215" y="366"/>
      <point x="159" y="335"/>
      <point x="124" y="292" type="curve"/>
      <point x="124" y="455" type="line"/>
      <point x="476" y="455" type="line"/>
      <point x="491" y="609" type="line"/>
      <point x="73" y="609" type="line"/>
      <point x="73" y="201" type="line"/>
      <point x="115" y="201" type="line"/>
      <point x="136" y="260"/>
      <point x="174" y="298"/>
      <point x="229" y="298" type="curve" smooth="yes"/>
      <point x="286" y="298"/>
      <point x="321" y="247"/>
      <point x="321" y="146" type="curve" smooth="yes"/>
      <point x="321" y="15"/>
      <point x="290" y="-34"/>
      <point x="220" y="-34" type="curve" smooth="yes"/>
      <point x="139" y="-34"/>
      <point x="83" y="25"/>
      <point x="58" y="99" type="curve"/>
      <point x="14" y="71" type="line"/>
      <point x="50" y="-21"/>
      <point x="128" y="-90"/>
    </contour>
  </outline>
</glyph>
<glyph name="seven" format="2">
  <advance width="560"/>
  <unicode hex="0037"/>
  <outline>
    <contour>
      <point x="196" y="455" type="curve" smooth="yes"/>
      <point x="445" y="455" type="line"/>
      <point x="356" y="371"/>
      <point x="185" y="171"/>
      <point x="148" y="-77" type="curve"/>
      <point x="368" y="-77" type="line"/>
      <point x="367" y="187"/>
      <point x="428" y="363"/>
      <point x="539" y="510" type="curve"/>
      <point x="539" y="609" type="line"/>
      <point x="50" y="609" type="line"/>
      <point x="50" y="326" type="line"/>
      <point x="96" y="326" type="line"/>
      <point x="108" y="412" type="line" smooth="yes"/>
      <point x="113" y="448"/>
      <point x="135" y="455"/>
    </contour>
  </outline>
</glyph>
<glyph name="nine" format="2">
  <advance width="560"/>
  <unicode hex="0039"/>
  <outline>
    <contour>
      <point x="72" y="-61" type="curve"/>
      <point x="80" y="-106" type="line"/>
      <point x="357" y="-77"/>
      <point x="545" y="93"/>
      <point x="545" y="334" type="curve" smooth="yes"/>
      <point x="545" y="531"/>
      <point x="449" y="619"/>
      <point x="276" y="619" type="curve" smooth="yes"/>
      <point x="119" y="619"/>
      <point x="15" y="531"/>
      <point x="15" y="386" type="curve" smooth="yes"/>
      <point x="15" y="247"/>
      <point x="98" y="177"/>
      <point x="210" y="177" type="curve" smooth="yes"/>
      <point x="257" y="177"/>
      <point x="290" y="188"/>
      <point x="314" y="204" type="curve"/>
      <point x="296" y="44"/>
      <point x="236" y="-29"/>
    </contour>
    <contour>
      <point x="243" y="393" type="curve" smooth="yes"/>
      <point x="243" y="542"/>
      <point x="254" y="569"/>
      <point x="282" y="569" type="curve" smooth="yes"/>
      <point x="308" y="569"/>
      <point x="320" y="549"/>
      <point x="320" y="344" type="curve" smooth="yes"/>
      <point x="320" y="310"/>
      <point x="319" y="279"/>
      <point x="318" y="251" type="curve"/>
      <point x="308" y="241"/>
      <point x="297" y="236"/>
      <point x="286" y="236" type="curve" smooth="yes"/>
      <point x="248" y="236"/>
      <point x="243" y="291"/>
    </contour>
  </outline>
</glyph>
<glyph name="colon" format="2">
  <advance width="272"/>
  <unicode hex="003A"/>
  <outline>
    <contour>
      <point x="238" y="406" type="curve" smooth="yes"/>
      <point x="238" y="460"/>
      <point x="201" y="498"/>
      <point x="136" y="498" type="curve" smooth="yes"/>
      <point x="72" y="498"/>
      <point x="34" y="460"/>
      <point x="34" y="406" type="curve" smooth="yes"/>
      <point x="34" y="351"/>
      <point x="72" y="313"/>
      <point x="136" y="313" type="curve" smooth="yes"/>
      <point x="201" y="313"/>
      <point x="238" y="351"/>
    </contour>
    <contour>
      <point x="238" y="85" type="curve" smooth="yes"/>
      <point x="238" y="139"/>
      <point x="201" y="177"/>
      <point x="136" y="177" type="curve" smooth="yes"/>
      <point x="72" y="177"/>
      <point x="34" y="139"/>
      <point x="34" y="85" type="curve" smooth="yes"/>
      <point x="34" y="30"/>
      <point x="72" y="-8"/>
      <point x="136" y="-8" type="curve" smooth="yes"/>
      <point x="201" y="-8"/>
      <point x="238" y="30"/>
    </contour>
  </outline>
</glyph>
<glyph name="less" format="2">
  <advance width="560"/>
  <unicode hex="003C"/>
  <outline>
    <contour>
      <point x="474" y="201" type="line"/>
      <point x="147" y="347" type="line"/>
      <point x="474" y="493" type="line"/>
      <point x="474" y="555" type="line"/>
      <point x="86" y="376" type="line"/>
      <point x="86" y="314" type="line"/>
      <point x="474" y="135" type="line"/>
    </contour>
  </outline>
</glyph>
<glyph name="equal" format="2">
  <advance width="560"/>
  <unicode hex="003D"/>
  <outline>
    <contour>
      <point x="505" y="466" type="line"/>
      <point x="55" y="466" type="line"/>
      <point x="55" y="416" type="line"/>
      <point x="505" y="416" type="line"/>
    </contour>
    <contour>
      <point x="505" y="266" type="line"/>
      <point x="55" y="266" type="line"/>
      <point x="55" y="216" type="line"/>
      <point x="505" y="216" type="line"/>
    </contour>
  </outline>
</glyph>
<glyph name="greater" format="2">
  <advance width="560"/>
  <unicode hex="003E"/>
  <outline>
    <contour>
      <point x="86" y="489" type="line"/>
      <point x="413" y="343" type="line"/>
      <point x="86" y="197" type="line"/>
      <point x="86" y="135" type="line"/>
      <point x="474" y="314" type="line"/>
      <point x="474" y="376" type="line"/>
      <point x="86" y="555" type="line"/>
    </contour>
  </outline>
</glyph>
<glyph name="question" format="2">
  <advance width="593"/>
  <unicode hex="003F"/>
  <outline>
    <contour>
      <point x="227" y="375" type="curve"/>
      <point x="227" y="262" type="line"/>
      <point x="311" y="262" type="line"/>
      <point x="311" y="344" type="line"/>
      <point x="428" y="370"/>
      <point x="568" y="415"/>
      <point x="568" y="548" type="curve" smooth="yes"/>
      <point x="568" y="660"/>
      <point x="481" y="740"/>
      <point x="289" y="740" type="curve" smooth="yes"/>
      <point x="156" y="740"/>
      <point x="67" y="696"/>
      <point x="34" y="666" type="curve"/>
      <point x="34" y="545" type="line"/>
      <point x="207" y="545" type="line"/>
      <point x="207" y="678" type="line"/>
      <point x="223" y="687"/>
      <point x="242" y="690"/>
      <point x="259" y="690" type="curve" smooth="yes"/>
      <point x="318" y="690"/>
      <point x="338" y="643"/>
      <point x="338" y="562" type="curve" smooth="yes"/>
      <point x="338" y="471"/>
      <point x="310" y="414"/>
    </contour>
    <contour>
      <point x="370" y="85" type="curve" smooth="yes"/>
      <point x="370" y="139"/>
      <point x="333" y="177"/>
      <point x="268" y="177" type="curve" smooth="yes"/>
      <point x="204" y="177"/>
      <point x="166" y="139"/>
      <point x="166" y="85" type="curve" smooth="yes"/>
      <point x="166" y="30"/>
      <point x="204" y="-8"/>
      <point x="268" y="-8" type="curve" smooth="yes"/>
      <point x="333" y="-8"/>
      <point x="370" y="30"/>
    </contour>
  </outline>
</glyph>
<glyph name="at" format="2">
  <advance width="924"/>
  <unicode hex="0040"/>
  <outline>
    <contour>
      <point x="371" y="46" type="curve" smooth="yes"/>
      <point x="424" y="46"/>
      <point x="470" y="74"/>
      <point x="502" y="121" type="curve"/>
      <point x="522" y="80"/>
      <point x="569" y="52"/>
      <point x="652" y="52" type="curve" smooth="yes"/>
      <point x="771" y="52"/>
      <point x="902" y="159"/>
      <point x="902" y="342" type="curve" smooth="yes"/>
      <point x="902" y="532"/>
      <point x="745" y="673"/>
      <point x="504" y="673" type="curve" smooth="yes"/>
      <point x="232" y="673"/>
      <point x="22" y="487"/>
      <point x="22" y="231" type="curve" smooth="yes"/>
      <point x="22" y="-8"/>
      <point x="215" y="-153"/>
      <point x="471" y="-153" type="curve" smooth="yes"/>
      <point x="588" y="-153"/>
      <point x="699" y="-125"/>
      <point x="769" y="-88" type="curve"/>
      <point x="755" y="-39" type="line"/>
      <point x="679" y="-78"/>
      <point x="583" y="-103"/>
      <point x="471" y="-103" type="curve" smooth="yes"/>
      <point x="269" y="-103"/>
      <point x="127" y="1"/>
      <point x="127" y="231" type="curve" smooth="yes"/>
      <point x="127" y="472"/>
      <point x="286" y="623"/>
      <point x="504" y="623" type="curve" smooth="yes"/>
      <point x="696" y="623"/>
      <point x="809" y="516"/>
      <point x="809" y="342" type="curve" smooth="yes"/>
      <point x="809" y="174"/>
      <point x="733" y="102"/>
      <point x="688" y="102" type="curve" smooth="yes"/>
      <point x="667" y="102"/>
      <point x="661" y="114"/>
      <point x="667" y="147" type="curve" smooth="yes"/>
      <point x="723" y="471" type="line"/>
      <point x="585" y="471" type="line"/>
      <point x="544" y="431" type="line"/>
      <point x="520" y="461"/>
      <point x="486" y="477"/>
      <point x="435" y="477" type="curve" smooth="yes"/>
      <point x="295" y="477"/>
      <point x="204" y="349"/>
      <point x="204" y="227" type="curve" smooth="yes"/>
      <point x="204" y="109"/>
      <point x="285" y="46"/>
    </contour>
    <contour>
      <point x="394" y="212" type="curve" smooth="yes"/>
      <point x="394" y="355"/>
      <point x="426" y="427"/>
      <point x="477" y="427" type="curve" smooth="yes"/>
      <point x="496" y="427"/>
      <point x="510" y="418"/>
      <point x="522" y="398" type="curve"/>
      <point x="481" y="151" type="line"/>
      <point x="465" y="125"/>
      <point x="450" y="118"/>
      <point x="436" y="118" type="curve" smooth="yes"/>
      <point x="409" y="118"/>
      <point x="394" y="149"/>
    </contour>
  </outline>
</glyph>
<glyph name="C" format="2">
  <advance width="689"/>
  <unicode hex="0043"/>
  <outline>
    <contour>
      <point x="435" y="662" type="curve" smooth="yes"/>
      <point x="524" y="662"/>
      <point x="580" y="590"/>
      <point x="600" y="498" type="curve"/>
      <point x="647" y="498" type="line"/>
      <point x="647" y="710" type="line"/>
      <point x="597" y="710" type="line"/>
      <point x="587" y="639" type="line"/>
      <point x="548" y="688"/>
      <point x="485" y="720"/>
      <point x="379" y="720" type="curve" smooth="yes"/>
      <point x="189" y="720"/>
      <point x="28" y="575"/>
      <point x="28" y="355" type="curve" smooth="yes"/>
      <point x="28" y="137"/>
      <point x="180" y="-10"/>
      <point x="395" y="-10" type="curve" smooth="yes"/>
      <point x="559" y="-10"/>
      <point x="639" y="90"/>
      <point x="667" y="237" type="curve"/>
      <point x="619" y="257" type="line"/>
      <point x="596" y="128"/>
      <point x="528" y="45"/>
      <point x="445" y="45" type="curve" smooth="yes"/>
      <point x="346" y="45"/>
      <point x="298" y="118"/>
      <point x="298" y="355" type="curve" smooth="yes"/>
      <point x="298" y="564"/>
      <point x="338" y="662"/>
    </contour>
  </outline>
</glyph>
<glyph name="E" format="2">
  <advance width="645"/>
  <unicode hex="0045"/>
  <anchor x="379.0" y="741.0" name="top"/>
  <anchor x="379.0" y="0.0" name="bottom"/>
  <anchor x="443.0" y="0.0" name="right"/>
  <outline>
    <contour>
      <point x="622" y="215" type="line"/>
      <point x="574" y="215" type="line"/>
      <point x="548" y="95" type="line" smooth="yes"/>
      <point x="541" y="61"/>
      <point x="515" y="52"/>
      <point x="439" y="52" type="curve" smooth="yes"/>
      <point x="335" y="52" type="line"/>
      <point x="335" y="339" type="line"/>
      <point x="417" y="334"/>
      <point x="476" y="323"/>
      <point x="534" y="309" type="curve"/>
      <point x="534" y="418" type="line"/>
      <point x="476" y="404"/>
      <point x="417" y="395"/>
      <point x="335" y="388" type="curve"/>
      <point x="335" y="658" type="line"/>
      <point x="447" y="658" type="line" smooth="yes"/>
      <point x="497" y="658"/>
      <point x="528" y="649"/>
      <point x="535" y="615" type="curve" smooth="yes"/>
      <point x="555" y="520" type="line"/>
      <point x="601" y="520" type="line"/>
      <point x="601" y="710" type="line"/>
      <point x="22" y="710" type="line"/>
      <point x="22" y="668" type="line"/>
      <point x="32" y="668" type="line" smooth="yes"/>
      <point x="57" y="668"/>
      <point x="75" y="661"/>
      <point x="75" y="632" type="curve" smooth="yes"/>
      <point x="75" y="78" type="line" smooth="yes"/>
      <point x="75" y="49"/>
      <point x="57" y="42"/>
      <point x="32" y="42" type="curve" smooth="yes"/>
      <point x="22" y="42" type="line"/>
      <point x="22" y="0" type="line"/>
      <point x="622" y="0" type="line"/>
    </contour>
  </outline>
</glyph>
<glyph name="F" format="2">
  <advance width="629"/>
  <unicode hex="0046"/>
  <outline>
    <contour>
      <point x="335" y="658" type="line"/>
      <point x="452" y="658" type="line" smooth="yes"/>
      <point x="501" y="658"/>
      <point x="531" y="649"/>
      <point x="539" y="615" type="curve" smooth="yes"/>
      <point x="560" y="520" type="line"/>
      <point x="606" y="520" type="line"/>
      <point x="606" y="710" type="line"/>
      <point x="22" y="710" type="line"/>
      <point x="22" y="668" type="line"/>
      <point x="32" y="668" type="line" smooth="yes"/>
      <point x="57" y="668"/>
      <point x="75" y="661"/>
      <point x="75" y="632" type="curve" smooth="yes"/>
      <point x="75" y="78" type="line" smooth="yes"/>
      <point x="75" y="49"/>
      <point x="57" y="42"/>
      <point x="32" y="42" type="curve" smooth="yes"/>
      <point x="22" y="42" type="line"/>
      <point x="22" y="0" type="line"/>
      <point x="408" y="0" type="line"/>
      <point x="408" y="42" type="line"/>
      <point x="391" y="42" type="line" smooth="yes"/>
      <point x="366" y="42"/>
      <point x="335" y="43"/>
      <point x="335" y="78" type="curve" smooth="yes"/>
      <point x="335" y="332" type="line"/>
      <point x="419" y="327"/>
      <point x="480" y="316"/>
      <point x="539" y="302" type="curve"/>
      <point x="539" y="411" type="line"/>
      <point x="480" y="397"/>
      <point x="419" y="388"/>
      <point x="335" y="381" type="curve"/>
    </contour>
  </outline>
</glyph>
<glyph name="G" format="2">
  <advance width="762"/>
  <unicode hex="0047"/>
  <anchor x="394.0" y="741.0" name="top"/>
  <anchor x="394.0" y="0.0" name="bottom"/>
  <outline>
    <contour>
      <point x="710" y="290" type="line"/>
      <point x="710" y="315"/>
      <point x="724" y="321"/>
      <point x="743" y="321" type="curve" smooth="yes"/>
      <point x="750" y="321" type="line"/>
      <point x="750" y="363" type="line"/>
      <point x="425" y="363" type="line"/>
      <point x="425" y="321" type="line"/>
      <point x="434" y="321" type="line" smooth="yes"/>
      <point x="460" y="321"/>
      <point x="477" y="315"/>
      <point x="477" y="290" type="curve"/>
      <point x="477" y="64" type="line"/>
      <point x="467" y="51"/>
      <point x="452" y="40"/>
      <point x="425" y="40" type="curve" smooth="yes"/>
      <point x="345" y="40"/>
      <point x="297" y="122"/>
      <point x="297" y="355" type="curve" smooth="yes"/>
      <point x="297" y="578"/>
      <point x="351" y="662"/>
      <point x="445" y="662" type="curve" smooth="yes"/>
      <point x="538" y="662"/>
      <point x="606" y="592"/>
      <point x="628" y="498" type="curve"/>
      <point x="675" y="498" type="line"/>
      <point x="675" y="710" type="line"/>
      <point x="625" y="710" type="line"/>
      <point x="614" y="636" type="line"/>
      <point x="574" y="687"/>
      <point x="508" y="720"/>
      <point x="396" y="720" type="curve" smooth="yes"/>
      <point x="186" y="720"/>
      <point x="28" y="569"/>
      <point x="28" y="355" type="curve" smooth="yes"/>
      <point x="28" y="134"/>
      <point x="178" y="-10"/>
      <point x="403" y="-10" type="curve" smooth="yes"/>
      <point x="548" y="-10"/>
      <point x="667" y="50"/>
      <point x="710" y="104" type="curve"/>
    </contour>
  </outline>
</glyph>
<glyph name="P" format="2">
  <advance width="723"/>
  <unicode hex="0050"/>
  <outline>
    <contour>
      <point x="335" y="52" type="curve" smooth="yes"/>
      <point x="335" y="289" type="line"/>
      <point x="426" y="289" type="line" smooth="yes"/>
      <point x="605" y="289"/>
      <point x="716" y="370"/>
      <point x="716" y="507" type="curve" smooth="yes"/>
      <point x="716" y="638"/>
      <point x="612" y="710"/>
      <point x="431" y="710" type="curve" smooth="yes"/>
      <point x="22" y="710" type="line"/>
      <point x="22" y="668" type="line"/>
      <point x="32" y="668" type="line" smooth="yes"/>
      <point x="57" y="668"/>
      <point x="75" y="662"/>
      <point x="75" y="636" type="curve" smooth="yes"/>
      <point x="75" y="73" type="line" smooth="yes"/>
      <point x="75" y="48"/>
      <point x="57" y="42"/>
      <point x="32" y="42" type="curve" smooth="yes"/>
      <point x="22" y="42" type="line"/>
      <point x="22" y="0" type="line"/>
      <point x="399" y="0" type="line"/>
      <point x="399" y="42" type="line"/>
      <point x="375" y="42" type="line" smooth="yes"/>
      <point x="357" y="42"/>
      <point x="335" y="45"/>
    </contour>
    <contour>
      <point x="335" y="657" type="line"/>
      <point x="365" y="657" type="line" smooth="yes"/>
      <point x="427" y="657"/>
      <point x="463" y="619"/>
      <point x="463" y="502" type="curve" smooth="yes"/>
      <point x="463" y="384"/>
      <point x="427" y="342"/>
      <point x="362" y="342" type="curve" smooth="yes"/>
      <point x="335" y="342" type="line"/>
    </contour>
  </outline>
</glyph>
<glyph name="Q" format="2">
  <advance width="814"/>
  <unicode hex="0051"/>
  <outline>
    <contour>
      <point x="744" y="-198" type="curve"/>
      <point x="744" y="-39" type="line"/>
      <point x="719" y="-50"/>
      <point x="660" y="-80"/>
      <point x="593" y="-80" type="curve" smooth="yes"/>
      <point x="508" y="-80"/>
      <point x="458" y="-60"/>
      <point x="450" y="-8" type="curve"/>
      <point x="651" y="9"/>
      <point x="786" y="148"/>
      <point x="786" y="355" type="curve" smooth="yes"/>
      <point x="786" y="576"/>
      <point x="631" y="720"/>
      <point x="407" y="720" type="curve" smooth="yes"/>
      <point x="183" y="720"/>
      <point x="28" y="576"/>
      <point x="28" y="355" type="curve" smooth="yes"/>
      <point x="28" y="141"/>
      <point x="172" y="0"/>
      <point x="384" y="-9" type="curve"/>
      <point x="386" y="-167"/>
      <point x="459" y="-232"/>
      <point x="602" y="-232" type="curve" smooth="yes"/>
      <point x="658" y="-232"/>
      <point x="713" y="-218"/>
    </contour>
    <contour>
      <point x="407" y="43" type="curve" smooth="yes"/>
      <point x="328" y="43"/>
      <point x="298" y="127"/>
      <point x="298" y="355" type="curve" smooth="yes"/>
      <point x="298" y="573"/>
      <point x="328" y="667"/>
      <point x="407" y="667" type="curve" smooth="yes"/>
      <point x="486" y="667"/>
      <point x="516" y="573"/>
      <point x="516" y="355" type="curve" smooth="yes"/>
      <point x="516" y="127"/>
      <point x="486" y="43"/>
    </contour>
  </outline>
</glyph>
<glyph name="R" format="2">
  <advance width="780"/>
  <unicode hex="0052"/>
  <anchor x="389" y="741" name="top"/>
  <anchor x="389" y="0" name="bottom"/>
  <outline>
    <contour>
      <point x="335" y="52" type="curve"/>
      <point x="335" y="312" type="line"/>
      <point x="365" y="312" type="line"/>
      <point x="474" y="0" type="line"/>
      <point x="762" y="0" type="line"/>
      <point x="762" y="42" type="line"/>
      <point x="758" y="42" type="line" smooth="yes"/>
      <point x="744" y="42"/>
      <point x="729" y="44"/>
      <point x="718" y="70" type="curve" smooth="yes"/>
      <point x="606" y="349" type="line"/>
      <point x="680" y="383"/>
      <point x="721" y="441"/>
      <point x="721" y="517" type="curve" smooth="yes"/>
      <point x="721" y="634"/>
      <point x="621" y="710"/>
      <point x="435" y="710" type="curve" smooth="yes"/>
      <point x="22" y="710" type="line"/>
      <point x="22" y="668" type="line"/>
      <point x="32" y="668" type="line" smooth="yes"/>
      <point x="57" y="668"/>
      <point x="75" y="662"/>
      <point x="75" y="637" type="curve" smooth="yes"/>
      <point x="75" y="73" type="line" smooth="yes"/>
      <point x="75" y="48"/>
      <point x="57" y="42"/>
      <point x="32" y="42" type="curve" smooth="yes"/>
      <point x="22" y="42" type="line"/>
      <point x="22" y="0" type="line"/>
      <point x="381" y="0" type="line"/>
      <point x="381" y="42" type="line"/>
      <point x="372" y="42" type="line" smooth="yes"/>
      <point x="353" y="42"/>
      <point x="335" y="45"/>
    </contour>
    <contour>
      <point x="335" y="660" type="line"/>
      <point x="381" y="660" type="line" smooth="yes"/>
      <point x="431" y="660"/>
      <point x="456" y="625"/>
      <point x="456" y="520" type="curve" smooth="yes"/>
      <point x="456" y="402"/>
      <point x="431" y="362"/>
      <point x="376" y="362" type="curve" smooth="yes"/>
      <point x="335" y="362" type="line"/>
    </contour>
  </outline>
</glyph>
<glyph name="U" format="2">
  <advance width="729"/>
  <unicode hex="0055"/>
  <anchor x="408" y="741" name="top"/>
  <anchor x="408" y="0" name="bottom"/>
  <anchor x="463" y="0" name="right"/>
  <outline>
    <contour>
      <point x="333" y="241" type="curve" smooth="yes"/>
      <point x="333" y="658" type="line" smooth="yes"/>
      <point x="333" y="665"/>
      <point x="357" y="668"/>
      <point x="376" y="668" type="curve" smooth="yes"/>
      <point x="385" y="668" type="line"/>
      <point x="385" y="710" type="line"/>
      <point x="20" y="710" type="line"/>
      <point x="20" y="668" type="line"/>
      <point x="30" y="668" type="line" smooth="yes"/>
      <point x="55" y="668"/>
      <point x="73" y="662"/>
      <point x="73" y="637" type="curve" smooth="yes"/>
      <point x="73" y="280" type="line" smooth="yes"/>
      <point x="73" y="77"/>
      <point x="194" y="-10"/>
      <point x="388" y="-10" type="curve" smooth="yes"/>
      <point x="541" y="-10"/>
      <point x="656" y="74"/>
      <point x="656" y="280" type="curve" smooth="yes"/>
      <point x="656" y="637" type="line" smooth="yes"/>
      <point x="656" y="662"/>
      <point x="674" y="668"/>
      <point x="699" y="668" type="curve" smooth="yes"/>
      <point x="709" y="668" type="line"/>
      <point x="709" y="710" type="line"/>
      <point x="545" y="710" type="line"/>
      <point x="545" y="668" type="line"/>
      <point x="553" y="668" type="line" smooth="yes"/>
      <point x="573" y="668"/>
      <point x="597" y="662"/>
      <point x="597" y="648" type="curve" smooth="yes"/>
      <point x="597" y="280" type="line" smooth="yes"/>
      <point x="597" y="147"/>
      <point x="544" y="85"/>
      <point x="461" y="85" type="curve" smooth="yes"/>
      <point x="383" y="85"/>
      <point x="333" y="124"/>
    </contour>
  </outline>
</glyph>
<glyph name="W" format="2">
  <advance width="1012"/>
  <unicode hex="0057"/>
  <anchor x="530" y="741" name="top"/>
  <outline>
    <contour>
      <point x="10" y="710" type="line"/>
      <point x="10" y="668" type="line"/>
      <point x="17" y="668" type="line" smooth="yes"/>
      <point x="44" y="668"/>
      <point x="55" y="662"/>
      <point x="60" y="640" type="curve" smooth="yes"/>
      <point x="205" y="0" type="line"/>
      <point x="389" y="0" type="line"/>
      <point x="510" y="410" type="line"/>
      <point x="630" y="0" type="line"/>
      <point x="811" y="0" type="line"/>
      <point x="952" y="625" type="line" smooth="yes"/>
      <point x="959" y="658"/>
      <point x="967" y="668"/>
      <point x="996" y="668" type="curve" smooth="yes"/>
      <point x="1002" y="668" type="line"/>
      <point x="1002" y="710" type="line"/>
      <point x="853" y="710" type="line"/>
      <point x="853" y="668" type="line"/>
      <point x="868" y="668" type="line" smooth="yes"/>
      <point x="884" y="668"/>
      <point x="904" y="664"/>
      <point x="904" y="655" type="curve"/>
      <point x="814" y="253" type="line"/>
      <point x="685" y="710" type="line"/>
      <point x="546" y="710" type="line"/>
      <point x="406" y="249" type="line"/>
      <point x="324" y="658" type="line"/>
      <point x="324" y="665"/>
      <point x="342" y="668"/>
      <point x="362" y="668" type="curve" smooth="yes"/>
      <point x="376" y="668" type="line"/>
      <point x="376" y="710" type="line"/>
    </contour>
  </outline>
</glyph>
<glyph name="X" format="2">
  <advance width="710"/>
  <unicode hex="0058"/>
  <outline>
    <contour>
      <point x="8" y="0" type="line"/>
      <point x="163" y="0" type="line"/>
      <point x="163" y="42" type="line"/>
      <point x="153" y="42" type="line" smooth="yes"/>
      <point x="137" y="42"/>
      <point x="118" y="47"/>
      <point x="118" y="56" type="curve"/>
      <point x="266" y="285" type="line"/>
      <point x="385" y="52" type="line"/>
      <point x="385" y="45"/>
      <point x="366" y="42"/>
      <point x="352" y="42" type="curve" smooth="yes"/>
      <point x="338" y="42" type="line"/>
      <point x="338" y="0" type="line"/>
      <point x="702" y="0" type="line"/>
      <point x="702" y="42" type="line"/>
      <point x="692" y="42" type="line" smooth="yes"/>
      <point x="680" y="42"/>
      <point x="669" y="47"/>
      <point x="659" y="66" type="curve" smooth="yes"/>
      <point x="480" y="401" type="line"/>
      <point x="626" y="637" type="line" smooth="yes"/>
      <point x="640" y="660"/>
      <point x="659" y="668"/>
      <point x="678" y="668" type="curve" smooth="yes"/>
      <point x="682" y="668" type="line"/>
      <point x="682" y="710" type="line"/>
      <point x="526" y="710" type="line"/>
      <point x="526" y="668" type="line"/>
      <point x="537" y="668" type="line" smooth="yes"/>
      <point x="553" y="668"/>
      <point x="574" y="664"/>
      <point x="574" y="653" type="curve"/>
      <point x="450" y="451" type="line"/>
      <point x="345" y="658" type="line"/>
      <point x="345" y="665"/>
      <point x="363" y="668"/>
      <point x="378" y="668" type="curve" smooth="yes"/>
      <point x="391" y="668" type="line"/>
      <point x="391" y="710" type="line"/>
      <point x="23" y="710" type="line"/>
      <point x="23" y="668" type="line"/>
      <point x="27" y="668" type="line" smooth="yes"/>
      <point x="44" y="668"/>
      <point x="55" y="662"/>
      <point x="68" y="639" type="curve" smooth="yes"/>
      <point x="236" y="335" type="line"/>
      <point x="68" y="76" type="line" smooth="yes"/>
      <point x="52" y="51"/>
      <point x="34" y="42"/>
      <point x="17" y="42" type="curve" smooth="yes"/>
      <point x="8" y="42" type="line"/>
    </contour>
  </outline>
</glyph>
<glyph name="asciicircum" format="2">
  <advance width="481"/>
  <unicode hex="005E"/>
  <outline>
    <contour>
      <point x="90" y="350" type="line"/>
      <point x="240" y="657" type="line"/>
      <point x="391" y="350" type="line"/>
      <point x="451" y="350" type="line"/>
      <point x="267" y="710" type="line"/>
      <point x="214" y="710" type="line"/>
      <point x="30" y="350" type="line"/>
    </contour>
  </outline>
</glyph>
<glyph name="a" format="2">
  <advance width="617"/>
  <unicode hex="0061"/>
  <anchor x="251.0" y="563.0" name="top"/>
  <anchor x="279.0" y="0.0" name="bottom"/>
  <anchor x="407.0" y="-10.0" name="right"/>
  <outline>
    <contour>
      <point x="348" y="0" type="line"/>
      <point x="607" y="0" type="line"/>
      <point x="607" y="40" type="line"/>
      <point x="597" y="42" type="line" smooth="yes"/>
      <point x="579" y="46"/>
      <point x="573" y="49"/>
      <point x="573" y="65" type="curve" smooth="yes"/>
      <point x="573" y="345" type="line" smooth="yes"/>
      <point x="573" y="475"/>
      <point x="471" y="534"/>
      <point x="308" y="534" type="curve" smooth="yes"/>
      <point x="167" y="534"/>
      <point x="87" y="487"/>
      <point x="59" y="466" type="curve"/>
      <point x="59" y="348" type="line"/>
      <point x="227" y="348" type="line"/>
      <point x="227" y="472" type="line"/>
      <point x="241" y="479"/>
      <point x="260" y="484"/>
      <point x="278" y="484" type="curve" smooth="yes"/>
      <point x="319" y="484"/>
      <point x="335" y="465"/>
      <point x="335" y="430" type="curve" smooth="yes"/>
      <point x="335" y="316" type="line"/>
      <point x="124" y="289"/>
      <point x="17" y="244"/>
      <point x="17" y="133" type="curve" smooth="yes"/>
      <point x="17" y="37"/>
      <point x="74" y="-10"/>
      <point x="185" y="-10" type="curve" smooth="yes"/>
      <point x="268" y="-10"/>
      <point x="320" y="22"/>
      <point x="348" y="73" type="curve"/>
    </contour>
    <contour>
      <point x="239" y="154" type="curve" smooth="yes"/>
      <point x="239" y="222"/>
      <point x="266" y="257"/>
      <point x="335" y="272" type="curve"/>
      <point x="335" y="115" type="line"/>
      <point x="321" y="91"/>
      <point x="303" y="77"/>
      <point x="285" y="77" type="curve" smooth="yes"/>
      <point x="256" y="77"/>
      <point x="239" y="100"/>
    </contour>
  </outline>
</glyph>
<glyph name="b" format="2">
  <advance width="691"/>
  <unicode hex="0062"/>
  <outline>
    <contour>
      <point x="425" y="-10" type="curve" smooth="yes"/>
      <point x="564" y="-10"/>
      <point x="663" y="105"/>
      <point x="663" y="269" type="curve" smooth="yes"/>
      <point x="663" y="429"/>
      <point x="579" y="534"/>
      <point x="447" y="534" type="curve" smooth="yes"/>
      <point x="384" y="534"/>
      <point x="333" y="511"/>
      <point x="293" y="465" type="curve"/>
      <point x="293" y="750" type="line"/>
      <point x="14" y="750" type="line"/>
      <point x="14" y="710" type="line"/>
      <point x="24" y="708" type="line" smooth="yes"/>
      <point x="42" y="704"/>
      <point x="48" y="700"/>
      <point x="48" y="684" type="curve" smooth="yes"/>
      <point x="48" y="0" type="line"/>
      <point x="211" y="0" type="line"/>
      <point x="257" y="64" type="line"/>
      <point x="294" y="4"/>
      <point x="351" y="-10"/>
    </contour>
    <contour>
      <point x="359" y="449" type="curve" smooth="yes"/>
      <point x="398" y="449"/>
      <point x="413" y="407"/>
      <point x="413" y="269" type="curve" smooth="yes"/>
      <point x="413" y="122"/>
      <point x="396" y="62"/>
      <point x="349" y="62" type="curve" smooth="yes"/>
      <point x="323" y="62"/>
      <point x="303" y="79"/>
      <point x="293" y="117" type="curve"/>
      <point x="293" y="395" type="line"/>
      <point x="314" y="430"/>
      <point x="337" y="449"/>
    </contour>
  </outline>
</glyph>
<glyph name="d" format="2">
  <advance width="684"/>
  <unicode hex="0064"/>
  <anchor x="299" y="0" name="bottom"/>
  <anchor x="607" y="730" name="right"/>
  <outline>
    <contour>
      <point x="249" y="-10" type="curve" smooth="yes"/>
      <point x="324" y="-10"/>
      <point x="369" y="20"/>
      <point x="407" y="78" type="curve"/>
      <point x="407" y="0" type="line"/>
      <point x="672" y="0" type="line"/>
      <point x="672" y="40" type="line"/>
      <point x="662" y="42" type="line" smooth="yes"/>
      <point x="644" y="46"/>
      <point x="638" y="49"/>
      <point x="638" y="65" type="curve" smooth="yes"/>
      <point x="638" y="750" type="line"/>
      <point x="355" y="750" type="line"/>
      <point x="355" y="710" type="line"/>
      <point x="365" y="708" type="line" smooth="yes"/>
      <point x="384" y="704"/>
      <point x="393" y="701"/>
      <point x="393" y="685" type="curve" smooth="yes"/>
      <point x="393" y="483" type="line"/>
      <point x="360" y="517"/>
      <point x="315" y="534"/>
      <point x="257" y="534" type="curve" smooth="yes"/>
      <point x="120" y="534"/>
      <point x="23" y="419"/>
      <point x="23" y="255" type="curve" smooth="yes"/>
      <point x="23" y="95"/>
      <point x="111" y="-10"/>
    </contour>
    <contour>
      <point x="273" y="255" type="curve" smooth="yes"/>
      <point x="273" y="394"/>
      <point x="294" y="453"/>
      <point x="341" y="453" type="curve" smooth="yes"/>
      <point x="365" y="453"/>
      <point x="381" y="439"/>
      <point x="393" y="418" type="curve"/>
      <point x="393" y="136" type="line"/>
      <point x="375" y="99"/>
      <point x="356" y="82"/>
      <point x="333" y="82" type="curve" smooth="yes"/>
      <point x="294" y="82"/>
      <point x="273" y="120"/>
    </contour>
  </outline>
</glyph>
<glyph name="f" format="2">
  <advance width="435"/>
  <unicode hex="0066"/>
  <outline>
    <contour>
      <point x="0" y="524" type="line"/>
      <point x="0" y="476" type="line"/>
      <point x="71" y="476" type="line"/>
      <point x="71" y="66" type="line" smooth="yes"/>
      <point x="71" y="46"/>
      <point x="56" y="39"/>
      <point x="28" y="39" type="curve" smooth="yes"/>
      <point x="16" y="39" type="line"/>
      <point x="16" y="0" type="line"/>
      <point x="383" y="0" type="line"/>
      <point x="383" y="39" type="line"/>
      <point x="373" y="39" type="line" smooth="yes"/>
      <point x="347" y="39"/>
      <point x="315" y="41"/>
      <point x="315" y="47" type="curve" smooth="yes"/>
      <point x="315" y="476" type="line"/>
      <point x="423" y="476" type="line"/>
      <point x="423" y="524" type="line"/>
      <point x="315" y="524" type="line"/>
      <point x="315" y="616" type="line" smooth="yes"/>
      <point x="315" y="679"/>
      <point x="341" y="708"/>
      <point x="392" y="708" type="curve" smooth="yes"/>
      <point x="425" y="708"/>
      <point x="453" y="698"/>
      <point x="462" y="695" type="curve"/>
      <point x="462" y="750" type="line"/>
      <point x="431" y="757"/>
      <point x="395" y="760"/>
      <point x="358" y="760" type="curve" smooth="yes"/>
      <point x="193" y="760"/>
      <point x="71" y="706"/>
      <point x="71" y="551" type="curve" smooth="yes"/>
      <point x="71" y="524" type="line"/>
    </contour>
  </outline>
</glyph>
<glyph name="g" format="2">
  <advance width="652"/>
  <unicode hex="0067"/>
  <anchor x="271.0" y="555.0" name="top"/>
  <outline>
    <contour>
      <point x="300" y="172" type="curve" smooth="yes"/>
      <point x="460" y="172"/>
      <point x="565" y="238"/>
      <point x="565" y="351" type="curve" smooth="yes"/>
      <point x="565" y="384"/>
      <point x="556" y="414"/>
      <point x="539" y="439" type="curve"/>
      <point x="570" y="439"/>
      <point x="607" y="436"/>
      <point x="648" y="425" type="curve"/>
      <point x="648" y="544" type="line"/>
      <point x="582" y="554"/>
      <point x="537" y="527"/>
      <point x="501" y="478" type="curve"/>
      <point x="455" y="514"/>
      <point x="385" y="534"/>
      <point x="300" y="534" type="curve" smooth="yes"/>
      <point x="141" y="534"/>
      <point x="38" y="464"/>
      <point x="38" y="351" type="curve" smooth="yes"/>
      <point x="38" y="285"/>
      <point x="73" y="235"/>
      <point x="134" y="204" type="curve"/>
      <point x="71" y="178"/>
      <point x="24" y="132"/>
      <point x="24" y="71" type="curve" smooth="yes"/>
      <point x="24" y="11"/>
      <point x="54" y="-25"/>
      <point x="106" y="-47" type="curve"/>
      <point x="22" y="-65"/>
      <point x="-7" y="-93"/>
      <point x="-7" y="-136" type="curve" smooth="yes"/>
      <point x="-7" y="-210"/>
      <point x="102" y="-236"/>
      <point x="263" y="-236" type="curve" smooth="yes"/>
      <point x="324" y="-236" type="line" smooth="yes"/>
      <point x="512" y="-236"/>
      <point x="639" y="-171"/>
      <point x="639" y="-35" type="curve" smooth="yes"/>
      <point x="639" y="65"/>
      <point x="562" y="114"/>
      <point x="421" y="114" type="curve" smooth="yes"/>
      <point x="212" y="114" type="line" smooth="yes"/>
      <point x="175" y="114"/>
      <point x="161" y="124"/>
      <point x="161" y="145" type="curve" smooth="yes"/>
      <point x="161" y="160"/>
      <point x="171" y="173"/>
      <point x="191" y="184" type="curve"/>
      <point x="223" y="176"/>
      <point x="260" y="172"/>
    </contour>
    <contour>
      <point x="300" y="220" type="curve" smooth="yes"/>
      <point x="273" y="220"/>
      <point x="258" y="244"/>
      <point x="258" y="349" type="curve" smooth="yes"/>
      <point x="258" y="455"/>
      <point x="273" y="481"/>
      <point x="300" y="481" type="curve" smooth="yes"/>
      <point x="329" y="481"/>
      <point x="343" y="455"/>
      <point x="343" y="349" type="curve" smooth="yes"/>
      <point x="343" y="244"/>
      <point x="329" y="220"/>
    </contour>
    <contour>
      <point x="282" y="-186" type="line" smooth="yes"/>
      <point x="174" y="-186"/>
      <point x="137" y="-165"/>
      <point x="137" y="-117" type="curve" smooth="yes"/>
      <point x="137" y="-104"/>
      <point x="141" y="-91"/>
      <point x="150" y="-79" type="curve"/>
      <point x="421" y="-79" type="line" smooth="yes"/>
      <point x="455" y="-79"/>
      <point x="477" y="-92"/>
      <point x="477" y="-120" type="curve" smooth="yes"/>
      <point x="477" y="-159"/>
      <point x="438" y="-186"/>
      <point x="308" y="-186" type="curve" smooth="yes"/>
    </contour>
  </outline>
</glyph>
<glyph name="k" format="2">
  <advance width="709"/>
  <unicode hex="006B"/>
  <anchor x="321.0" y="0.0" name="bottom"/>
  <outline>
    <contour>
      <point x="295" y="750" type="line"/>
      <point x="16" y="750" type="line"/>
      <point x="16" y="710" type="line"/>
      <point x="25" y="708" type="line" smooth="yes"/>
      <point x="44" y="704"/>
      <point x="50" y="699"/>
      <point x="50" y="685" type="curve" smooth="yes"/>
      <point x="50" y="62" type="line" smooth="yes"/>
      <point x="50" y="42"/>
      <point x="35" y="39"/>
      <point x="17" y="39" type="curve" smooth="yes"/>
      <point x="16" y="39" type="line"/>
      <point x="16" y="0" type="line"/>
      <point x="325" y="0" type="line"/>
      <point x="325" y="39" type="line"/>
      <point x="324" y="39" type="line" smooth="yes"/>
      <point x="308" y="39"/>
      <point x="295" y="42"/>
      <point x="295" y="62" type="curve" smooth="yes"/>
    </contour>
    <contour>
      <point x="696" y="0" type="line"/>
      <point x="696" y="39" type="line"/>
      <point x="694" y="39" type="line"/>
      <point x="675" y="39"/>
      <point x="659" y="49"/>
      <point x="649" y="70" type="curve" smooth="yes"/>
      <point x="494" y="383" type="line"/>
      <point x="567" y="451" type="line" smooth="yes"/>
      <point x="595" y="478"/>
      <point x="616" y="488"/>
      <point x="651" y="488" type="curve"/>
      <point x="653" y="488" type="line"/>
      <point x="653" y="524" type="line"/>
      <point x="446" y="524" type="line"/>
      <point x="446" y="488" type="line"/>
      <point x="454" y="488" type="line" smooth="yes"/>
      <point x="484" y="488"/>
      <point x="514" y="486"/>
      <point x="514" y="472" type="curve"/>
      <point x="305" y="276" type="line"/>
      <point x="305" y="256" type="line"/>
      <point x="400" y="47" type="line"/>
      <point x="400" y="41"/>
      <point x="380" y="39"/>
      <point x="368" y="39" type="curve" smooth="yes"/>
      <point x="365" y="39" type="line"/>
      <point x="365" y="0" type="line"/>
    </contour>
  </outline>
</glyph>
<glyph name="p" format="2">
  <advance width="691"/>
  <unicode hex="0070"/>
  <outline>
    <contour>
      <point x="351" y="-223" type="line"/>
      <point x="351" y="-184" type="line"/>
      <point x="348" y="-184" type="line" smooth="yes"/>
      <point x="319" y="-184"/>
      <point x="295" y="-181"/>
      <point x="295" y="-175" type="curve" smooth="yes"/>
      <point x="295" y="29" type="line"/>
      <point x="325" y="1"/>
      <point x="368" y="-10"/>
      <point x="425" y="-10" type="curve" smooth="yes"/>
      <point x="564" y="-10"/>
      <point x="663" y="105"/>
      <point x="663" y="269" type="curve" smooth="yes"/>
      <point x="663" y="429"/>
      <point x="579" y="534"/>
      <point x="447" y="534" type="curve" smooth="yes"/>
      <point x="378" y="534"/>
      <point x="323" y="506"/>
      <point x="281" y="449" type="curve"/>
      <point x="281" y="524" type="line"/>
      <point x="16" y="524" type="line"/>
      <point x="16" y="484" type="line"/>
      <point x="26" y="482" type="line" smooth="yes"/>
      <point x="44" y="478"/>
      <point x="50" y="474"/>
      <point x="50" y="458" type="curve" smooth="yes"/>
      <point x="50" y="-161" type="line" smooth="yes"/>
      <point x="50" y="-181"/>
      <point x="35" y="-184"/>
      <point x="17" y="-184" type="curve" smooth="yes"/>
      <point x="16" y="-184" type="line"/>
      <point x="16" y="-223" type="line"/>
    </contour>
    <contour>
      <point x="359" y="447" type="curve" smooth="yes"/>
      <point x="398" y="447"/>
      <point x="413" y="407"/>
      <point x="413" y="269" type="curve" smooth="yes"/>
      <point x="413" y="126"/>
      <point x="396" y="60"/>
      <point x="349" y="60" type="curve" smooth="yes"/>
      <point x="324" y="60"/>
      <point x="306" y="75"/>
      <point x="295" y="105" type="curve"/>
      <point x="295" y="396" type="line"/>
      <point x="315" y="429"/>
      <point x="338" y="447"/>
    </contour>
  </outline>
</glyph>
<glyph name="r" format="2">
  <advance width="484"/>
  <unicode hex="0072"/>
  <anchor x="222.0" y="555.0" name="top"/>
  <anchor x="169.0" y="0.0" name="bottom"/>
  <outline>
    <contour>
      <point x="16" y="0" type="line"/>
      <point x="351" y="0" type="line"/>
      <point x="351" y="39" type="line"/>
      <point x="338" y="39" type="line" smooth="yes"/>
      <point x="322" y="39"/>
      <point x="295" y="41"/>
      <point x="295" y="47" type="curve" smooth="yes"/>
      <point x="295" y="320" type="line"/>
      <point x="323" y="333"/>
      <point x="364" y="338"/>
      <point x="397" y="338" type="curve" smooth="yes"/>
      <point x="419" y="338"/>
      <point x="444" y="335"/>
      <point x="462" y="330" type="curve"/>
      <point x="462" y="524" type="line"/>
      <point x="455" y="527"/>
      <point x="442" y="530"/>
      <point x="423" y="530" type="curve" smooth="yes"/>
      <point x="348" y="530"/>
      <point x="304" y="464"/>
      <point x="281" y="377" type="curve"/>
      <point x="281" y="524" type="line"/>
      <point x="16" y="524" type="line"/>
      <point x="16" y="484" type="line"/>
      <point x="26" y="482" type="line" smooth="yes"/>
      <point x="44" y="478"/>
      <point x="50" y="474"/>
      <point x="50" y="458" type="curve" smooth="yes"/>
      <point x="50" y="62" type="line" smooth="yes"/>
      <point x="50" y="42"/>
      <point x="35" y="39"/>
      <point x="17" y="39" type="curve" smooth="yes"/>
      <point x="16" y="39" type="line"/>
    </contour>
  </outline>
</glyph>
<glyph name="s" format="2">
  <advance width="543"/>
  <unicode hex="0073"/>
  <anchor x="241.0" y="556.0" name="top"/>
  <anchor x="244.0" y="0.0" name="bottom"/>
  <outline>
    <contour>
      <point x="329" y="100" type="curve" smooth="yes"/>
      <point x="329" y="59"/>
      <point x="295" y="38"/>
      <point x="238" y="38" type="curve" smooth="yes"/>
      <point x="214" y="38"/>
      <point x="190" y="41"/>
      <point x="170" y="50" type="curve"/>
      <point x="170" y="149" type="line"/>
      <point x="15" y="149" type="line"/>
      <point x="15" y="41" type="line"/>
      <point x="43" y="24"/>
      <point x="129" y="-10"/>
      <point x="246" y="-10" type="curve" smooth="yes"/>
      <point x="432" y="-10"/>
      <point x="528" y="56"/>
      <point x="528" y="181" type="curve" smooth="yes"/>
      <point x="528" y="295"/>
      <point x="426" y="330"/>
      <point x="340" y="353" type="curve" smooth="yes"/>
      <point x="249" y="378"/>
      <point x="207" y="392"/>
      <point x="207" y="433" type="curve" smooth="yes"/>
      <point x="207" y="466"/>
      <point x="234" y="486"/>
      <point x="286" y="486" type="curve" smooth="yes"/>
      <point x="310" y="486"/>
      <point x="330" y="484"/>
      <point x="345" y="477" type="curve"/>
      <point x="345" y="389" type="line"/>
      <point x="491" y="389" type="line"/>
      <point x="491" y="485" type="line"/>
      <point x="472" y="499"/>
      <point x="403" y="534"/>
      <point x="279" y="534" type="curve" smooth="yes"/>
      <point x="131" y="534"/>
      <point x="26" y="477"/>
      <point x="26" y="357" type="curve" smooth="yes"/>
      <point x="26" y="238"/>
      <point x="123" y="203"/>
      <point x="203" y="182" type="curve" smooth="yes"/>
      <point x="288" y="159"/>
      <point x="329" y="146"/>
    </contour>
  </outline>
</glyph>
<glyph name="t" format="2">
  <advance width="418"/>
  <unicode hex="0074"/>
  <anchor x="156" y="685" name="top"/>
  <anchor x="244" y="0" name="bottom"/>
  <anchor x="292" y="691" name="right"/>
  <outline>
    <contour>
      <point x="297" y="127" type="curve" smooth="yes"/>
      <point x="297" y="476" type="line"/>
      <point x="403" y="476" type="line"/>
      <point x="403" y="524" type="line"/>
      <point x="297" y="524" type="line"/>
      <point x="297" y="663" type="line"/>
      <point x="84" y="663" type="line"/>
      <point x="69" y="554" type="line"/>
      <point x="65" y="526"/>
      <point x="41" y="519"/>
      <point x="2" y="519" type="curve"/>
      <point x="0" y="519" type="line"/>
      <point x="0" y="476" type="line"/>
      <point x="52" y="476" type="line"/>
      <point x="52" y="175" type="line" smooth="yes"/>
      <point x="52" y="38"/>
      <point x="144" y="-10"/>
      <point x="283" y="-10" type="curve" smooth="yes"/>
      <point x="345" y="-10"/>
      <point x="388" y="2"/>
      <point x="403" y="10" type="curve"/>
      <point x="403" y="61" type="line"/>
      <point x="396" y="58"/>
      <point x="374" y="51"/>
      <point x="354" y="51" type="curve" smooth="yes"/>
      <point x="315" y="51"/>
      <point x="297" y="65"/>
    </contour>
  </outline>
</glyph>
<glyph name="u" format="2">
  <advance width="680"/>
  <unicode hex="0075"/>
  <anchor x="292" y="561" name="top"/>
  <anchor x="289.0" y="0.0" name="bottom"/>
  <anchor x="455.0" y="0.0" name="right"/>
  <outline>
    <contour>
      <point x="291" y="524" type="line"/>
      <point x="12" y="524" type="line"/>
      <point x="12" y="484" type="line"/>
      <point x="22" y="482" type="line" smooth="yes"/>
      <point x="40" y="478"/>
      <point x="46" y="474"/>
      <point x="46" y="458" type="curve" smooth="yes"/>
      <point x="46" y="171" type="line" smooth="yes"/>
      <point x="46" y="54"/>
      <point x="115" y="-10"/>
      <point x="221" y="-10" type="curve" smooth="yes"/>
      <point x="299" y="-10"/>
      <point x="366" y="26"/>
      <point x="403" y="98" type="curve"/>
      <point x="403" y="0" type="line"/>
      <point x="668" y="0" type="line"/>
      <point x="668" y="40" type="line"/>
      <point x="658" y="42" type="line" smooth="yes"/>
      <point x="640" y="46"/>
      <point x="634" y="49"/>
      <point x="634" y="65" type="curve" smooth="yes"/>
      <point x="634" y="524" type="line"/>
      <point x="339" y="524" type="line"/>
      <point x="339" y="484" type="line"/>
      <point x="352" y="482" type="line" smooth="yes"/>
      <point x="371" y="479"/>
      <point x="389" y="474"/>
      <point x="389" y="458" type="curve" smooth="yes"/>
      <point x="389" y="148" type="line"/>
      <point x="373" y="112"/>
      <point x="349" y="90"/>
      <point x="324" y="90" type="curve" smooth="yes"/>
      <point x="300" y="90"/>
      <point x="291" y="107"/>
      <point x="291" y="141" type="curve" smooth="yes"/>
    </contour>
  </outline>
</glyph>
<glyph name="w" format="2">
  <advance width="840"/>
  <unicode hex="0077"/>
  <anchor x="435" y="561" name="top"/>
  <outline>
    <contour>
      <point x="507" y="0" type="line"/>
      <point x="670" y="0" type="line"/>
      <point x="791" y="442" type="line" smooth="yes"/>
      <point x="800" y="474"/>
      <point x="812" y="485"/>
      <point x="830" y="485" type="curve" smooth="yes"/>
      <point x="832" y="485" type="line"/>
      <point x="832" y="524" type="line"/>
      <point x="704" y="524" type="line"/>
      <point x="704" y="485" type="line"/>
      <point x="705" y="485" type="line" smooth="yes"/>
      <point x="722" y="485"/>
      <point x="742" y="476"/>
      <point x="742" y="464" type="curve"/>
      <point x="676" y="217" type="line"/>
      <point x="587" y="524" type="line"/>
      <point x="445" y="524" type="line"/>
      <point x="353" y="215" type="line"/>
      <point x="290" y="476" type="line"/>
      <point x="290" y="483"/>
      <point x="310" y="485"/>
      <point x="329" y="485" type="curve" smooth="yes"/>
      <point x="330" y="485" type="line"/>
      <point x="330" y="524" type="line"/>
      <point x="8" y="524" type="line"/>
      <point x="8" y="485" type="line"/>
      <point x="10" y="485" type="line" smooth="yes"/>
      <point x="35" y="485"/>
      <point x="44" y="476"/>
      <point x="51" y="451" type="curve" smooth="yes"/>
      <point x="173" y="0" type="line"/>
      <point x="337" y="0" type="line"/>
      <point x="427" y="279" type="line"/>
    </contour>
  </outline>
</glyph>
<glyph name="x" format="2">
  <advance width="592"/>
  <unicode hex="0078"/>
  <outline>
    <contour>
      <point x="8" y="0" type="line"/>
      <point x="148" y="0" type="line"/>
      <point x="148" y="39" type="line"/>
      <point x="147" y="39" type="line" smooth="yes"/>
      <point x="122" y="39"/>
      <point x="107" y="42"/>
      <point x="107" y="50" type="curve"/>
      <point x="209" y="195" type="line"/>
      <point x="294" y="48" type="line"/>
      <point x="294" y="41"/>
      <point x="276" y="39"/>
      <point x="260" y="39" type="curve" smooth="yes"/>
      <point x="258" y="39" type="line"/>
      <point x="258" y="0" type="line"/>
      <point x="584" y="0" type="line"/>
      <point x="584" y="39" type="line"/>
      <point x="580" y="39" type="line"/>
      <point x="563" y="39"/>
      <point x="558" y="48"/>
      <point x="543" y="73" type="curve" smooth="yes"/>
      <point x="413" y="294" type="line"/>
      <point x="523" y="450" type="line" smooth="yes"/>
      <point x="540" y="474"/>
      <point x="553" y="486"/>
      <point x="572" y="486" type="curve"/>
      <point x="572" y="524" type="line"/>
      <point x="435" y="524" type="line"/>
      <point x="435" y="486" type="line"/>
      <point x="438" y="486" type="line" smooth="yes"/>
      <point x="464" y="486"/>
      <point x="476" y="482"/>
      <point x="476" y="474" type="curve"/>
      <point x="383" y="341" type="line"/>
      <point x="303" y="478" type="line"/>
      <point x="303" y="484"/>
      <point x="322" y="486"/>
      <point x="337" y="486" type="curve" smooth="yes"/>
      <point x="340" y="486" type="line"/>
      <point x="340" y="524" type="line"/>
      <point x="11" y="524" type="line"/>
      <point x="11" y="485" type="line"/>
      <point x="31" y="485"/>
      <point x="39" y="478"/>
      <point x="50" y="459" type="curve" smooth="yes"/>
      <point x="179" y="242" type="line"/>
      <point x="56" y="71" type="line" smooth="yes"/>
      <point x="36" y="43"/>
      <point x="26" y="39"/>
      <point x="12" y="39" type="curve" smooth="yes"/>
      <point x="8" y="39" type="line"/>
    </contour>
  </outline>
</glyph>
<glyph name="y" format="2">
  <advance width="604"/>
  <unicode hex="0079"/>
  <anchor x="313" y="561" name="top"/>
  <anchor x="322" y="-211" name="bottom"/>
  <outline>
    <contour>
      <point x="346" y="-27" type="curve" smooth="yes"/>
      <point x="551" y="440" type="line" smooth="yes"/>
      <point x="568" y="478"/>
      <point x="574" y="485"/>
      <point x="594" y="485" type="curve" smooth="yes"/>
      <point x="596" y="485" type="line"/>
      <point x="596" y="524" type="line"/>
      <point x="458" y="524" type="line"/>
      <point x="458" y="485" type="line"/>
      <point x="461" y="485" type="line" smooth="yes"/>
      <point x="488" y="485"/>
      <point x="505" y="478"/>
      <point x="505" y="470" type="curve"/>
      <point x="391" y="208" type="line"/>
      <point x="288" y="476" type="line"/>
      <point x="288" y="483"/>
      <point x="310" y="485"/>
      <point x="334" y="485" type="curve" smooth="yes"/>
      <point x="335" y="485" type="line"/>
      <point x="335" y="524" type="line"/>
      <point x="8" y="524" type="line"/>
      <point x="8" y="485" type="line"/>
      <point x="10" y="485" type="line" smooth="yes"/>
      <point x="30" y="485"/>
      <point x="39" y="474"/>
      <point x="47" y="457" type="curve" smooth="yes"/>
      <point x="273" y="-51" type="line"/>
      <point x="249" y="-81"/>
      <point x="217" y="-90"/>
      <point x="169" y="-90" type="curve" smooth="yes"/>
      <point x="120" y="-90"/>
      <point x="73" y="-67"/>
      <point x="64" y="-64" type="curve"/>
      <point x="64" y="-215" type="line"/>
      <point x="81" y="-224"/>
      <point x="107" y="-231"/>
      <point x="140" y="-231" type="curve" smooth="yes"/>
      <point x="229" y="-231"/>
      <point x="286" y="-164"/>
    </contour>
  </outline>
</glyph>
<glyph name="z" format="2">
  <advance width="539"/>
  <unicode hex="007A"/>
  <anchor x="241" y="561" name="top"/>
  <anchor x="260" y="0" name="bottom"/>
  <outline>
    <contour>
      <point x="525" y="197" type="line"/>
      <point x="479" y="197" type="line"/>
      <point x="461" y="95" type="line" smooth="yes"/>
      <point x="454" y="57"/>
      <point x="433" y="50"/>
      <point x="373" y="50" type="curve" smooth="yes"/>
      <point x="271" y="50" type="line"/>
      <point x="516" y="448" type="line"/>
      <point x="516" y="524" type="line"/>
      <point x="31" y="524" type="line"/>
      <point x="31" y="345" type="line"/>
      <point x="76" y="345" type="line"/>
      <point x="92" y="432" type="line" smooth="yes"/>
      <point x="99" y="468"/>
      <point x="119" y="475"/>
      <point x="180" y="475" type="curve" smooth="yes"/>
      <point x="269" y="475" type="line"/>
      <point x="20" y="79" type="line"/>
      <point x="20" y="0" type="line"/>
      <point x="525" y="0" type="line"/>
    </contour>
  </outline>
</glyph>
<glyph name="braceleft" format="2">
  <advance width="363"/>
  <unicode hex="007B"/>
  <outline>
    <contour>
      <point x="266" y="212" type="curve" smooth="yes"/>
      <point x="266" y="255"/>
      <point x="252" y="280"/>
      <point x="111" y="309" type="curve"/>
      <point x="111" y="314" type="line"/>
      <point x="253" y="343"/>
      <point x="266" y="369"/>
      <point x="266" y="413" type="curve" smooth="yes"/>
      <point x="266" y="467"/>
      <point x="210" y="549"/>
      <point x="210" y="624" type="curve" smooth="yes"/>
      <point x="210" y="685"/>
      <point x="253" y="715"/>
      <point x="338" y="716" type="curve"/>
      <point x="331" y="749" type="line"/>
      <point x="200" y="758"/>
      <point x="66" y="739"/>
      <point x="66" y="611" type="curve" smooth="yes"/>
      <point x="66" y="538"/>
      <point x="119" y="463"/>
      <point x="167" y="383" type="curve"/>
      <point x="15" y="328" type="line"/>
      <point x="15" y="295" type="line"/>
      <point x="167" y="240" type="line"/>
      <point x="114" y="152"/>
      <point x="66" y="86"/>
      <point x="66" y="12" type="curve" smooth="yes"/>
      <point x="66" y="-116"/>
      <point x="200" y="-135"/>
      <point x="331" y="-126" type="curve"/>
      <point x="338" y="-93" type="line"/>
      <point x="253" y="-92"/>
      <point x="210" y="-62"/>
      <point x="210" y="-1" type="curve" smooth="yes"/>
      <point x="210" y="75"/>
      <point x="266" y="156"/>
    </contour>
  </outline>
</glyph>
<glyph name="asciitilde" format="2">
  <advance width="529"/>
  <unicode hex="007E"/>
  <outline>
    <contour>
      <point x="350" y="261" type="curve" smooth="yes"/>
      <point x="435" y="261"/>
      <point x="482" y="336"/>
      <point x="509" y="465" type="curve"/>
      <point x="461" y="481" type="line"/>
      <point x="446" y="441"/>
      <point x="434" y="406"/>
      <point x="392" y="406" type="curve" smooth="yes"/>
      <point x="342" y="406"/>
      <point x="263" y="492"/>
      <point x="179" y="492" type="curve" smooth="yes"/>
      <point x="85" y="492"/>
      <point x="43" y="417"/>
      <point x="20" y="288" type="curve"/>
      <point x="68" y="272" type="line"/>
      <point x="78" y="312"/>
      <point x="87" y="347"/>
      <point x="131" y="347" type="curve" smooth="yes"/>
      <point x="181" y="347"/>
      <point x="263" y="261"/>
    </contour>
  </outline>
</glyph>
<glyph name="cent" format="2">
  <advance width="560"/>
  <unicode hex="00A2"/>
  <outline>
    <contour>
      <point x="360" y="46" type="curve" smooth="yes"/>
      <point x="349" y="46" type="line"/>
      <point x="349" y="485" type="line"/>
      <point x="365" y="484"/>
      <point x="377" y="480"/>
      <point x="388" y="474" type="curve"/>
      <point x="388" y="355" type="line"/>
      <point x="532" y="355" type="line"/>
      <point x="532" y="477" type="line"/>
      <point x="508" y="497"/>
      <point x="449" y="528"/>
      <point x="352" y="533" type="curve"/>
      <point x="352" y="633" type="line"/>
      <point x="292" y="633" type="line"/>
      <point x="292" y="533" type="line"/>
      <point x="124" y="523"/>
      <point x="20" y="425"/>
      <point x="20" y="260" type="curve" smooth="yes"/>
      <point x="20" y="93"/>
      <point x="135" y="-1"/>
      <point x="292" y="-9" type="curve"/>
      <point x="292" y="-126" type="line"/>
      <point x="352" y="-126" type="line"/>
      <point x="352" y="-8" type="line"/>
      <point x="452" y="3"/>
      <point x="506" y="60"/>
      <point x="544" y="138" type="curve"/>
      <point x="504" y="164" type="line"/>
      <point x="476" y="105"/>
      <point x="430" y="46"/>
    </contour>
    <contour>
      <point x="236" y="260" type="curve" smooth="yes"/>
      <point x="236" y="407"/>
      <point x="260" y="460"/>
      <point x="295" y="477" type="curve"/>
      <point x="295" y="61" type="line"/>
      <point x="257" y="85"/>
      <point x="236" y="142"/>
    </contour>
  </outline>
</glyph>
<glyph name="sterling" format="2">
  <advance width="560"/>
  <unicode hex="00A3"/>
  <outline>
    <contour>
      <point x="15" y="-6" type="line"/>
      <point x="157" y="1"/>
      <point x="242" y="51"/>
      <point x="286" y="110" type="curve"/>
      <point x="354" y="19"/>
      <point x="378" y="-10"/>
      <point x="434" y="-10" type="curve" smooth="yes"/>
      <point x="490" y="-10"/>
      <point x="541" y="33"/>
      <point x="562" y="226" type="curve"/>
      <point x="513" y="240" type="line"/>
      <point x="494" y="178"/>
      <point x="467" y="159"/>
      <point x="422" y="159" type="curve" smooth="yes"/>
      <point x="390" y="159"/>
      <point x="358" y="161"/>
      <point x="318" y="174" type="curve"/>
      <point x="324" y="192"/>
      <point x="326" y="209"/>
      <point x="326" y="225" type="curve" smooth="yes"/>
      <point x="326" y="269"/>
      <point x="323" y="307"/>
      <point x="318" y="342" type="curve"/>
      <point x="444" y="342" type="line"/>
      <point x="444" y="394" type="line"/>
      <point x="309" y="394" type="line"/>
      <point x="295" y="464"/>
      <point x="278" y="518"/>
      <point x="278" y="570" type="curve" smooth="yes"/>
      <point x="278" y="639"/>
      <point x="295" y="667"/>
      <point x="333" y="667" type="curve" smooth="yes"/>
      <point x="343" y="667"/>
      <point x="352" y="666"/>
      <point x="360" y="661" type="curve"/>
      <point x="360" y="528" type="line"/>
      <point x="524" y="528" type="line"/>
      <point x="524" y="664" type="line"/>
      <point x="500" y="683"/>
      <point x="440" y="720"/>
      <point x="318" y="720" type="curve" smooth="yes"/>
      <point x="143" y="720"/>
      <point x="55" y="632"/>
      <point x="55" y="529" type="curve" smooth="yes"/>
      <point x="55" y="477"/>
      <point x="69" y="434"/>
      <point x="87" y="394" type="curve"/>
      <point x="20" y="394" type="line"/>
      <point x="20" y="342" type="line"/>
      <point x="111" y="342" type="line"/>
      <point x="135" y="293"/>
      <point x="158" y="246"/>
      <point x="158" y="188" type="curve" smooth="yes"/>
      <point x="158" y="111"/>
      <point x="113" y="62"/>
      <point x="15" y="39" type="curve"/>
    </contour>
  </outline>
</glyph>
<glyph name="currency" format="2">
  <advance width="556"/>
  <unicode hex="00A4"/>
  <outline>
    <contour>
      <point x="35" y="166" type="line"/>
      <point x="85" y="116" type="line"/>
      <point x="174" y="204" type="line"/>
      <point x="204" y="187"/>
      <point x="239" y="177"/>
      <point x="278" y="177" type="curve" smooth="yes"/>
      <point x="317" y="177"/>
      <point x="352" y="187"/>
      <point x="382" y="204" type="curve"/>
      <point x="471" y="116" type="line"/>
      <point x="521" y="166" type="line"/>
      <point x="435" y="251" type="line"/>
      <point x="460" y="283"/>
      <point x="474" y="325"/>
      <point x="474" y="373" type="curve" smooth="yes"/>
      <point x="474" y="421"/>
      <point x="459" y="463"/>
      <point x="434" y="495" type="curve"/>
      <point x="521" y="581" type="line"/>
      <point x="471" y="630" type="line"/>
      <point x="382" y="542" type="line"/>
      <point x="352" y="559"/>
      <point x="317" y="569"/>
      <point x="278" y="569" type="curve" smooth="yes"/>
      <point x="239" y="569"/>
      <point x="204" y="559"/>
      <point x="174" y="542" type="curve"/>
      <point x="85" y="630" type="line"/>
      <point x="35" y="581" type="line"/>
      <point x="122" y="495" type="line"/>
      <point x="97" y="463"/>
      <point x="82" y="421"/>
      <point x="82" y="373" type="curve" smooth="yes"/>
      <point x="82" y="325"/>
      <point x="97" y="283"/>
      <point x="122" y="251" type="curve"/>
    </contour>
    <contour>
      <point x="404" y="373" type="curve" smooth="yes"/>
      <point x="404" y="292"/>
      <point x="356" y="237"/>
      <point x="278" y="237" type="curve" smooth="yes"/>
      <point x="198" y="237"/>
      <point x="152" y="292"/>
      <point x="152" y="373" type="curve" smooth="yes"/>
      <point x="152" y="453"/>
      <point x="198" y="509"/>
      <point x="278" y="509" type="curve" smooth="yes"/>
      <point x="356" y="509"/>
      <point x="404" y="453"/>
    </contour>
  </outline>
</glyph>
<glyph name="section" format="2">
  <advance width="665"/>
  <unicode hex="00A7"/>
  <outline>
    <contour>
      <point x="565" y="-27" type="curve" smooth="yes"/>
      <point x="565" y="39"/>
      <point x="533" y="81"/>
      <point x="471" y="120" type="curve"/>
      <point x="578" y="151"/>
      <point x="638" y="209"/>
      <point x="638" y="292" type="curve" smooth="yes"/>
      <point x="638" y="397"/>
      <point x="543" y="446"/>
      <point x="438" y="489" type="curve" smooth="yes"/>
      <point x="349" y="526"/>
      <point x="271" y="548"/>
      <point x="271" y="607" type="curve" smooth="yes"/>
      <point x="271" y="647"/>
      <point x="300" y="672"/>
      <point x="351" y="672" type="curve" smooth="yes"/>
      <point x="369" y="672"/>
      <point x="385" y="669"/>
      <point x="398" y="663" type="curve"/>
      <point x="398" y="558" type="line"/>
      <point x="579" y="558" type="line"/>
      <point x="579" y="663" type="line"/>
      <point x="537" y="693"/>
      <point x="461" y="720"/>
      <point x="352" y="720" type="curve" smooth="yes"/>
      <point x="198" y="720"/>
      <point x="98" y="650"/>
      <point x="98" y="529" type="curve" smooth="yes"/>
      <point x="98" y="459"/>
      <point x="135" y="411"/>
      <point x="185" y="376" type="curve"/>
      <point x="90" y="352"/>
      <point x="28" y="293"/>
      <point x="28" y="214" type="curve" smooth="yes"/>
      <point x="28" y="103"/>
      <point x="113" y="58"/>
      <point x="207" y="14" type="curve" smooth="yes"/>
      <point x="299" y="-29"/>
      <point x="381" y="-51"/>
      <point x="381" y="-111" type="curve" smooth="yes"/>
      <point x="381" y="-155"/>
      <point x="353" y="-188"/>
      <point x="293" y="-188" type="curve" smooth="yes"/>
      <point x="271" y="-188"/>
      <point x="252" y="-183"/>
      <point x="235" y="-171" type="curve"/>
      <point x="235" y="-59" type="line"/>
      <point x="40" y="-59" type="line"/>
      <point x="40" y="-168" type="line"/>
      <point x="98" y="-207"/>
      <point x="186" y="-236"/>
      <point x="307" y="-236" type="curve" smooth="yes"/>
      <point x="459" y="-236"/>
      <point x="565" y="-157"/>
    </contour>
    <contour>
      <point x="340" y="186" type="curve" smooth="yes"/>
      <point x="281" y="212"/>
      <point x="200" y="235"/>
      <point x="200" y="294" type="curve" smooth="yes"/>
      <point x="200" y="317"/>
      <point x="213" y="334"/>
      <point x="235" y="346" type="curve"/>
      <point x="247" y="340"/>
      <point x="260" y="334"/>
      <point x="273" y="328" type="curve" smooth="yes"/>
      <point x="368" y="288"/>
      <point x="455" y="264"/>
      <point x="455" y="210" type="curve" smooth="yes"/>
      <point x="455" y="183"/>
      <point x="442" y="162"/>
      <point x="423" y="147" type="curve"/>
      <point x="398" y="160"/>
      <point x="371" y="172"/>
    </contour>
  </outline>
</glyph>
<glyph name="ordfeminine" format="2">
  <advance width="529"/>
  <unicode hex="00AA"/>
  <outline>
    <contour>
      <point x="290" y="320" type="line"/>
      <point x="502" y="320" type="line"/>
      <point x="502" y="360" type="line"/>
      <point x="494" y="361" type="line" smooth="yes"/>
      <point x="481" y="363"/>
      <point x="476" y="367"/>
      <point x="476" y="381" type="curve" smooth="yes"/>
      <point x="476" y="572" type="line" smooth="yes"/>
      <point x="476" y="671"/>
      <point x="382" y="720"/>
      <point x="260" y="720" type="curve" smooth="yes"/>
      <point x="145" y="720"/>
      <point x="72" y="684"/>
      <point x="46" y="643" type="curve"/>
      <point x="46" y="584" type="line"/>
      <point x="205" y="584" type="line"/>
      <point x="205" y="667" type="line"/>
      <point x="215" y="672"/>
      <point x="227" y="675"/>
      <point x="240" y="675" type="curve" smooth="yes"/>
      <point x="266" y="675"/>
      <point x="281" y="662"/>
      <point x="281" y="630" type="curve" smooth="yes"/>
      <point x="281" y="555" type="line"/>
      <point x="94" y="531"/>
      <point x="18" y="499"/>
      <point x="18" y="413" type="curve" smooth="yes"/>
      <point x="18" y="346"/>
      <point x="66" y="312"/>
      <point x="142" y="312" type="curve" smooth="yes"/>
      <point x="214" y="312"/>
      <point x="259" y="332"/>
      <point x="290" y="378" type="curve"/>
    </contour>
    <contour>
      <point x="214" y="435" type="curve" smooth="yes"/>
      <point x="214" y="478"/>
      <point x="232" y="503"/>
      <point x="281" y="513" type="curve"/>
      <point x="281" y="424" type="line"/>
      <point x="273" y="403"/>
      <point x="259" y="389"/>
      <point x="242" y="389" type="curve" smooth="yes"/>
      <point x="223" y="389"/>
      <point x="214" y="402"/>
    </contour>
  </outline>
</glyph>
<glyph name="paragraph" format="2">
  <advance width="597"/>
  <unicode hex="00B6"/>
  <outline>
    <contour>
      <point x="396" y="0" type="line"/>
      <point x="396" y="657" type="line"/>
      <point x="449" y="657" type="line"/>
      <point x="449" y="0" type="line"/>
      <point x="522" y="0" type="line"/>
      <point x="522" y="632" type="line" smooth="yes"/>
      <point x="522" y="661"/>
      <point x="540" y="668"/>
      <point x="565" y="668" type="curve" smooth="yes"/>
      <point x="575" y="668" type="line"/>
      <point x="575" y="710" type="line"/>
      <point x="251" y="710" type="line" smooth="yes"/>
      <point x="103" y="710"/>
      <point x="15" y="629"/>
      <point x="15" y="503" type="curve" smooth="yes"/>
      <point x="15" y="375"/>
      <point x="107" y="285"/>
      <point x="256" y="285" type="curve" smooth="yes"/>
      <point x="323" y="285" type="line"/>
      <point x="323" y="0" type="line"/>
    </contour>
  </outline>
</glyph>
<glyph name="periodcentered" format="2">
  <advance width="272"/>
  <unicode hex="00B7"/>
  <outline>
    <contour>
      <point x="238" y="351" type="curve" smooth="yes"/>
      <point x="238" y="405"/>
      <point x="201" y="443"/>
      <point x="136" y="443" type="curve" smooth="yes"/>
      <point x="72" y="443"/>
      <point x="34" y="405"/>
      <point x="34" y="351" type="curve" smooth="yes"/>
      <point x="34" y="296"/>
      <point x="72" y="258"/>
      <point x="136" y="258" type="curve" smooth="yes"/>
      <point x="201" y="258"/>
      <point x="238" y="296"/>
    </contour>
  </outline>
</glyph>
<glyph name="cedilla" format="2">
  <advance width="600"/>
  <unicode hex="00B8"/>
  <anchor x="297.0" y="34.0" name="_bottom"/>
  <outline>
    <contour>
      <point x="301" y="4" type="line"/>
      <point x="246" y="4" type="line"/>
      <point x="203" y="-96" type="line"/>
      <point x="215" y="-96" type="line" smooth="yes"/>
      <point x="260" y="-96"/>
      <point x="281" y="-110"/>
      <point x="281" y="-142" type="curve" smooth="yes"/>
      <point x="281" y="-167"/>
      <point x="266" y="-190"/>
      <point x="228" y="-190" type="curve" smooth="yes"/>
      <point x="208" y="-190"/>
      <point x="185" y="-183"/>
      <point x="161" y="-165" type="curve"/>
      <point x="136" y="-203" type="line"/>
      <point x="167" y="-226"/>
      <point x="207" y="-238"/>
      <point x="265" y="-238" type="curve" smooth="yes"/>
      <point x="348" y="-238"/>
      <point x="406" y="-205"/>
      <point x="406" y="-147" type="curve" smooth="yes"/>
      <point x="406" y="-88"/>
      <point x="352" y="-61"/>
      <point x="267" y="-60" type="curve"/>
    </contour>
  </outline>
</glyph>
<glyph name="Eth" format="2">
  <advance width="823"/>
  <unicode hex="00D0"/>
  <outline>
    <contour>
      <point x="22" y="383" type="line"/>
      <point x="22" y="330" type="line"/>
      <point x="75" y="330" type="line"/>
      <point x="75" y="78" type="line" smooth="yes"/>
      <point x="75" y="47"/>
      <point x="57" y="42"/>
      <point x="33" y="42" type="curve" smooth="yes"/>
      <point x="22" y="42" type="line"/>
      <point x="22" y="0" type="line"/>
      <point x="392" y="0" type="line" smooth="yes"/>
      <point x="628" y="0"/>
      <point x="795" y="131"/>
      <point x="795" y="357" type="curve" smooth="yes"/>
      <point x="795" y="584"/>
      <point x="628" y="710"/>
      <point x="392" y="710" type="curve" smooth="yes"/>
      <point x="22" y="710" type="line"/>
      <point x="22" y="668" type="line"/>
      <point x="33" y="668" type="line" smooth="yes"/>
      <point x="57" y="668"/>
      <point x="75" y="661"/>
      <point x="75" y="632" type="curve" smooth="yes"/>
      <point x="75" y="383" type="line"/>
    </contour>
    <contour>
      <point x="388" y="657" type="line" smooth="yes"/>
      <point x="473" y="657"/>
      <point x="525" y="581"/>
      <point x="525" y="357" type="curve" smooth="yes"/>
      <point x="525" y="133"/>
      <point x="473" y="53"/>
      <point x="388" y="53" type="curve" smooth="yes"/>
      <point x="335" y="53" type="line"/>
      <point x="335" y="330" type="line"/>
      <point x="431" y="330" type="line"/>
      <point x="431" y="383" type="line"/>
      <point x="335" y="383" type="line"/>
      <point x="335" y="657" type="line"/>
    </contour>
  </outline>
</glyph>
<glyph name="multiply" format="2">
  <advance width="560"/>
  <unicode hex="00D7"/>
  <outline>
    <contour>
      <point x="118" y="539" type="line"/>
      <point x="79" y="498" type="line"/>
      <point x="236" y="341" type="line"/>
      <point x="79" y="184" type="line"/>
      <point x="118" y="143" type="line"/>
      <point x="276" y="301" type="line"/>
      <point x="434" y="143" type="line"/>
      <point x="473" y="184" type="line"/>
      <point x="316" y="341" type="line"/>
      <point x="473" y="498" type="line"/>
      <point x="434" y="539" type="line"/>
      <point x="276" y="381" type="line"/>
    </contour>
  </outline>
</glyph>
<glyph name="Oslash" format="2">
  <advance width="814"/>
  <unicode hex="00D8"/>
  <anchor x="396.0" y="731.0" name="top"/>
  <outline>
    <contour>
      <point x="407" y="-10" type="curve" smooth="yes"/>
      <point x="631" y="-10"/>
      <point x="786" y="133"/>
      <point x="786" y="355" type="curve" smooth="yes"/>
      <point x="786" y="462"/>
      <point x="750" y="551"/>
      <point x="686" y="615" type="curve"/>
      <point x="790" y="720" type="line"/>
      <point x="715" y="720" type="line"/>
      <point x="646" y="649" type="line"/>
      <point x="582" y="695"/>
      <point x="501" y="720"/>
      <point x="407" y="720" type="curve" smooth="yes"/>
      <point x="183" y="720"/>
      <point x="28" y="576"/>
      <point x="28" y="355" type="curve" smooth="yes"/>
      <point x="28" y="255"/>
      <point x="60" y="171"/>
      <point x="115" y="109" type="curve"/>
      <point x="-2" y="-10" type="line"/>
      <point x="73" y="-10" type="line"/>
      <point x="153" y="72" type="line"/>
      <point x="219" y="19"/>
      <point x="306" y="-10"/>
    </contour>
    <contour>
      <point x="298" y="355" type="curve" smooth="yes"/>
      <point x="298" y="573"/>
      <point x="328" y="667"/>
      <point x="407" y="667" type="curve" smooth="yes"/>
      <point x="464" y="667"/>
      <point x="495" y="618"/>
      <point x="509" y="510" type="curve"/>
      <point x="299" y="296" type="line"/>
      <point x="298" y="315"/>
      <point x="298" y="334"/>
    </contour>
    <contour>
      <point x="407" y="43" type="curve" smooth="yes"/>
      <point x="346" y="43"/>
      <point x="314" y="94"/>
      <point x="303" y="224" type="curve"/>
      <point x="514" y="439" type="line"/>
      <point x="515" y="414"/>
      <point x="516" y="386"/>
      <point x="516" y="355" type="curve" smooth="yes"/>
      <point x="516" y="127"/>
      <point x="486" y="43"/>
    </contour>
  </outline>
</glyph>
<glyph name="Thorn" format="2">
  <advance width="723"/>
  <unicode hex="00DE"/>
  <outline>
    <contour>
      <point x="375" y="668" type="curve" smooth="yes"/>
      <point x="399" y="668" type="line"/>
      <point x="399" y="710" type="line"/>
      <point x="22" y="710" type="line"/>
      <point x="22" y="668" type="line"/>
      <point x="32" y="668" type="line" smooth="yes"/>
      <point x="57" y="668"/>
      <point x="75" y="662"/>
      <point x="75" y="637" type="curve" smooth="yes"/>
      <point x="75" y="73" type="line" smooth="yes"/>
      <point x="75" y="48"/>
      <point x="57" y="42"/>
      <point x="32" y="42" type="curve" smooth="yes"/>
      <point x="22" y="42" type="line"/>
      <point x="22" y="0" type="line"/>
      <point x="399" y="0" type="line"/>
      <point x="399" y="42" type="line"/>
      <point x="375" y="42" type="line" smooth="yes"/>
      <point x="357" y="42"/>
      <point x="335" y="45"/>
      <point x="335" y="52" type="curve"/>
      <point x="335" y="150" type="line"/>
      <point x="426" y="150" type="line" smooth="yes"/>
      <point x="605" y="150"/>
      <point x="716" y="231"/>
      <point x="716" y="368" type="curve" smooth="yes"/>
      <point x="716" y="499"/>
      <point x="612" y="571"/>
      <point x="431" y="571" type="curve" smooth="yes"/>
      <point x="335" y="571" type="line"/>
      <point x="335" y="658" type="line"/>
      <point x="335" y="665"/>
      <point x="357" y="668"/>
    </contour>
    <contour>
      <point x="365" y="518" type="line" smooth="yes"/>
      <point x="427" y="518"/>
      <point x="463" y="480"/>
      <point x="463" y="363" type="curve" smooth="yes"/>
      <point x="463" y="245"/>
      <point x="427" y="203"/>
      <point x="362" y="203" type="curve" smooth="yes"/>
      <point x="335" y="203" type="line"/>
      <point x="335" y="518" type="line"/>
    </contour>
  </outline>
</glyph>
<glyph name="ae" format="2">
  <advance width="925"/>
  <unicode hex="00E6"/>
  <anchor x="474.0" y="555.0" name="top"/>
  <outline>
    <contour>
      <point x="279" y="534" type="curve" smooth="yes"/>
      <point x="173" y="534"/>
      <point x="86" y="488"/>
      <point x="59" y="466" type="curve"/>
      <point x="59" y="348" type="line"/>
      <point x="227" y="348" type="line"/>
      <point x="227" y="472" type="line"/>
      <point x="241" y="479"/>
      <point x="260" y="484"/>
      <point x="279" y="484" type="curve" smooth="yes"/>
      <point x="313" y="484"/>
      <point x="335" y="470"/>
      <point x="335" y="429" type="curve" smooth="yes"/>
      <point x="335" y="316" type="line"/>
      <point x="124" y="289"/>
      <point x="17" y="244"/>
      <point x="17" y="131" type="curve" smooth="yes"/>
      <point x="17" y="39"/>
      <point x="73" y="-10"/>
      <point x="197" y="-10" type="curve" smooth="yes"/>
      <point x="299" y="-10"/>
      <point x="358" y="34"/>
      <point x="390" y="90" type="curve"/>
      <point x="442" y="26"/>
      <point x="530" y="-10"/>
      <point x="646" y="-10" type="curve" smooth="yes"/>
      <point x="777" y="-10"/>
      <point x="851" y="45"/>
      <point x="891" y="127" type="curve"/>
      <point x="850" y="153" type="line"/>
      <point x="819" y="95"/>
      <point x="766" y="50"/>
      <point x="697" y="50" type="curve" smooth="yes"/>
      <point x="608" y="50"/>
      <point x="580" y="104"/>
      <point x="580" y="260" type="curve"/>
      <point x="905" y="260" type="line"/>
      <point x="902" y="435"/>
      <point x="805" y="534"/>
      <point x="639" y="534" type="curve" smooth="yes"/>
      <point x="573" y="534"/>
      <point x="507" y="512"/>
      <point x="459" y="462" type="curve"/>
      <point x="427" y="511"/>
      <point x="369" y="534"/>
    </contour>
    <contour>
      <point x="634" y="484" type="curve" smooth="yes"/>
      <point x="669" y="484"/>
      <point x="683" y="461"/>
      <point x="684" y="308" type="curve"/>
      <point x="580" y="308" type="line"/>
      <point x="584" y="454"/>
      <point x="602" y="484"/>
    </contour>
    <contour>
      <point x="239" y="154" type="curve" smooth="yes"/>
      <point x="239" y="221"/>
      <point x="266" y="256"/>
      <point x="335" y="272" type="curve"/>
      <point x="335" y="261" type="line"/>
      <point x="335" y="214"/>
      <point x="344" y="171"/>
      <point x="362" y="135" type="curve"/>
      <point x="349" y="103"/>
      <point x="325" y="78"/>
      <point x="293" y="78" type="curve" smooth="yes"/>
      <point x="257" y="78"/>
      <point x="239" y="106"/>
    </contour>
  </outline>
</glyph>
<glyph name="eth" format="2">
  <advance width="665"/>
  <unicode hex="00F0"/>
  <outline>
    <contour>
      <point x="130" y="600" type="line"/>
      <point x="151" y="558" type="line"/>
      <point x="321" y="632" type="line"/>
      <point x="356" y="594"/>
      <point x="374" y="550"/>
      <point x="384" y="498" type="curve"/>
      <point x="358" y="522"/>
      <point x="323" y="534"/>
      <point x="269" y="534" type="curve" smooth="yes"/>
      <point x="126" y="534"/>
      <point x="23" y="423"/>
      <point x="23" y="265" type="curve" smooth="yes"/>
      <point x="23" y="92"/>
      <point x="145" y="-10"/>
      <point x="334" y="-10" type="curve" smooth="yes"/>
      <point x="517" y="-10"/>
      <point x="642" y="111"/>
      <point x="642" y="309" type="curve" smooth="yes"/>
      <point x="642" y="445"/>
      <point x="589" y="577"/>
      <point x="418" y="674" type="curve"/>
      <point x="499" y="709" type="line"/>
      <point x="478" y="751" type="line"/>
      <point x="364" y="701" type="line"/>
      <point x="317" y="723"/>
      <point x="262" y="742"/>
      <point x="200" y="759" type="curve"/>
      <point x="178" y="720" type="line"/>
      <point x="220" y="704"/>
      <point x="255" y="686"/>
      <point x="282" y="666" type="curve"/>
    </contour>
    <contour>
      <point x="273" y="262" type="curve" smooth="yes"/>
      <point x="273" y="388"/>
      <point x="288" y="465"/>
      <point x="338" y="465" type="curve" smooth="yes"/>
      <point x="360" y="465"/>
      <point x="377" y="454"/>
      <point x="392" y="434" type="curve"/>
      <point x="395" y="391"/>
      <point x="395" y="343"/>
      <point x="395" y="290" type="curve" smooth="yes"/>
      <point x="395" y="86"/>
      <point x="377" y="40"/>
      <point x="334" y="40" type="curve" smooth="yes"/>
      <point x="297" y="40"/>
      <point x="273" y="75"/>
    </contour>
  </outline>
</glyph>
<glyph name="oslash" format="2">
  <advance width="668"/>
  <unicode hex="00F8"/>
  <anchor x="307" y="551" name="top"/>
  <outline>
    <contour>
      <point x="334" y="-10" type="curve" smooth="yes"/>
      <point x="529" y="-10"/>
      <point x="645" y="99"/>
      <point x="645" y="262" type="curve" smooth="yes"/>
      <point x="645" y="342"/>
      <point x="617" y="409"/>
      <point x="565" y="457" type="curve"/>
      <point x="644" y="534" type="line"/>
      <point x="575" y="534" type="line"/>
      <point x="526" y="486" type="line"/>
      <point x="476" y="517"/>
      <point x="411" y="534"/>
      <point x="334" y="534" type="curve" smooth="yes"/>
      <point x="139" y="534"/>
      <point x="23" y="425"/>
      <point x="23" y="262" type="curve" smooth="yes"/>
      <point x="23" y="182"/>
      <point x="51" y="116"/>
      <point x="102" y="68" type="curve"/>
      <point x="22" y="-10" type="line"/>
      <point x="91" y="-10" type="line"/>
      <point x="140" y="39" type="line"/>
      <point x="191" y="7"/>
      <point x="256" y="-10"/>
    </contour>
    <contour>
      <point x="263" y="262" type="line" smooth="yes"/>
      <point x="263" y="439"/>
      <point x="285" y="484"/>
      <point x="334" y="484" type="curve" smooth="yes"/>
      <point x="372" y="484"/>
      <point x="394" y="457"/>
      <point x="402" y="363" type="curve"/>
      <point x="263" y="227" type="line"/>
    </contour>
    <contour>
      <point x="334" y="40" type="curve" smooth="yes"/>
      <point x="296" y="40"/>
      <point x="274" y="67"/>
      <point x="266" y="162" type="curve"/>
      <point x="405" y="299" type="line"/>
      <point x="405" y="262" type="line" smooth="yes"/>
      <point x="405" y="85"/>
      <point x="383" y="40"/>
    </contour>
  </outline>
</glyph>
<glyph name="thorn" format="2">
  <advance width="689"/>
  <unicode hex="00FE"/>
  <outline>
    <contour>
      <point x="14" y="-223" type="line"/>
      <point x="349" y="-223" type="line"/>
      <point x="349" y="-184" type="line"/>
      <point x="346" y="-184" type="line" smooth="yes"/>
      <point x="317" y="-184"/>
      <point x="293" y="-181"/>
      <point x="293" y="-175" type="curve"/>
      <point x="293" y="29" type="line"/>
      <point x="323" y="1"/>
      <point x="366" y="-10"/>
      <point x="423" y="-10" type="curve" smooth="yes"/>
      <point x="562" y="-10"/>
      <point x="661" y="105"/>
      <point x="661" y="269" type="curve" smooth="yes"/>
      <point x="661" y="429"/>
      <point x="577" y="534"/>
      <point x="445" y="534" type="curve" smooth="yes"/>
      <point x="383" y="534"/>
      <point x="333" y="512"/>
      <point x="293" y="467" type="curve"/>
      <point x="293" y="750" type="line"/>
      <point x="14" y="750" type="line"/>
      <point x="14" y="710" type="line"/>
      <point x="24" y="708" type="line" smooth="yes"/>
      <point x="42" y="704"/>
      <point x="48" y="700"/>
      <point x="48" y="684" type="curve" smooth="yes"/>
      <point x="48" y="-161" type="line" smooth="yes"/>
      <point x="48" y="-181"/>
      <point x="33" y="-184"/>
      <point x="15" y="-184" type="curve" smooth="yes"/>
      <point x="14" y="-184" type="line"/>
    </contour>
    <contour>
      <point x="411" y="269" type="curve" smooth="yes"/>
      <point x="411" y="126"/>
      <point x="394" y="60"/>
      <point x="347" y="60" type="curve" smooth="yes"/>
      <point x="322" y="60"/>
      <point x="304" y="75"/>
      <point x="293" y="105" type="curve"/>
      <point x="293" y="396" type="line"/>
      <point x="313" y="429"/>
      <point x="336" y="447"/>
      <point x="357" y="447" type="curve" smooth="yes"/>
      <point x="396" y="447"/>
      <point x="411" y="407"/>
    </contour>
  </outline>
</glyph>
<glyph name="Aogonek" format="2">
  <advance width="733"/>
  <unicode hex="0104"/>
  <outline>
    <contour>
      <point x="10" y="0" type="line"/>
      <point x="162" y="0" type="line"/>
      <point x="162" y="42" type="line"/>
      <point x="150" y="42" type="line" smooth="yes"/>
      <point x="122" y="42"/>
      <point x="105" y="45"/>
      <point x="105" y="54" type="curve"/>
      <point x="161" y="220" type="line"/>
      <point x="360" y="220" type="line"/>
      <point x="432" y="12" type="line"/>
      <point x="321" y="-23"/>
      <point x="257" y="-75"/>
      <point x="257" y="-142" type="curve" smooth="yes"/>
      <point x="257" y="-210"/>
      <point x="312" y="-246"/>
      <point x="396" y="-246" type="curve" smooth="yes"/>
      <point x="479" y="-246"/>
      <point x="524" y="-214"/>
      <point x="560" y="-166" type="curve"/>
      <point x="531" y="-135" type="line"/>
      <point x="518" y="-147"/>
      <point x="497" y="-161"/>
      <point x="474" y="-161" type="curve" smooth="yes"/>
      <point x="436" y="-161"/>
      <point x="414" y="-143"/>
      <point x="414" y="-103" type="curve" smooth="yes"/>
      <point x="414" y="-71"/>
      <point x="440" y="-27"/>
      <point x="508" y="0" type="curve"/>
      <point x="723" y="0" type="line"/>
      <point x="723" y="42" type="line"/>
      <point x="719" y="42" type="line"/>
      <point x="699" y="42"/>
      <point x="689" y="48"/>
      <point x="681" y="70" type="curve"/>
      <point x="460" y="710" type="line"/>
      <point x="274" y="710" type="line"/>
      <point x="55" y="76" type="line" smooth="yes"/>
      <point x="46" y="50"/>
      <point x="38" y="42"/>
      <point x="15" y="42" type="curve" smooth="yes"/>
      <point x="10" y="42" type="line"/>
    </contour>
    <contour>
      <point x="178" y="270" type="line"/>
      <point x="260" y="510" type="line"/>
      <point x="343" y="270" type="line"/>
    </contour>
  </outline>
</glyph>
<glyph name="aogonek" format="2">
  <advance width="617"/>
  <unicode hex="0105"/>
  <outline>
    <contour>
      <point x="515" y="-166" type="curve"/>
      <point x="486" y="-135" type="line"/>
      <point x="473" y="-147"/>
      <point x="452" y="-161"/>
      <point x="429" y="-161" type="curve" smooth="yes"/>
      <point x="391" y="-161"/>
      <point x="369" y="-143"/>
      <point x="369" y="-103" type="curve" smooth="yes"/>
      <point x="369" y="-75"/>
      <point x="380" y="-35"/>
      <point x="413" y="0" type="curve"/>
      <point x="607" y="0" type="line"/>
      <point x="607" y="40" type="line"/>
      <point x="597" y="42" type="line" smooth="yes"/>
      <point x="579" y="46"/>
      <point x="573" y="49"/>
      <point x="573" y="65" type="curve" smooth="yes"/>
      <point x="573" y="345" type="line" smooth="yes"/>
      <point x="573" y="475"/>
      <point x="471" y="534"/>
      <point x="308" y="534" type="curve" smooth="yes"/>
      <point x="167" y="534"/>
      <point x="87" y="487"/>
      <point x="59" y="466" type="curve"/>
      <point x="59" y="348" type="line"/>
      <point x="227" y="348" type="line"/>
      <point x="227" y="472" type="line"/>
      <point x="241" y="479"/>
      <point x="260" y="484"/>
      <point x="278" y="484" type="curve" smooth="yes"/>
      <point x="319" y="484"/>
      <point x="335" y="465"/>
      <point x="335" y="430" type="curve" smooth="yes"/>
      <point x="335" y="316" type="line"/>
      <point x="124" y="289"/>
      <point x="17" y="244"/>
      <point x="17" y="133" type="curve" smooth="yes"/>
      <point x="17" y="37"/>
      <point x="74" y="-10"/>
      <point x="185" y="-10" type="curve" smooth="yes"/>
      <point x="268" y="-10"/>
      <point x="320" y="22"/>
      <point x="348" y="73" type="curve"/>
      <point x="348" y="3" type="line"/>
      <point x="256" y="-40"/>
      <point x="212" y="-82"/>
      <point x="212" y="-142" type="curve" smooth="yes"/>
      <point x="212" y="-210"/>
      <point x="267" y="-246"/>
      <point x="351" y="-246" type="curve" smooth="yes"/>
      <point x="434" y="-246"/>
      <point x="479" y="-214"/>
    </contour>
    <contour>
      <point x="239" y="154" type="curve" smooth="yes"/>
      <point x="239" y="222"/>
      <point x="266" y="257"/>
      <point x="335" y="272" type="curve"/>
      <point x="335" y="115" type="line"/>
      <point x="321" y="91"/>
      <point x="303" y="77"/>
      <point x="285" y="77" type="curve" smooth="yes"/>
      <point x="256" y="77"/>
      <point x="239" y="100"/>
    </contour>
  </outline>
</glyph>
<glyph name="dcroat" format="2">
  <advance width="684"/>
  <unicode hex="0111"/>
  <outline>
    <contour>
      <point x="638" y="65" type="curve"/>
      <point x="638" y="604" type="line"/>
      <point x="682" y="604" type="line"/>
      <point x="682" y="652" type="line"/>
      <point x="638" y="652" type="line"/>
      <point x="638" y="750" type="line"/>
      <point x="393" y="750" type="line"/>
      <point x="393" y="652" type="line"/>
      <point x="247" y="652" type="line"/>
      <point x="247" y="604" type="line"/>
      <point x="393" y="604" type="line"/>
      <point x="393" y="483" type="line"/>
      <point x="360" y="517"/>
      <point x="315" y="534"/>
      <point x="257" y="534" type="curve" smooth="yes"/>
      <point x="120" y="534"/>
      <point x="23" y="419"/>
      <point x="23" y="255" type="curve" smooth="yes"/>
      <point x="23" y="95"/>
      <point x="111" y="-10"/>
      <point x="249" y="-10" type="curve" smooth="yes"/>
      <point x="324" y="-10"/>
      <point x="369" y="20"/>
      <point x="407" y="78" type="curve"/>
      <point x="407" y="0" type="line"/>
      <point x="672" y="0" type="line"/>
      <point x="672" y="40" type="line"/>
      <point x="662" y="42" type="line" smooth="yes"/>
      <point x="644" y="46"/>
      <point x="638" y="49"/>
    </contour>
    <contour>
      <point x="273" y="255" type="curve" smooth="yes"/>
      <point x="273" y="394"/>
      <point x="294" y="453"/>
      <point x="341" y="453" type="curve" smooth="yes"/>
      <point x="365" y="453"/>
      <point x="381" y="439"/>
      <point x="393" y="418" type="curve"/>
      <point x="393" y="136" type="line"/>
      <point x="375" y="99"/>
      <point x="356" y="82"/>
      <point x="333" y="82" type="curve" smooth="yes"/>
      <point x="294" y="82"/>
      <point x="273" y="120"/>
    </contour>
  </outline>
</glyph>
<glyph name="eogonek" format="2">
  <advance width="613"/>
  <unicode hex="0119"/>
  <outline>
    <contour>
      <point x="528" y="-166" type="curve"/>
      <point x="499" y="-135" type="line"/>
      <point x="486" y="-147"/>
      <point x="465" y="-161"/>
      <point x="442" y="-161" type="curve" smooth="yes"/>
      <point x="404" y="-161"/>
      <point x="382" y="-143"/>
      <point x="382" y="-103" type="curve" smooth="yes"/>
      <point x="382" y="-54"/>
      <point x="413" y="-22"/>
      <point x="478" y="19" type="curve" smooth="yes"/>
      <point x="531" y="53"/>
      <point x="559" y="87"/>
      <point x="579" y="127" type="curve"/>
      <point x="538" y="153" type="line"/>
      <point x="507" y="95"/>
      <point x="454" y="50"/>
      <point x="385" y="50" type="curve" smooth="yes"/>
      <point x="296" y="50"/>
      <point x="268" y="104"/>
      <point x="268" y="260" type="curve"/>
      <point x="593" y="260" type="line"/>
      <point x="590" y="435"/>
      <point x="496" y="534"/>
      <point x="316" y="534" type="curve" smooth="yes"/>
      <point x="145" y="534"/>
      <point x="23" y="427"/>
      <point x="23" y="261" type="curve" smooth="yes"/>
      <point x="23" y="92"/>
      <point x="139" y="-10"/>
      <point x="334" y="-10" type="curve" smooth="yes"/>
      <point x="347" y="-10"/>
      <point x="360" y="-9"/>
      <point x="372" y="-8" type="curve"/>
      <point x="281" y="-49"/>
      <point x="225" y="-95"/>
      <point x="225" y="-149" type="curve" smooth="yes"/>
      <point x="225" y="-212"/>
      <point x="280" y="-246"/>
      <point x="364" y="-246" type="curve" smooth="yes"/>
      <point x="447" y="-246"/>
      <point x="492" y="-214"/>
    </contour>
    <contour>
      <point x="322" y="484" type="curve" smooth="yes"/>
      <point x="357" y="484"/>
      <point x="371" y="461"/>
      <point x="372" y="308" type="curve"/>
      <point x="268" y="308" type="line"/>
      <point x="272" y="454"/>
      <point x="290" y="484"/>
    </contour>
  </outline>
</glyph>
<glyph name="Hbar" format="2">
  <advance width="815"/>
  <unicode hex="0126"/>
  <outline>
    <contour>
      <point x="22" y="548" type="line"/>
      <point x="22" y="495" type="line"/>
      <point x="800" y="495" type="line"/>
      <point x="800" y="548" type="line"/>
    </contour>
    <component base="H"/>
  </outline>
</glyph>
<glyph name="Lslash" format="2">
  <advance width="631"/>
  <unicode hex="0141"/>
  <outline>
    <contour>
      <point x="7" y="198" type="line"/>
      <point x="485" y="452" type="line"/>
      <point x="485" y="510" type="line"/>
      <point x="7" y="256" type="line"/>
    </contour>
    <component base="L"/>
  </outline>
</glyph>
<glyph name="lslash" format="2">
  <advance width="393"/>
  <unicode hex="0142"/>
  <outline>
    <contour>
      <point x="16" y="241" type="line"/>
      <point x="381" y="474" type="line"/>
      <point x="381" y="533" type="line"/>
      <point x="16" y="300" type="line"/>
    </contour>
    <component base="l" xOffset="26"/>
  </outline>
</glyph>
<glyph name="oe" format="2">
  <advance width="986"/>
  <unicode hex="0153"/>
  <outline>
    <contour>
      <point x="328" y="-10" type="curve" smooth="yes"/>
      <point x="411" y="-10"/>
      <point x="476" y="18"/>
      <point x="520" y="67" type="curve"/>
      <point x="565" y="17"/>
      <point x="631" y="-10"/>
      <point x="715" y="-10" type="curve" smooth="yes"/>
      <point x="842" y="-10"/>
      <point x="912" y="46"/>
      <point x="952" y="127" type="curve"/>
      <point x="911" y="153" type="line"/>
      <point x="880" y="95"/>
      <point x="827" y="50"/>
      <point x="758" y="50" type="curve" smooth="yes"/>
      <point x="669" y="50"/>
      <point x="641" y="104"/>
      <point x="641" y="260" type="curve"/>
      <point x="966" y="260" type="line"/>
      <point x="963" y="435"/>
      <point x="872" y="534"/>
      <point x="711" y="534" type="curve" smooth="yes"/>
      <point x="635" y="534"/>
      <point x="569" y="505"/>
      <point x="523" y="453" type="curve"/>
      <point x="479" y="505"/>
      <point x="413" y="534"/>
      <point x="327" y="534" type="curve" smooth="yes"/>
      <point x="137" y="534"/>
      <point x="23" y="425"/>
      <point x="23" y="262" type="curve" smooth="yes"/>
      <point x="23" y="99"/>
      <point x="137" y="-10"/>
    </contour>
    <contour>
      <point x="334" y="40" type="curve" smooth="yes"/>
      <point x="292" y="40"/>
      <point x="273" y="85"/>
      <point x="273" y="262" type="curve" smooth="yes"/>
      <point x="273" y="439"/>
      <point x="292" y="484"/>
      <point x="334" y="484" type="curve" smooth="yes"/>
      <point x="376" y="484"/>
      <point x="395" y="439"/>
      <point x="395" y="262" type="curve" smooth="yes"/>
      <point x="395" y="85"/>
      <point x="376" y="40"/>
    </contour>
    <contour>
      <point x="698" y="484" type="curve" smooth="yes"/>
      <point x="730" y="484"/>
      <point x="744" y="461"/>
      <point x="745" y="308" type="curve"/>
      <point x="641" y="308" type="line"/>
      <point x="645" y="454"/>
      <point x="664" y="484"/>
    </contour>
  </outline>
</glyph>
<glyph name="Tbar" format="2">
  <advance width="708"/>
  <unicode hex="0166"/>
  <outline>
    <contour>
      <point x="98" y="362" type="line"/>
      <point x="98" y="309" type="line"/>
      <point x="610" y="309" type="line"/>
      <point x="610" y="362" type="line"/>
    </contour>
    <component base="T"/>
  </outline>
</glyph>
<glyph name="tbar" format="2">
  <advance width="418"/>
  <unicode hex="0167"/>
  <outline>
    <contour>
      <point x="403" y="325" type="line"/>
      <point x="0" y="325" type="line"/>
      <point x="0" y="277" type="line"/>
      <point x="403" y="277" type="line"/>
    </contour>
    <component base="t"/>
  </outline>
</glyph>
<glyph name="Uogonek" format="2">
  <advance width="729"/>
  <unicode hex="0172"/>
  <outline>
    <contour>
      <point x="616" y="-166" type="curve"/>
      <point x="587" y="-135" type="line"/>
      <point x="574" y="-147"/>
      <point x="553" y="-161"/>
      <point x="530" y="-161" type="curve" smooth="yes"/>
      <point x="492" y="-161"/>
      <point x="470" y="-145"/>
      <point x="470" y="-107" type="curve" smooth="yes"/>
      <point x="470" y="-67"/>
      <point x="488" y="-35"/>
      <point x="565" y="41" type="curve" smooth="yes"/>
      <point x="628" y="103"/>
      <point x="656" y="176"/>
      <point x="656" y="280" type="curve" smooth="yes"/>
      <point x="656" y="637" type="line" smooth="yes"/>
      <point x="656" y="662"/>
      <point x="674" y="668"/>
      <point x="699" y="668" type="curve" smooth="yes"/>
      <point x="709" y="668" type="line"/>
      <point x="709" y="710" type="line"/>
      <point x="545" y="710" type="line"/>
      <point x="545" y="668" type="line"/>
      <point x="553" y="668" type="line" smooth="yes"/>
      <point x="573" y="668"/>
      <point x="597" y="662"/>
      <point x="597" y="648" type="curve" smooth="yes"/>
      <point x="597" y="280" type="line" smooth="yes"/>
      <point x="597" y="147"/>
      <point x="544" y="85"/>
      <point x="461" y="85" type="curve" smooth="yes"/>
      <point x="383" y="85"/>
      <point x="333" y="124"/>
      <point x="333" y="241" type="curve" smooth="yes"/>
      <point x="333" y="658" type="line" smooth="yes"/>
      <point x="333" y="665"/>
      <point x="357" y="668"/>
      <point x="376" y="668" type="curve" smooth="yes"/>
      <point x="385" y="668" type="line"/>
      <point x="385" y="710" type="line"/>
      <point x="20" y="710" type="line"/>
      <point x="20" y="668" type="line"/>
      <point x="30" y="668" type="line" smooth="yes"/>
      <point x="55" y="668"/>
      <point x="73" y="662"/>
      <point x="73" y="637" type="curve" smooth="yes"/>
      <point x="73" y="280" type="line" smooth="yes"/>
      <point x="73" y="77"/>
      <point x="194" y="-10"/>
      <point x="388" y="-10" type="curve" smooth="yes"/>
      <point x="410" y="-10"/>
      <point x="432" y="-8"/>
      <point x="452" y="-5" type="curve"/>
      <point x="357" y="-56"/>
      <point x="313" y="-95"/>
      <point x="313" y="-151" type="curve" smooth="yes"/>
      <point x="313" y="-217"/>
      <point x="368" y="-246"/>
      <point x="440" y="-246" type="curve" smooth="yes"/>
      <point x="535" y="-246"/>
      <point x="580" y="-214"/>
    </contour>
  </outline>
</glyph>
<glyph name="uogonek" format="2">
  <advance width="680"/>
  <unicode hex="0173"/>
  <outline>
    <contour>
      <point x="291" y="524" type="line"/>
      <point x="12" y="524" type="line"/>
      <point x="12" y="484" type="line"/>
      <point x="22" y="482" type="line" smooth="yes"/>
      <point x="40" y="478"/>
      <point x="46" y="474"/>
      <point x="46" y="458" type="curve" smooth="yes"/>
      <point x="46" y="171" type="line" smooth="yes"/>
      <point x="46" y="54"/>
      <point x="115" y="-10"/>
      <point x="221" y="-10" type="curve" smooth="yes"/>
      <point x="299" y="-10"/>
      <point x="366" y="26"/>
      <point x="403" y="98" type="curve"/>
      <point x="403" y="2" type="line"/>
      <point x="311" y="-41"/>
      <point x="267" y="-82"/>
      <point x="267" y="-142" type="curve" smooth="yes"/>
      <point x="267" y="-210"/>
      <point x="322" y="-246"/>
      <point x="406" y="-246" type="curve" smooth="yes"/>
      <point x="489" y="-246"/>
      <point x="534" y="-214"/>
      <point x="570" y="-166" type="curve"/>
      <point x="541" y="-135" type="line"/>
      <point x="528" y="-147"/>
      <point x="507" y="-161"/>
      <point x="484" y="-161" type="curve" smooth="yes"/>
      <point x="446" y="-161"/>
      <point x="424" y="-143"/>
      <point x="424" y="-103" type="curve" smooth="yes"/>
      <point x="424" y="-75"/>
      <point x="435" y="-35"/>
      <point x="469" y="0" type="curve"/>
      <point x="668" y="0" type="line"/>
      <point x="668" y="40" type="line"/>
      <point x="658" y="42" type="line" smooth="yes"/>
      <point x="640" y="46"/>
      <point x="634" y="49"/>
      <point x="634" y="65" type="curve" smooth="yes"/>
      <point x="634" y="524" type="line"/>
      <point x="339" y="524" type="line"/>
      <point x="339" y="484" type="line"/>
      <point x="352" y="482" type="line" smooth="yes"/>
      <point x="371" y="479"/>
      <point x="389" y="474"/>
      <point x="389" y="458" type="curve" smooth="yes"/>
      <point x="389" y="149" type="line"/>
      <point x="373" y="113"/>
      <point x="349" y="90"/>
      <point x="324" y="90" type="curve" smooth="yes"/>
      <point x="300" y="90"/>
      <point x="291" y="107"/>
      <point x="291" y="141" type="curve" smooth="yes"/>
    </contour>
  </outline>
</glyph>
<glyph name="Ohorn" format="2">
  <advance width="821"/>
  <unicode hex="01A0"/>
  <anchor x="396.0" y="742.0" name="top"/>
  <outline>
    <contour>
      <point x="407" y="-10" type="curve" smooth="yes"/>
      <point x="631" y="-10"/>
      <point x="786" y="133"/>
      <point x="786" y="355" type="curve" smooth="yes"/>
      <point x="786" y="502"/>
      <point x="721" y="606"/>
      <point x="613" y="663" type="curve"/>
      <point x="768" y="680"/>
      <point x="835" y="753"/>
      <point x="835" y="877" type="curve"/>
      <point x="670" y="877" type="line"/>
      <point x="667" y="762"/>
      <point x="650" y="710"/>
      <point x="533" y="710" type="curve" smooth="yes"/>
      <point x="481" y="710"/>
      <point x="457" y="720"/>
      <point x="407" y="720" type="curve"/>
      <point x="183" y="720"/>
      <point x="28" y="576"/>
      <point x="28" y="355" type="curve" smooth="yes"/>
      <point x="28" y="133"/>
      <point x="183" y="-10"/>
    </contour>
    <contour>
      <point x="407" y="43" type="curve" smooth="yes"/>
      <point x="328" y="43"/>
      <point x="298" y="127"/>
      <point x="298" y="355" type="curve" smooth="yes"/>
      <point x="298" y="573"/>
      <point x="328" y="667"/>
      <point x="407" y="667" type="curve" smooth="yes"/>
      <point x="486" y="667"/>
      <point x="516" y="573"/>
      <point x="516" y="355" type="curve" smooth="yes"/>
      <point x="516" y="127"/>
      <point x="486" y="43"/>
    </contour>
  </outline>
</glyph>
<glyph name="ohorn" format="2">
  <advance width="676"/>
  <unicode hex="01A1"/>
  <anchor x="307.0" y="538.0" name="top"/>
  <outline>
    <contour>
      <point x="334" y="-10" type="curve" smooth="yes"/>
      <point x="529" y="-10"/>
      <point x="645" y="99"/>
      <point x="645" y="262" type="curve" smooth="yes"/>
      <point x="645" y="358"/>
      <point x="603" y="436"/>
      <point x="526" y="482" type="curve"/>
      <point x="649" y="497"/>
      <point x="703" y="571"/>
      <point x="703" y="690" type="curve"/>
      <point x="543" y="690" type="line"/>
      <point x="541" y="576"/>
      <point x="538" y="524"/>
      <point x="458" y="524" type="curve" smooth="yes"/>
      <point x="413" y="524"/>
      <point x="397" y="534"/>
      <point x="334" y="534" type="curve"/>
      <point x="139" y="534"/>
      <point x="23" y="425"/>
      <point x="23" y="262" type="curve" smooth="yes"/>
      <point x="23" y="99"/>
      <point x="139" y="-10"/>
    </contour>
    <contour>
      <point x="334" y="40" type="curve" smooth="yes"/>
      <point x="292" y="40"/>
      <point x="273" y="85"/>
      <point x="273" y="262" type="curve" smooth="yes"/>
      <point x="273" y="439"/>
      <point x="292" y="484"/>
      <point x="334" y="484" type="curve" smooth="yes"/>
      <point x="376" y="484"/>
      <point x="395" y="439"/>
      <point x="395" y="262" type="curve" smooth="yes"/>
      <point x="395" y="85"/>
      <point x="376" y="40"/>
    </contour>
  </outline>
</glyph>
<glyph name="Uhorn" format="2">
  <advance width="790"/>
  <unicode hex="01AF"/>
  <anchor x="417.0" y="663.0" name="top"/>
  <outline>
    <contour>
      <point x="333" y="241" type="curve" smooth="yes"/>
      <point x="333" y="658" type="line" smooth="yes"/>
      <point x="333" y="665"/>
      <point x="357" y="668"/>
      <point x="376" y="668" type="curve" smooth="yes"/>
      <point x="385" y="668" type="line"/>
      <point x="385" y="710" type="line"/>
      <point x="20" y="710" type="line"/>
      <point x="20" y="668" type="line"/>
      <point x="30" y="668" type="line" smooth="yes"/>
      <point x="55" y="668"/>
      <point x="73" y="662"/>
      <point x="73" y="637" type="curve" smooth="yes"/>
      <point x="73" y="280" type="line" smooth="yes"/>
      <point x="73" y="77"/>
      <point x="194" y="-10"/>
      <point x="388" y="-10" type="curve" smooth="yes"/>
      <point x="541" y="-10"/>
      <point x="656" y="74"/>
      <point x="656" y="280" type="curve" smooth="yes"/>
      <point x="656" y="646" type="line" smooth="yes"/>
      <point x="656" y="675"/>
      <point x="668" y="679"/>
      <point x="684" y="682" type="curve" smooth="yes"/>
      <point x="816" y="708"/>
      <point x="871" y="766"/>
      <point x="872" y="877" type="curve"/>
      <point x="712" y="877" type="line"/>
      <point x="705" y="729"/>
      <point x="685" y="710"/>
      <point x="572" y="710" type="curve" smooth="yes"/>
      <point x="545" y="710" type="line"/>
      <point x="545" y="668" type="line"/>
      <point x="553" y="668" type="line" smooth="yes"/>
      <point x="573" y="668"/>
      <point x="597" y="662"/>
      <point x="597" y="648" type="curve" smooth="yes"/>
      <point x="597" y="280" type="line" smooth="yes"/>
      <point x="597" y="147"/>
      <point x="544" y="85"/>
      <point x="461" y="85" type="curve" smooth="yes"/>
      <point x="383" y="85"/>
      <point x="333" y="124"/>
    </contour>
  </outline>
</glyph>
<glyph name="Oogonek" format="2">
  <advance width="814"/>
  <unicode hex="01EA"/>
  <outline>
    <contour>
      <point x="621" y="-166" type="curve"/>
      <point x="592" y="-135" type="line"/>
      <point x="578" y="-148"/>
      <point x="556" y="-162"/>
      <point x="530" y="-162" type="curve" smooth="yes"/>
      <point x="502" y="-162"/>
      <point x="478" y="-141"/>
      <point x="478" y="-109" type="curve" smooth="yes"/>
      <point x="478" y="-57"/>
      <point x="520" y="-24"/>
      <point x="595" y="23" type="curve" smooth="yes"/>
      <point x="730" y="108"/>
      <point x="786" y="219"/>
      <point x="786" y="355" type="curve" smooth="yes"/>
      <point x="786" y="576"/>
      <point x="631" y="720"/>
      <point x="407" y="720" type="curve" smooth="yes"/>
      <point x="183" y="720"/>
      <point x="28" y="576"/>
      <point x="28" y="355" type="curve" smooth="yes"/>
      <point x="28" y="133"/>
      <point x="183" y="-10"/>
      <point x="407" y="-10" type="curve" smooth="yes"/>
      <point x="429" y="-10"/>
      <point x="451" y="-9"/>
      <point x="472" y="-6" type="curve"/>
      <point x="370" y="-48"/>
      <point x="318" y="-87"/>
      <point x="318" y="-149" type="curve" smooth="yes"/>
      <point x="318" y="-209"/>
      <point x="370" y="-246"/>
      <point x="457" y="-246" type="curve" smooth="yes"/>
      <point x="540" y="-246"/>
      <point x="585" y="-214"/>
    </contour>
    <contour>
      <point x="407" y="43" type="curve" smooth="yes"/>
      <point x="328" y="43"/>
      <point x="298" y="127"/>
      <point x="298" y="355" type="curve" smooth="yes"/>
      <point x="298" y="573"/>
      <point x="328" y="667"/>
      <point x="407" y="667" type="curve" smooth="yes"/>
      <point x="486" y="667"/>
      <point x="516" y="573"/>
      <point x="516" y="355" type="curve" smooth="yes"/>
      <point x="516" y="127"/>
      <point x="486" y="43"/>
    </contour>
  </outline>
</glyph>
<glyph name="circumflex" format="2">
  <advance width="500"/>
  <unicode hex="02C6"/>
  <anchor x="245.0" y="529.0" name="_top"/>
  <outline>
    <contour>
      <point x="334" y="738" type="line"/>
      <point x="207" y="738" type="line"/>
      <point x="77" y="577" type="line"/>
      <point x="77" y="563" type="line"/>
      <point x="134" y="563" type="line"/>
      <point x="265" y="627" type="line"/>
      <point x="394" y="563" type="line"/>
      <point x="462" y="563" type="line"/>
      <point x="462" y="577" type="line"/>
    </contour>
  </outline>
</glyph>
<glyph name="caron" format="2">
  <advance width="500"/>
  <unicode hex="02C7"/>
  <anchor x="255" y="525" name="_top"/>
  <outline>
    <contour>
      <point x="166" y="578" type="line"/>
      <point x="293" y="578" type="line"/>
      <point x="423" y="739" type="line"/>
      <point x="423" y="753" type="line"/>
      <point x="366" y="753" type="line"/>
      <point x="235" y="689" type="line"/>
      <point x="106" y="753" type="line"/>
      <point x="38" y="753" type="line"/>
      <point x="38" y="739" type="line"/>
    </contour>
  </outline>
</glyph>
<glyph name="tilde" format="2">
  <advance width="500"/>
  <unicode hex="02DC"/>
  <anchor x="250" y="516" name="_top"/>
  <outline>
    <contour>
      <point x="317" y="579" type="curve" smooth="yes"/>
      <point x="385" y="579"/>
      <point x="420" y="642"/>
      <point x="439" y="737" type="curve"/>
      <point x="392" y="754" type="line"/>
      <point x="379" y="710"/>
      <point x="364" y="699"/>
      <point x="335" y="699" type="curve" smooth="yes"/>
      <point x="286" y="699"/>
      <point x="242" y="749"/>
      <point x="183" y="749" type="curve" smooth="yes"/>
      <point x="108" y="749"/>
      <point x="75" y="689"/>
      <point x="60" y="592" type="curve"/>
      <point x="107" y="577" type="line"/>
      <point x="118" y="615"/>
      <point x="132" y="629"/>
      <point x="159" y="629" type="curve" smooth="yes"/>
      <point x="202" y="629"/>
      <point x="255" y="579"/>
    </contour>
  </outline>
</glyph>
<glyph name="Delta" format="2">
  <advance width="793"/>
  <unicode hex="0394"/>
  <outline>
    <contour>
      <point x="25" y="0" type="line"/>
      <point x="768" y="0" type="line"/>
      <point x="768" y="137" type="line"/>
      <point x="490" y="710" type="line"/>
      <point x="313" y="710" type="line"/>
      <point x="25" y="137" type="line"/>
    </contour>
    <contour>
      <point x="97" y="160" type="line"/>
      <point x="306" y="577" type="line"/>
      <point x="499" y="160" type="line"/>
    </contour>
  </outline>
</glyph>
<glyph name="mu" format="2">
  <advance width="777"/>
  <unicode hex="03BC"/>
  <outline>
    <contour>
      <point x="583" y="-10" type="curve" smooth="yes"/>
      <point x="699" y="-10"/>
      <point x="757" y="57"/>
      <point x="783" y="142" type="curve"/>
      <point x="738" y="164" type="line"/>
      <point x="723" y="113"/>
      <point x="703" y="82"/>
      <point x="667" y="82" type="curve" smooth="yes"/>
      <point x="642" y="82"/>
      <point x="634" y="99"/>
      <point x="634" y="124" type="curve" smooth="yes"/>
      <point x="634" y="524" type="line"/>
      <point x="389" y="524" type="line"/>
      <point x="389" y="147" type="line"/>
      <point x="373" y="112"/>
      <point x="352" y="90"/>
      <point x="325" y="90" type="curve" smooth="yes"/>
      <point x="300" y="90"/>
      <point x="291" y="107"/>
      <point x="291" y="141" type="curve" smooth="yes"/>
      <point x="291" y="524" type="line"/>
      <point x="46" y="524" type="line"/>
      <point x="46" y="-250" type="line"/>
      <point x="291" y="-250" type="line"/>
      <point x="291" y="-136"/>
      <point x="155" y="-70"/>
      <point x="109" y="92" type="curve"/>
      <point x="145" y="17"/>
      <point x="192" y="-10"/>
      <point x="252" y="-10" type="curve" smooth="yes"/>
      <point x="315" y="-10"/>
      <point x="367" y="22"/>
      <point x="406" y="98" type="curve"/>
      <point x="426" y="28"/>
      <point x="487" y="-10"/>
    </contour>
  </outline>
</glyph>
<glyph name="Germandbls" format="2">
  <advance width="882"/>
  <unicode hex="1E9E"/>
  <outline>
    <contour>
      <point x="574" y="52" type="curve" smooth="yes"/>
      <point x="517" y="52"/>
      <point x="474" y="116"/>
      <point x="451" y="198" type="curve"/>
      <point x="398" y="198" type="line"/>
      <point x="398" y="0" type="line"/>
      <point x="447" y="0" type="line"/>
      <point x="457" y="68" type="line"/>
      <point x="489" y="16"/>
      <point x="549" y="-10"/>
      <point x="637" y="-10" type="curve" smooth="yes"/>
      <point x="764" y="-10"/>
      <point x="865" y="60"/>
      <point x="865" y="211" type="curve" smooth="yes"/>
      <point x="865" y="366"/>
      <point x="747" y="461"/>
      <point x="598" y="498" type="curve"/>
      <point x="774" y="651" type="line"/>
      <point x="774" y="710" type="line"/>
      <point x="376" y="710" type="line" smooth="yes"/>
      <point x="176" y="710"/>
      <point x="75" y="653"/>
      <point x="75" y="480" type="curve" smooth="yes"/>
      <point x="75" y="75" type="line" smooth="yes"/>
      <point x="75" y="48"/>
      <point x="57" y="42"/>
      <point x="32" y="42" type="curve" smooth="yes"/>
      <point x="22" y="42" type="line"/>
      <point x="22" y="0" type="line"/>
      <point x="335" y="0" type="line"/>
      <point x="335" y="533" type="line" smooth="yes"/>
      <point x="335" y="629"/>
      <point x="356" y="657"/>
      <point x="446" y="657" type="curve" smooth="yes"/>
      <point x="697" y="657" type="line"/>
      <point x="424" y="417" type="line"/>
      <point x="424" y="354" type="line"/>
      <point x="550" y="324"/>
      <point x="637" y="255"/>
      <point x="637" y="149" type="curve" smooth="yes"/>
      <point x="637" y="84"/>
      <point x="614" y="52"/>
    </contour>
  </outline>
</glyph>
<glyph name="endash" format="2">
  <advance width="619"/>
  <unicode hex="2013"/>
  <outline>
    <contour>
      <point x="65" y="343" type="line"/>
      <point x="65" y="287" type="line"/>
      <point x="554" y="287" type="line"/>
      <point x="554" y="343" type="line"/>
    </contour>
  </outline>
</glyph>
<glyph name="quoteleft" format="2">
  <advance width="250"/>
  <unicode hex="2018"/>
  <outline>
    <contour>
      <point x="149" y="720" type="line"/>
      <point x="82" y="659"/>
      <point x="34" y="588"/>
      <point x="34" y="524" type="curve" smooth="yes"/>
      <point x="34" y="453"/>
      <point x="74" y="422"/>
      <point x="130" y="422" type="curve" smooth="yes"/>
      <point x="186" y="422"/>
      <point x="220" y="459"/>
      <point x="220" y="502" type="curve" smooth="yes"/>
      <point x="220" y="547"/>
      <point x="183" y="581"/>
      <point x="137" y="581" type="curve" smooth="yes"/>
      <point x="116" y="581"/>
      <point x="102" y="577"/>
      <point x="89" y="570" type="curve"/>
      <point x="107" y="607"/>
      <point x="159" y="644"/>
      <point x="208" y="674" type="curve"/>
    </contour>
  </outline>
</glyph>
<glyph name="quoteright" format="2">
  <advance width="250"/>
  <unicode hex="2019"/>
  <outline>
    <contour>
      <point x="105" y="422" type="line"/>
      <point x="172" y="483"/>
      <point x="220" y="554"/>
      <point x="220" y="618" type="curve" smooth="yes"/>
      <point x="220" y="689"/>
      <point x="180" y="720"/>
      <point x="124" y="720" type="curve" smooth="yes"/>
      <point x="68" y="720"/>
      <point x="34" y="683"/>
      <point x="34" y="640" type="curve" smooth="yes"/>
      <point x="34" y="595"/>
      <point x="71" y="561"/>
      <point x="117" y="561" type="curve" smooth="yes"/>
      <point x="138" y="561"/>
      <point x="152" y="565"/>
      <point x="165" y="572" type="curve"/>
      <point x="147" y="535"/>
      <point x="95" y="498"/>
      <point x="46" y="468" type="curve"/>
    </contour>
  </outline>
</glyph>
<glyph name="quotedblright" format="2">
  <advance width="476"/>
  <unicode hex="201D"/>
  <outline>
    <contour>
      <point x="105" y="422" type="line"/>
      <point x="172" y="483"/>
      <point x="220" y="554"/>
      <point x="220" y="618" type="curve" smooth="yes"/>
      <point x="220" y="689"/>
      <point x="180" y="720"/>
      <point x="124" y="720" type="curve" smooth="yes"/>
      <point x="68" y="720"/>
      <point x="34" y="683"/>
      <point x="34" y="640" type="curve" smooth="yes"/>
      <point x="34" y="595"/>
      <point x="71" y="561"/>
      <point x="117" y="561" type="curve" smooth="yes"/>
      <point x="138" y="561"/>
      <point x="152" y="565"/>
      <point x="165" y="572" type="curve"/>
      <point x="147" y="535"/>
      <point x="95" y="498"/>
      <point x="46" y="468" type="curve"/>
    </contour>
    <contour>
      <point x="331" y="422" type="line"/>
      <point x="398" y="483"/>
      <point x="446" y="554"/>
      <point x="446" y="618" type="curve" smooth="yes"/>
      <point x="446" y="689"/>
      <point x="406" y="720"/>
      <point x="350" y="720" type="curve" smooth="yes"/>
      <point x="294" y="720"/>
      <point x="260" y="683"/>
      <point x="260" y="640" type="curve" smooth="yes"/>
      <point x="260" y="595"/>
      <point x="297" y="561"/>
      <point x="343" y="561" type="curve" smooth="yes"/>
      <point x="364" y="561"/>
      <point x="378" y="565"/>
      <point x="391" y="572" type="curve"/>
      <point x="373" y="535"/>
      <point x="321" y="498"/>
      <point x="272" y="468" type="curve"/>
    </contour>
  </outline>
</glyph>
<glyph name="dagger" format="2">
  <advance width="540"/>
  <unicode hex="2020"/>
  <outline>
    <contour>
      <point x="400" y="710" type="line"/>
      <point x="140" y="710" type="line"/>
      <point x="140" y="678" type="line" smooth="yes"/>
      <point x="140" y="644"/>
      <point x="227" y="574"/>
      <point x="246" y="510" type="curve"/>
      <point x="55" y="581" type="line"/>
      <point x="25" y="581" type="line"/>
      <point x="25" y="384" type="line"/>
      <point x="55" y="384" type="line"/>
      <point x="249" y="468" type="line"/>
      <point x="241" y="414"/>
      <point x="198" y="363"/>
      <point x="119" y="332" type="curve"/>
      <point x="119" y="312" type="line" smooth="yes"/>
      <point x="119" y="278"/>
      <point x="203" y="200"/>
      <point x="250" y="0" type="curve"/>
      <point x="290" y="0" type="line"/>
      <point x="337" y="200"/>
      <point x="421" y="278"/>
      <point x="421" y="312" type="curve" smooth="yes"/>
      <point x="421" y="332" type="line"/>
      <point x="342" y="363"/>
      <point x="299" y="414"/>
      <point x="291" y="468" type="curve"/>
      <point x="485" y="384" type="line"/>
      <point x="515" y="384" type="line"/>
      <point x="515" y="581" type="line"/>
      <point x="485" y="581" type="line"/>
      <point x="294" y="510" type="line"/>
      <point x="313" y="574"/>
      <point x="400" y="644"/>
      <point x="400" y="678" type="curve" smooth="yes"/>
    </contour>
  </outline>
</glyph>
<glyph name="daggerdbl" format="2">
  <advance width="574"/>
  <unicode hex="2021"/>
  <outline>
    <contour>
      <point x="261" y="214" type="line"/>
      <point x="72" y="278" type="line"/>
      <point x="42" y="278" type="line"/>
      <point x="42" y="109" type="line"/>
      <point x="72" y="109" type="line"/>
      <point x="258" y="173" type="line"/>
      <point x="231" y="119"/>
      <point x="147" y="56"/>
      <point x="147" y="25" type="curve" smooth="yes"/>
      <point x="147" y="0" type="line"/>
      <point x="427" y="0" type="line"/>
      <point x="427" y="25" type="line" smooth="yes"/>
      <point x="427" y="56"/>
      <point x="344" y="119"/>
      <point x="316" y="173" type="curve"/>
      <point x="502" y="109" type="line"/>
      <point x="532" y="109" type="line"/>
      <point x="532" y="278" type="line"/>
      <point x="502" y="278" type="line"/>
      <point x="313" y="214" type="line"/>
      <point x="308" y="214" type="line"/>
      <point x="314" y="269"/>
      <point x="368" y="300"/>
      <point x="456" y="332" type="curve"/>
      <point x="456" y="378" type="line"/>
      <point x="370" y="409"/>
      <point x="316" y="440"/>
      <point x="308" y="492" type="curve"/>
      <point x="313" y="492" type="line"/>
      <point x="502" y="432" type="line"/>
      <point x="532" y="432" type="line"/>
      <point x="532" y="601" type="line"/>
      <point x="502" y="601" type="line"/>
      <point x="314" y="534" type="line"/>
      <point x="341" y="589"/>
      <point x="427" y="654"/>
      <point x="427" y="685" type="curve" smooth="yes"/>
      <point x="427" y="710" type="line"/>
      <point x="147" y="710" type="line"/>
      <point x="147" y="685" type="line" smooth="yes"/>
      <point x="147" y="654"/>
      <point x="233" y="589"/>
      <point x="260" y="534" type="curve"/>
      <point x="72" y="601" type="line"/>
      <point x="42" y="601" type="line"/>
      <point x="42" y="432" type="line"/>
      <point x="72" y="432" type="line"/>
      <point x="266" y="491" type="line"/>
      <point x="257" y="439"/>
      <point x="203" y="409"/>
      <point x="118" y="378" type="curve"/>
      <point x="118" y="332" type="line"/>
      <point x="206" y="300"/>
      <point x="260" y="269"/>
      <point x="266" y="214" type="curve"/>
    </contour>
  </outline>
</glyph>
<glyph name="minute" format="2">
  <advance width="240"/>
  <unicode hex="2032"/>
  <outline>
    <contour>
      <point x="206" y="710" type="curve"/>
      <point x="54" y="710" type="line"/>
      <point x="37" y="616"/>
      <point x="76" y="540"/>
      <point x="61" y="441" type="curve"/>
      <point x="101" y="441" type="line"/>
      <point x="122" y="540"/>
      <point x="189" y="610"/>
    </contour>
  </outline>
</glyph>
<glyph name="second" format="2">
  <advance width="434"/>
  <unicode hex="2033"/>
  <outline>
    <contour>
      <point x="206" y="710" type="curve"/>
      <point x="54" y="710" type="line"/>
      <point x="37" y="616"/>
      <point x="76" y="540"/>
      <point x="61" y="441" type="curve"/>
      <point x="101" y="441" type="line"/>
      <point x="122" y="540"/>
      <point x="189" y="610"/>
    </contour>
    <contour>
      <point x="400" y="710" type="curve"/>
      <point x="248" y="710" type="line"/>
      <point x="231" y="616"/>
      <point x="270" y="540"/>
      <point x="255" y="441" type="curve"/>
      <point x="295" y="441" type="line"/>
      <point x="316" y="540"/>
      <point x="383" y="610"/>
    </contour>
  </outline>
</glyph>
<glyph name="guilsinglleft" format="2">
  <advance width="302"/>
  <unicode hex="2039"/>
  <outline>
    <contour>
      <point x="272" y="465" type="line"/>
      <point x="227" y="465" type="line"/>
      <point x="20" y="287" type="line"/>
      <point x="20" y="243" type="line"/>
      <point x="227" y="65" type="line"/>
      <point x="272" y="65" type="line"/>
      <point x="186" y="264" type="line"/>
    </contour>
  </outline>
</glyph>
<glyph name="guilsinglright" format="2">
  <advance width="302"/>
  <unicode hex="203A"/>
  <outline>
    <contour>
      <point x="282" y="243" type="line"/>
      <point x="282" y="287" type="line"/>
      <point x="75" y="465" type="line"/>
      <point x="30" y="465" type="line"/>
      <point x="116" y="264" type="line"/>
      <point x="30" y="65" type="line"/>
      <point x="75" y="65" type="line"/>
    </contour>
  </outline>
</glyph>
<glyph name="zero.sub" format="2">
  <advance width="423"/>
  <unicode hex="2080"/>
  <outline>
    <contour>
      <point x="212" y="284" type="curve" smooth="yes"/>
      <point x="107" y="284"/>
      <point x="25" y="212"/>
      <point x="25" y="88" type="curve" smooth="yes"/>
      <point x="25" y="-35"/>
      <point x="107" y="-107"/>
      <point x="212" y="-107" type="curve" smooth="yes"/>
      <point x="316" y="-107"/>
      <point x="398" y="-35"/>
      <point x="398" y="88" type="curve" smooth="yes"/>
      <point x="398" y="212"/>
      <point x="316" y="284"/>
    </contour>
    <contour>
      <point x="212" y="-64" type="curve" smooth="yes"/>
      <point x="191" y="-64"/>
      <point x="184" y="-47"/>
      <point x="184" y="88" type="curve" smooth="yes"/>
      <point x="184" y="224"/>
      <point x="191" y="241"/>
      <point x="212" y="241" type="curve" smooth="yes"/>
      <point x="232" y="241"/>
      <point x="239" y="224"/>
      <point x="239" y="88" type="curve" smooth="yes"/>
      <point x="239" y="-47"/>
      <point x="232" y="-64"/>
    </contour>
  </outline>
</glyph>
<glyph name="one.sub" format="2">
  <advance width="367"/>
  <unicode hex="2081"/>
  <outline>
    <contour>
      <point x="273" y="-36" type="curve" smooth="yes"/>
      <point x="273" y="278" type="line"/>
      <point x="156" y="278" type="line"/>
      <point x="123" y="241"/>
      <point x="93" y="220"/>
      <point x="15" y="220" type="curve"/>
      <point x="15" y="132" type="line"/>
      <point x="62" y="141"/>
      <point x="89" y="161"/>
      <point x="110" y="202" type="curve"/>
      <point x="110" y="-36" type="line" smooth="yes"/>
      <point x="110" y="-61"/>
      <point x="78" y="-65"/>
      <point x="43" y="-65" type="curve" smooth="yes"/>
      <point x="28" y="-65" type="line"/>
      <point x="28" y="-100" type="line"/>
      <point x="346" y="-100" type="line"/>
      <point x="346" y="-65" type="line"/>
      <point x="339" y="-65" type="line" smooth="yes"/>
      <point x="301" y="-65"/>
      <point x="273" y="-61"/>
    </contour>
  </outline>
</glyph>
<glyph name="two.sub" format="2">
  <advance width="376"/>
  <unicode hex="2082"/>
  <outline>
    <contour>
      <point x="246" y="2" type="curve" smooth="yes"/>
      <point x="112" y="2" type="line"/>
      <point x="222" y="39"/>
      <point x="345" y="86"/>
      <point x="345" y="174" type="curve" smooth="yes"/>
      <point x="345" y="242"/>
      <point x="291" y="284"/>
      <point x="184" y="284" type="curve" smooth="yes"/>
      <point x="106" y="284"/>
      <point x="58" y="260"/>
      <point x="25" y="232" type="curve"/>
      <point x="25" y="157" type="line"/>
      <point x="135" y="157" type="line"/>
      <point x="135" y="239" type="line"/>
      <point x="141" y="242"/>
      <point x="149" y="244"/>
      <point x="157" y="244" type="curve" smooth="yes"/>
      <point x="178" y="244"/>
      <point x="189" y="225"/>
      <point x="189" y="182" type="curve" smooth="yes"/>
      <point x="189" y="84"/>
      <point x="130" y="52"/>
      <point x="20" y="-10" type="curve"/>
      <point x="20" y="-100" type="line"/>
      <point x="356" y="-100" type="line"/>
      <point x="356" y="65" type="line"/>
      <point x="319" y="65" type="line"/>
      <point x="312" y="33" type="line" smooth="yes"/>
      <point x="306" y="8"/>
      <point x="292" y="2"/>
    </contour>
  </outline>
</glyph>
<glyph name="three.sub" format="2">
  <advance width="367"/>
  <unicode hex="2083"/>
  <outline>
    <contour>
      <point x="144" y="-63" type="curve" smooth="yes"/>
      <point x="93" y="-63"/>
      <point x="60" y="-30"/>
      <point x="39" y="18" type="curve"/>
      <point x="4" y="-4" type="line"/>
      <point x="30" y="-59"/>
      <point x="69" y="-107"/>
      <point x="173" y="-107" type="curve" smooth="yes"/>
      <point x="278" y="-107"/>
      <point x="354" y="-68"/>
      <point x="354" y="2" type="curve" smooth="yes"/>
      <point x="354" y="56"/>
      <point x="318" y="87"/>
      <point x="230" y="97" type="curve"/>
      <point x="298" y="108"/>
      <point x="345" y="136"/>
      <point x="345" y="189" type="curve" smooth="yes"/>
      <point x="345" y="252"/>
      <point x="277" y="284"/>
      <point x="182" y="284" type="curve" smooth="yes"/>
      <point x="98" y="284"/>
      <point x="45" y="258"/>
      <point x="26" y="237" type="curve"/>
      <point x="26" y="170" type="line"/>
      <point x="132" y="170" type="line"/>
      <point x="132" y="239" type="line"/>
      <point x="140" y="242"/>
      <point x="149" y="244"/>
      <point x="159" y="244" type="curve" smooth="yes"/>
      <point x="183" y="244"/>
      <point x="197" y="230"/>
      <point x="197" y="183" type="curve" smooth="yes"/>
      <point x="197" y="128"/>
      <point x="181" y="113"/>
      <point x="134" y="113" type="curve" smooth="yes"/>
      <point x="109" y="113" type="line"/>
      <point x="109" y="75" type="line"/>
      <point x="138" y="75" type="line" smooth="yes"/>
      <point x="185" y="75"/>
      <point x="201" y="60"/>
      <point x="201" y="13" type="curve" smooth="yes"/>
      <point x="201" y="-43"/>
      <point x="177" y="-63"/>
    </contour>
  </outline>
</glyph>
<glyph name="four.sub" format="2">
  <advance width="389"/>
  <unicode hex="2084"/>
  <outline>
    <contour>
      <point x="9" y="-29" type="line"/>
      <point x="179" y="-29" type="line"/>
      <point x="179" y="-100" type="line"/>
      <point x="333" y="-100" type="line"/>
      <point x="333" y="-29" type="line"/>
      <point x="374" y="-29" type="line"/>
      <point x="374" y="60" type="line"/>
      <point x="333" y="60" type="line"/>
      <point x="333" y="279" type="line"/>
      <point x="202" y="279" type="line"/>
      <point x="9" y="51" type="line"/>
    </contour>
    <contour>
      <point x="69" y="60" type="line"/>
      <point x="179" y="190" type="line"/>
      <point x="179" y="60" type="line"/>
    </contour>
  </outline>
</glyph>
<glyph name="five.sub" format="2">
  <advance width="371"/>
  <unicode hex="2085"/>
  <outline>
    <contour>
      <point x="172" y="-107" type="curve" smooth="yes"/>
      <point x="280" y="-107"/>
      <point x="346" y="-58"/>
      <point x="346" y="29" type="curve" smooth="yes"/>
      <point x="346" y="98"/>
      <point x="297" y="140"/>
      <point x="210" y="140" type="curve" smooth="yes"/>
      <point x="158" y="140"/>
      <point x="126" y="123"/>
      <point x="102" y="99" type="curve"/>
      <point x="102" y="186" type="line"/>
      <point x="305" y="186" type="line"/>
      <point x="314" y="278" type="line"/>
      <point x="62" y="278" type="line"/>
      <point x="62" y="55" type="line"/>
      <point x="94" y="55" type="line"/>
      <point x="104" y="76"/>
      <point x="123" y="89"/>
      <point x="151" y="89" type="curve" smooth="yes"/>
      <point x="182" y="89"/>
      <point x="194" y="65"/>
      <point x="194" y="15" type="curve" smooth="yes"/>
      <point x="194" y="-36"/>
      <point x="174" y="-62"/>
      <point x="138" y="-62" type="curve" smooth="yes"/>
      <point x="99" y="-62"/>
      <point x="80" y="-42"/>
      <point x="62" y="-9" type="curve"/>
      <point x="27" y="-31" type="line"/>
      <point x="51" y="-76"/>
      <point x="86" y="-107"/>
    </contour>
  </outline>
</glyph>
<glyph name="six.sub" format="2">
  <advance width="409"/>
  <unicode hex="2086"/>
  <outline>
    <contour>
      <point x="361" y="249" type="curve"/>
      <point x="355" y="288" type="line"/>
      <point x="138" y="285"/>
      <point x="22" y="198"/>
      <point x="22" y="64" type="curve" smooth="yes"/>
      <point x="22" y="-49"/>
      <point x="87" y="-106"/>
      <point x="208" y="-106" type="curve" smooth="yes"/>
      <point x="316" y="-106"/>
      <point x="387" y="-56"/>
      <point x="387" y="39" type="curve" smooth="yes"/>
      <point x="387" y="120"/>
      <point x="336" y="163"/>
      <point x="256" y="163" type="curve" smooth="yes"/>
      <point x="225" y="163"/>
      <point x="202" y="154"/>
      <point x="186" y="143" type="curve"/>
      <point x="208" y="215"/>
      <point x="267" y="242"/>
    </contour>
    <contour>
      <point x="176" y="67" type="curve" smooth="yes"/>
      <point x="176" y="83"/>
      <point x="177" y="97"/>
      <point x="179" y="110" type="curve"/>
      <point x="186" y="116"/>
      <point x="193" y="119"/>
      <point x="201" y="119" type="curve" smooth="yes"/>
      <point x="226" y="119"/>
      <point x="231" y="82"/>
      <point x="231" y="32" type="curve" smooth="yes"/>
      <point x="231" y="-43"/>
      <point x="226" y="-66"/>
      <point x="206" y="-66" type="curve" smooth="yes"/>
      <point x="187" y="-66"/>
      <point x="176" y="-46"/>
    </contour>
  </outline>
</glyph>
<glyph name="seven.sub" format="2">
  <advance width="367"/>
  <unicode hex="2087"/>
  <outline>
    <contour>
      <point x="127" y="176" type="curve" smooth="yes"/>
      <point x="284" y="176" type="line"/>
      <point x="221" y="122"/>
      <point x="127" y="30"/>
      <point x="101" y="-100" type="curve"/>
      <point x="251" y="-100" type="line"/>
      <point x="251" y="68"/>
      <point x="283" y="121"/>
      <point x="347" y="203" type="curve"/>
      <point x="347" y="278" type="line"/>
      <point x="33" y="278" type="line"/>
      <point x="33" y="107" type="line"/>
      <point x="70" y="107" type="line"/>
      <point x="77" y="149" type="line" smooth="yes"/>
      <point x="81" y="172"/>
      <point x="92" y="176"/>
    </contour>
  </outline>
</glyph>
<glyph name="eight.sub" format="2">
  <advance width="424"/>
  <unicode hex="2088"/>
  <outline>
    <contour>
      <point x="212" y="284" type="curve" smooth="yes"/>
      <point x="88" y="284"/>
      <point x="34" y="238"/>
      <point x="34" y="184" type="curve" smooth="yes"/>
      <point x="34" y="143"/>
      <point x="67" y="114"/>
      <point x="135" y="103" type="curve"/>
      <point x="58" y="91"/>
      <point x="20" y="60"/>
      <point x="20" y="14" type="curve" smooth="yes"/>
      <point x="20" y="-58"/>
      <point x="81" y="-106"/>
      <point x="212" y="-106" type="curve" smooth="yes"/>
      <point x="344" y="-106"/>
      <point x="404" y="-58"/>
      <point x="404" y="14" type="curve" smooth="yes"/>
      <point x="404" y="60"/>
      <point x="366" y="91"/>
      <point x="289" y="103" type="curve"/>
      <point x="357" y="114"/>
      <point x="390" y="143"/>
      <point x="390" y="184" type="curve" smooth="yes"/>
      <point x="390" y="238"/>
      <point x="338" y="284"/>
    </contour>
    <contour>
      <point x="212" y="117" type="curve" smooth="yes"/>
      <point x="191" y="117"/>
      <point x="184" y="137"/>
      <point x="184" y="179" type="curve" smooth="yes"/>
      <point x="184" y="219"/>
      <point x="190" y="241"/>
      <point x="212" y="241" type="curve" smooth="yes"/>
      <point x="234" y="241"/>
      <point x="240" y="219"/>
      <point x="240" y="179" type="curve" smooth="yes"/>
      <point x="240" y="137"/>
      <point x="233" y="117"/>
    </contour>
    <contour>
      <point x="212" y="85" type="curve" smooth="yes"/>
      <point x="235" y="85"/>
      <point x="240" y="59"/>
      <point x="240" y="13" type="curve" smooth="yes"/>
      <point x="240" y="-38"/>
      <point x="233" y="-63"/>
      <point x="212" y="-63" type="curve" smooth="yes"/>
      <point x="191" y="-63"/>
      <point x="184" y="-38"/>
      <point x="184" y="13" type="curve" smooth="yes"/>
      <point x="184" y="59"/>
      <point x="189" y="85"/>
    </contour>
  </outline>
</glyph>
<glyph name="nine.sub" format="2">
  <advance width="409"/>
  <unicode hex="2089"/>
  <outline>
    <contour>
      <point x="58" y="-70" type="curve"/>
      <point x="64" y="-109" type="line"/>
      <point x="260" y="-99"/>
      <point x="387" y="-18"/>
      <point x="387" y="121" type="curve" smooth="yes"/>
      <point x="387" y="229"/>
      <point x="328" y="284"/>
      <point x="205" y="284" type="curve" smooth="yes"/>
      <point x="97" y="284"/>
      <point x="22" y="238"/>
      <point x="22" y="152" type="curve" smooth="yes"/>
      <point x="22" y="77"/>
      <point x="75" y="33"/>
      <point x="152" y="33" type="curve" smooth="yes"/>
      <point x="185" y="33"/>
      <point x="210" y="43"/>
      <point x="227" y="55" type="curve"/>
      <point x="210" y="-31"/>
      <point x="155" y="-62"/>
    </contour>
    <contour>
      <point x="178" y="166" type="curve" smooth="yes"/>
      <point x="178" y="227"/>
      <point x="185" y="244"/>
      <point x="205" y="244" type="curve" smooth="yes"/>
      <point x="224" y="244"/>
      <point x="233" y="226"/>
      <point x="233" y="121" type="curve" smooth="yes"/>
      <point x="233" y="108"/>
      <point x="232" y="95"/>
      <point x="231" y="84" type="curve"/>
      <point x="225" y="79"/>
      <point x="218" y="76"/>
      <point x="211" y="76" type="curve" smooth="yes"/>
      <point x="186" y="76"/>
      <point x="178" y="112"/>
    </contour>
  </outline>
</glyph>
<glyph name="franc" format="2">
  <advance width="560"/>
  <unicode hex="20A3"/>
  <outline>
    <contour>
      <point x="34" y="245" type="line"/>
      <point x="34" y="192" type="line"/>
      <point x="90" y="192" type="line"/>
      <point x="90" y="78" type="line" smooth="yes"/>
      <point x="90" y="49"/>
      <point x="72" y="42"/>
      <point x="47" y="42" type="curve" smooth="yes"/>
      <point x="37" y="42" type="line"/>
      <point x="37" y="0" type="line"/>
      <point x="413" y="0" type="line"/>
      <point x="413" y="42" type="line"/>
      <point x="396" y="42" type="line" smooth="yes"/>
      <point x="371" y="42"/>
      <point x="340" y="43"/>
      <point x="340" y="78" type="curve" smooth="yes"/>
      <point x="340" y="192" type="line"/>
      <point x="439" y="192" type="line"/>
      <point x="439" y="245" type="line"/>
      <point x="340" y="245" type="line"/>
      <point x="340" y="359" type="line"/>
      <point x="399" y="353"/>
      <point x="445" y="343"/>
      <point x="496" y="329" type="curve"/>
      <point x="496" y="438" type="line"/>
      <point x="445" y="425"/>
      <point x="399" y="416"/>
      <point x="340" y="409" type="curve"/>
      <point x="340" y="658" type="line"/>
      <point x="392" y="658" type="line" smooth="yes"/>
      <point x="441" y="658"/>
      <point x="471" y="649"/>
      <point x="479" y="615" type="curve" smooth="yes"/>
      <point x="500" y="520" type="line"/>
      <point x="546" y="520" type="line"/>
      <point x="546" y="710" type="line"/>
      <point x="37" y="710" type="line"/>
      <point x="37" y="668" type="line"/>
      <point x="47" y="668" type="line" smooth="yes"/>
      <point x="72" y="668"/>
      <point x="90" y="661"/>
      <point x="90" y="632" type="curve" smooth="yes"/>
      <point x="90" y="245" type="line"/>
    </contour>
  </outline>
</glyph>
<glyph name="lira" format="2">
  <advance width="560"/>
  <unicode hex="20A4"/>
  <outline>
    <contour>
      <point x="15" y="-6" type="line"/>
      <point x="157" y="1"/>
      <point x="242" y="51"/>
      <point x="286" y="110" type="curve"/>
      <point x="354" y="19"/>
      <point x="378" y="-10"/>
      <point x="434" y="-10" type="curve" smooth="yes"/>
      <point x="490" y="-10"/>
      <point x="541" y="33"/>
      <point x="562" y="226" type="curve"/>
      <point x="513" y="240" type="line"/>
      <point x="494" y="178"/>
      <point x="467" y="159"/>
      <point x="422" y="159" type="curve" smooth="yes"/>
      <point x="390" y="159"/>
      <point x="358" y="161"/>
      <point x="318" y="174" type="curve"/>
      <point x="324" y="192"/>
      <point x="326" y="209"/>
      <point x="326" y="225" type="curve" smooth="yes"/>
      <point x="326" y="242"/>
      <point x="325" y="258"/>
      <point x="325" y="274" type="curve"/>
      <point x="444" y="274" type="line"/>
      <point x="444" y="326" type="line"/>
      <point x="320" y="326" type="line"/>
      <point x="317" y="348"/>
      <point x="314" y="368"/>
      <point x="310" y="387" type="curve"/>
      <point x="444" y="387" type="line"/>
      <point x="444" y="439" type="line"/>
      <point x="299" y="439" type="line"/>
      <point x="288" y="488"/>
      <point x="278" y="530"/>
      <point x="278" y="570" type="curve" smooth="yes"/>
      <point x="278" y="639"/>
      <point x="295" y="667"/>
      <point x="333" y="667" type="curve" smooth="yes"/>
      <point x="343" y="667"/>
      <point x="352" y="666"/>
      <point x="360" y="661" type="curve"/>
      <point x="360" y="528" type="line"/>
      <point x="524" y="528" type="line"/>
      <point x="524" y="664" type="line"/>
      <point x="500" y="683"/>
      <point x="440" y="720"/>
      <point x="318" y="720" type="curve" smooth="yes"/>
      <point x="143" y="720"/>
      <point x="55" y="632"/>
      <point x="55" y="529" type="curve" smooth="yes"/>
      <point x="55" y="496"/>
      <point x="61" y="466"/>
      <point x="69" y="439" type="curve"/>
      <point x="20" y="439" type="line"/>
      <point x="20" y="387" type="line"/>
      <point x="90" y="387" type="line"/>
      <point x="99" y="366"/>
      <point x="110" y="346"/>
      <point x="119" y="326" type="curve"/>
      <point x="20" y="326" type="line"/>
      <point x="20" y="274" type="line"/>
      <point x="142" y="274" type="line"/>
      <point x="151" y="247"/>
      <point x="158" y="219"/>
      <point x="158" y="188" type="curve" smooth="yes"/>
      <point x="158" y="111"/>
      <point x="113" y="62"/>
      <point x="15" y="39" type="curve"/>
    </contour>
  </outline>
</glyph>
<glyph name="naira" format="2">
  <advance width="560"/>
  <unicode hex="20A6"/>
  <outline>
    <contour>
      <point x="10" y="0" type="line"/>
      <point x="177" y="0" type="line"/>
      <point x="177" y="42" type="line"/>
      <point x="165" y="42" type="line" smooth="yes"/>
      <point x="139" y="42"/>
      <point x="114" y="47"/>
      <point x="114" y="54" type="curve" smooth="yes"/>
      <point x="114" y="276" type="line"/>
      <point x="204" y="276" type="line"/>
      <point x="268" y="0" type="line"/>
      <point x="504" y="0" type="line"/>
      <point x="504" y="276" type="line"/>
      <point x="550" y="276" type="line"/>
      <point x="550" y="328" type="line"/>
      <point x="504" y="328" type="line"/>
      <point x="504" y="441" type="line"/>
      <point x="550" y="441" type="line"/>
      <point x="550" y="493" type="line"/>
      <point x="504" y="493" type="line"/>
      <point x="504" y="637" type="line" smooth="yes"/>
      <point x="504" y="662"/>
      <point x="519" y="668"/>
      <point x="540" y="668" type="curve" smooth="yes"/>
      <point x="550" y="668" type="line"/>
      <point x="550" y="710" type="line"/>
      <point x="383" y="710" type="line"/>
      <point x="383" y="668" type="line"/>
      <point x="395" y="668" type="line" smooth="yes"/>
      <point x="420" y="668"/>
      <point x="446" y="663"/>
      <point x="446" y="656" type="curve" smooth="yes"/>
      <point x="446" y="493" type="line"/>
      <point x="356" y="493" type="line"/>
      <point x="309" y="710" type="line"/>
      <point x="10" y="710" type="line"/>
      <point x="10" y="668" type="line"/>
      <point x="20" y="668" type="line" smooth="yes"/>
      <point x="41" y="668"/>
      <point x="56" y="662"/>
      <point x="56" y="637" type="curve" smooth="yes"/>
      <point x="56" y="493" type="line"/>
      <point x="10" y="493" type="line"/>
      <point x="10" y="441" type="line"/>
      <point x="56" y="441" type="line"/>
      <point x="56" y="328" type="line"/>
      <point x="10" y="328" type="line"/>
      <point x="10" y="276" type="line"/>
      <point x="56" y="276" type="line"/>
      <point x="56" y="78" type="line" smooth="yes"/>
      <point x="56" y="53"/>
      <point x="41" y="42"/>
      <point x="20" y="42" type="curve" smooth="yes"/>
      <point x="10" y="42" type="line"/>
    </contour>
    <contour>
      <point x="114" y="321" type="line"/>
      <point x="114" y="665" type="line"/>
      <point x="194" y="321" type="line"/>
    </contour>
    <contour>
      <point x="366" y="448" type="line"/>
      <point x="446" y="448" type="line"/>
      <point x="446" y="83" type="line"/>
    </contour>
  </outline>
</glyph>
<glyph name="peseta" format="2">
  <advance width="560"/>
  <unicode hex="20A7"/>
  <outline>
    <contour>
      <point x="10" y="0" type="line"/>
      <point x="213" y="0" type="line"/>
      <point x="213" y="42" type="line"/>
      <point x="208" y="42" type="line" smooth="yes"/>
      <point x="194" y="42"/>
      <point x="177" y="45"/>
      <point x="177" y="50" type="curve" smooth="yes"/>
      <point x="177" y="255" type="line"/>
      <point x="181" y="255" type="line" smooth="yes"/>
      <point x="294" y="255"/>
      <point x="355" y="360"/>
      <point x="359" y="476" type="curve"/>
      <point x="364" y="476" type="line"/>
      <point x="364" y="110" type="line" smooth="yes"/>
      <point x="364" y="22"/>
      <point x="418" y="-10"/>
      <point x="497" y="-10" type="curve" smooth="yes"/>
      <point x="528" y="-10"/>
      <point x="544" y="-7"/>
      <point x="558" y="-2" type="curve"/>
      <point x="558" y="45" type="line"/>
      <point x="555" y="44"/>
      <point x="545" y="42"/>
      <point x="539" y="42" type="curve" smooth="yes"/>
      <point x="523" y="42"/>
      <point x="515" y="52"/>
      <point x="515" y="74" type="curve" smooth="yes"/>
      <point x="515" y="476" type="line"/>
      <point x="558" y="476" type="line"/>
      <point x="558" y="524" type="line"/>
      <point x="515" y="524" type="line"/>
      <point x="515" y="663" type="line"/>
      <point x="407" y="663" type="line"/>
      <point x="396" y="580" type="line" smooth="yes"/>
      <point x="390" y="533"/>
      <point x="381" y="520"/>
      <point x="358" y="517" type="curve"/>
      <point x="349" y="635"/>
      <point x="287" y="710"/>
      <point x="171" y="710" type="curve" smooth="yes"/>
      <point x="10" y="710" type="line"/>
      <point x="10" y="668" type="line"/>
      <point x="11" y="668" type="line" smooth="yes"/>
      <point x="21" y="668"/>
      <point x="28" y="664"/>
      <point x="28" y="645" type="curve" smooth="yes"/>
      <point x="28" y="65" type="line" smooth="yes"/>
      <point x="28" y="46"/>
      <point x="21" y="42"/>
      <point x="11" y="42" type="curve" smooth="yes"/>
      <point x="10" y="42" type="line"/>
    </contour>
    <contour>
      <point x="183" y="650" type="line" smooth="yes"/>
      <point x="204" y="650"/>
      <point x="214" y="616"/>
      <point x="214" y="485" type="curve" smooth="yes"/>
      <point x="214" y="355"/>
      <point x="206" y="315"/>
      <point x="183" y="315" type="curve" smooth="yes"/>
      <point x="177" y="315" type="line"/>
      <point x="177" y="650" type="line"/>
    </contour>
  </outline>
</glyph>
<glyph name="won" format="2">
  <advance width="561"/>
  <unicode hex="20A9"/>
  <outline>
    <contour>
      <point x="9" y="476" type="line"/>
      <point x="9" y="424" type="line"/>
      <point x="58" y="424" type="line"/>
      <point x="67" y="323" type="line"/>
      <point x="9" y="323" type="line"/>
      <point x="9" y="271" type="line"/>
      <point x="72" y="271" type="line"/>
      <point x="96" y="0" type="line"/>
      <point x="226" y="0" type="line"/>
      <point x="257" y="260" type="line"/>
      <point x="300" y="260" type="line"/>
      <point x="321" y="0" type="line"/>
      <point x="451" y="0" type="line"/>
      <point x="480" y="271" type="line"/>
      <point x="548" y="271" type="line"/>
      <point x="548" y="323" type="line"/>
      <point x="485" y="323" type="line"/>
      <point x="496" y="424" type="line"/>
      <point x="548" y="424" type="line"/>
      <point x="548" y="476" type="line"/>
      <point x="501" y="476" type="line"/>
      <point x="517" y="625" type="line" smooth="yes"/>
      <point x="520" y="658"/>
      <point x="528" y="668"/>
      <point x="544" y="668" type="curve" smooth="yes"/>
      <point x="550" y="668" type="line"/>
      <point x="550" y="710" type="line"/>
      <point x="443" y="710" type="line"/>
      <point x="443" y="668" type="line"/>
      <point x="447" y="668" type="line" smooth="yes"/>
      <point x="456" y="668"/>
      <point x="470" y="665"/>
      <point x="470" y="658" type="curve"/>
      <point x="451" y="476" type="line"/>
      <point x="399" y="476" type="line"/>
      <point x="377" y="710" type="line"/>
      <point x="258" y="710" type="line"/>
      <point x="231" y="476" type="line"/>
      <point x="182" y="476" type="line"/>
      <point x="169" y="658" type="line"/>
      <point x="169" y="665"/>
      <point x="181" y="668"/>
      <point x="189" y="668" type="curve" smooth="yes"/>
      <point x="196" y="668" type="line"/>
      <point x="196" y="710" type="line"/>
      <point x="11" y="710" type="line"/>
      <point x="11" y="668" type="line"/>
      <point x="18" y="668" type="line" smooth="yes"/>
      <point x="30" y="668"/>
      <point x="37" y="662"/>
      <point x="39" y="640" type="curve" smooth="yes"/>
      <point x="54" y="476" type="line"/>
    </contour>
    <contour>
      <point x="262" y="305" type="line"/>
      <point x="283" y="478" type="line"/>
      <point x="296" y="305" type="line"/>
    </contour>
    <contour>
      <point x="403" y="431" type="line"/>
      <point x="446" y="431" type="line"/>
      <point x="423" y="214" type="line"/>
    </contour>
    <contour>
      <point x="201" y="219" type="line"/>
      <point x="186" y="431" type="line"/>
      <point x="226" y="431" type="line"/>
    </contour>
  </outline>
</glyph>
<glyph name="dong" format="2">
  <advance width="560"/>
  <unicode hex="20AB"/>
  <outline>
    <contour>
      <point x="184" y="657" type="line"/>
      <point x="184" y="607" type="line"/>
      <point x="299" y="607" type="line"/>
      <point x="299" y="492" type="line"/>
      <point x="274" y="520"/>
      <point x="241" y="534"/>
      <point x="199" y="534" type="curve" smooth="yes"/>
      <point x="86" y="534"/>
      <point x="15" y="428"/>
      <point x="15" y="253" type="curve" smooth="yes"/>
      <point x="15" y="85"/>
      <point x="81" y="-10"/>
      <point x="195" y="-10" type="curve" smooth="yes"/>
      <point x="251" y="-10"/>
      <point x="285" y="15"/>
      <point x="313" y="67" type="curve"/>
      <point x="313" y="0" type="line"/>
      <point x="545" y="0" type="line"/>
      <point x="545" y="40" type="line"/>
      <point x="535" y="42" type="line" smooth="yes"/>
      <point x="520" y="45"/>
      <point x="516" y="52"/>
      <point x="516" y="68" type="curve" smooth="yes"/>
      <point x="516" y="607" type="line"/>
      <point x="553" y="607" type="line"/>
      <point x="553" y="657" type="line"/>
      <point x="516" y="657" type="line"/>
      <point x="516" y="750" type="line"/>
      <point x="299" y="750" type="line"/>
      <point x="299" y="657" type="line"/>
    </contour>
    <contour>
      <point x="240" y="253" type="curve" smooth="yes"/>
      <point x="240" y="388"/>
      <point x="247" y="449"/>
      <point x="277" y="449" type="curve" smooth="yes"/>
      <point x="286" y="449"/>
      <point x="293" y="445"/>
      <point x="299" y="437" type="curve"/>
      <point x="299" y="112" type="line"/>
      <point x="292" y="99"/>
      <point x="284" y="91"/>
      <point x="274" y="91" type="curve" smooth="yes"/>
      <point x="248" y="91"/>
      <point x="240" y="136"/>
    </contour>
    <contour>
      <point x="73" y="-85" type="line"/>
      <point x="73" y="-140" type="line"/>
      <point x="510" y="-140" type="line"/>
      <point x="510" y="-85" type="line"/>
    </contour>
  </outline>
</glyph>
<glyph name="Euro" format="2">
  <advance width="560"/>
  <unicode hex="20AC"/>
  <outline>
    <contour>
      <point x="10" y="314" type="line"/>
      <point x="10" y="261" type="line"/>
      <point x="60" y="261" type="line"/>
      <point x="86" y="74"/>
      <point x="192" y="-10"/>
      <point x="341" y="-10" type="curve" smooth="yes"/>
      <point x="466" y="-10"/>
      <point x="530" y="61"/>
      <point x="559" y="162" type="curve"/>
      <point x="513" y="186" type="line"/>
      <point x="494" y="119"/>
      <point x="449" y="55"/>
      <point x="386" y="55" type="curve" smooth="yes"/>
      <point x="326" y="55"/>
      <point x="301" y="102"/>
      <point x="295" y="261" type="curve"/>
      <point x="397" y="261" type="line"/>
      <point x="397" y="314" type="line"/>
      <point x="293" y="314" type="line"/>
      <point x="293" y="385" type="line"/>
      <point x="437" y="385" type="line"/>
      <point x="437" y="438" type="line"/>
      <point x="294" y="438" type="line"/>
      <point x="298" y="615"/>
      <point x="318" y="663"/>
      <point x="362" y="663" type="curve" smooth="yes"/>
      <point x="367" y="663"/>
      <point x="372" y="662"/>
      <point x="376" y="660" type="curve"/>
      <point x="376" y="542" type="line"/>
      <point x="544" y="542" type="line"/>
      <point x="544" y="680" type="line"/>
      <point x="524" y="693"/>
      <point x="464" y="720"/>
      <point x="362" y="720" type="curve" smooth="yes"/>
      <point x="205" y="720"/>
      <point x="85" y="635"/>
      <point x="59" y="438" type="curve"/>
      <point x="10" y="438" type="line"/>
      <point x="10" y="385" type="line"/>
      <point x="55" y="385" type="line"/>
      <point x="54" y="375"/>
      <point x="54" y="365"/>
      <point x="54" y="355" type="curve" smooth="yes"/>
      <point x="54" y="341"/>
      <point x="54" y="327"/>
      <point x="55" y="314" type="curve"/>
    </contour>
  </outline>
</glyph>
<glyph name="peso" format="2">
  <advance width="560"/>
  <unicode hex="20B1"/>
  <outline>
    <contour>
      <point x="12" y="0" type="line"/>
      <point x="284" y="0" type="line"/>
      <point x="284" y="42" type="line"/>
      <point x="278" y="42" type="line" smooth="yes"/>
      <point x="255" y="42"/>
      <point x="243" y="44"/>
      <point x="243" y="51" type="curve" smooth="yes"/>
      <point x="243" y="233" type="line"/>
      <point x="256" y="233" type="line" smooth="yes"/>
      <point x="418" y="233"/>
      <point x="508" y="311"/>
      <point x="519" y="449" type="curve"/>
      <point x="560" y="449" type="line"/>
      <point x="560" y="501" type="line"/>
      <point x="519" y="501" type="line"/>
      <point x="512" y="637"/>
      <point x="430" y="710"/>
      <point x="274" y="710" type="curve" smooth="yes"/>
      <point x="12" y="710" type="line"/>
      <point x="12" y="668" type="line"/>
      <point x="22" y="668" type="line" smooth="yes"/>
      <point x="37" y="668"/>
      <point x="48" y="661"/>
      <point x="48" y="632" type="curve" smooth="yes"/>
      <point x="48" y="501" type="line"/>
      <point x="12" y="501" type="line"/>
      <point x="12" y="449" type="line"/>
      <point x="48" y="449" type="line"/>
      <point x="48" y="78" type="line" smooth="yes"/>
      <point x="48" y="49"/>
      <point x="37" y="42"/>
      <point x="22" y="42" type="curve" smooth="yes"/>
      <point x="12" y="42" type="line"/>
    </contour>
    <contour>
      <point x="259" y="657" type="line" smooth="yes"/>
      <point x="296" y="657"/>
      <point x="322" y="642"/>
      <point x="325" y="499" type="curve"/>
      <point x="243" y="499" type="line"/>
      <point x="243" y="657" type="line"/>
    </contour>
    <contour>
      <point x="243" y="286" type="line"/>
      <point x="243" y="451" type="line"/>
      <point x="325" y="451" type="line"/>
      <point x="322" y="306"/>
      <point x="296" y="286"/>
      <point x="260" y="286" type="curve" smooth="yes"/>
    </contour>
  </outline>
</glyph>
<glyph name="guarani" format="2">
  <advance width="560"/>
  <unicode hex="20B2"/>
  <outline>
    <contour>
      <point x="531" y="289" type="line" smooth="yes"/>
      <point x="531" y="314"/>
      <point x="538" y="321"/>
      <point x="551" y="321" type="curve"/>
      <point x="555" y="321" type="line"/>
      <point x="555" y="363" type="line"/>
      <point x="389" y="363" type="line"/>
      <point x="389" y="60" type="line"/>
      <point x="379" y="50"/>
      <point x="361" y="43"/>
      <point x="340" y="41" type="curve"/>
      <point x="340" y="670" type="line"/>
      <point x="364" y="670"/>
      <point x="384" y="665"/>
      <point x="400" y="657" type="curve"/>
      <point x="400" y="524" type="line"/>
      <point x="535" y="524" type="line"/>
      <point x="535" y="668" type="line"/>
      <point x="518" y="681"/>
      <point x="456" y="718"/>
      <point x="343" y="720" type="curve"/>
      <point x="343" y="790" type="line"/>
      <point x="278" y="790" type="line"/>
      <point x="278" y="716" type="line"/>
      <point x="112" y="689"/>
      <point x="10" y="548"/>
      <point x="10" y="355" type="curve" smooth="yes"/>
      <point x="10" y="150"/>
      <point x="116" y="11"/>
      <point x="278" y="-8" type="curve"/>
      <point x="278" y="-120" type="line"/>
      <point x="343" y="-120" type="line"/>
      <point x="343" y="-9" type="line"/>
      <point x="433" y="-2"/>
      <point x="498" y="37"/>
      <point x="531" y="74" type="curve"/>
    </contour>
    <contour>
      <point x="215" y="355" type="curve" smooth="yes"/>
      <point x="215" y="518"/>
      <point x="226" y="618"/>
      <point x="281" y="655" type="curve"/>
      <point x="281" y="53" type="line"/>
      <point x="234" y="85"/>
      <point x="215" y="177"/>
    </contour>
  </outline>
</glyph>
<glyph name="cedi" format="2">
  <advance width="560"/>
  <unicode hex="20B5"/>
  <outline>
    <contour>
      <point x="302" y="790" type="line"/>
      <point x="302" y="717" type="line"/>
      <point x="132" y="696"/>
      <point x="13" y="557"/>
      <point x="13" y="355" type="curve" smooth="yes"/>
      <point x="13" y="146"/>
      <point x="133" y="2"/>
      <point x="302" y="-9" type="curve"/>
      <point x="302" y="-120" type="line"/>
      <point x="367" y="-120" type="line"/>
      <point x="367" y="-7" type="line"/>
      <point x="477" y="12"/>
      <point x="535" y="102"/>
      <point x="559" y="227" type="curve"/>
      <point x="511" y="246" type="line"/>
      <point x="489" y="132"/>
      <point x="439" y="58"/>
      <point x="364" y="51" type="curve"/>
      <point x="364" y="670" type="line"/>
      <point x="388" y="669"/>
      <point x="408" y="665"/>
      <point x="424" y="657" type="curve"/>
      <point x="424" y="526" type="line"/>
      <point x="557" y="526" type="line"/>
      <point x="557" y="670" type="line"/>
      <point x="538" y="682"/>
      <point x="475" y="716"/>
      <point x="367" y="720" type="curve"/>
      <point x="367" y="790" type="line"/>
    </contour>
    <contour>
      <point x="218" y="355" type="curve" smooth="yes"/>
      <point x="218" y="533"/>
      <point x="236" y="632"/>
      <point x="305" y="661" type="curve"/>
      <point x="305" y="58" type="line"/>
      <point x="242" y="85"/>
      <point x="218" y="175"/>
    </contour>
  </outline>
</glyph>
<glyph name="manat" format="2">
  <advance width="560"/>
  <unicode hex="20BC"/>
  <outline>
    <contour>
      <point x="250" y="720" type="line"/>
      <point x="250" y="587" type="line"/>
      <point x="94" y="561"/>
      <point x="10" y="323"/>
      <point x="10" y="0" type="curve"/>
      <point x="205" y="0" type="line"/>
      <point x="186" y="397"/>
      <point x="195" y="511"/>
      <point x="250" y="535" type="curve"/>
      <point x="250" y="164" type="line"/>
      <point x="310" y="164" type="line"/>
      <point x="310" y="534" type="line"/>
      <point x="364" y="510"/>
      <point x="373" y="396"/>
      <point x="355" y="0" type="curve"/>
      <point x="550" y="0" type="line"/>
      <point x="550" y="323"/>
      <point x="466" y="561"/>
      <point x="310" y="587" type="curve"/>
      <point x="310" y="720" type="line"/>
    </contour>
  </outline>
</glyph>
<glyph name="litre" format="2">
  <advance width="560"/>
  <unicode hex="2113"/>
  <outline>
    <contour>
      <point x="316" y="279" type="curve" smooth="yes"/>
      <point x="316" y="308" type="line"/>
      <point x="456" y="390"/>
      <point x="528" y="488"/>
      <point x="528" y="593" type="curve" smooth="yes"/>
      <point x="528" y="662"/>
      <point x="484" y="720"/>
      <point x="389" y="720" type="curve" smooth="yes"/>
      <point x="222" y="720"/>
      <point x="102" y="525"/>
      <point x="102" y="283" type="curve" smooth="yes"/>
      <point x="102" y="266" type="line"/>
      <point x="74" y="256"/>
      <point x="44" y="247"/>
      <point x="11" y="238" type="curve"/>
      <point x="25" y="190" type="line"/>
      <point x="53" y="198"/>
      <point x="80" y="206"/>
      <point x="106" y="215" type="curve"/>
      <point x="125" y="56"/>
      <point x="215" y="-10"/>
      <point x="333" y="-10" type="curve" smooth="yes"/>
      <point x="436" y="-10"/>
      <point x="495" y="65"/>
      <point x="525" y="173" type="curve"/>
      <point x="481" y="197" type="line"/>
      <point x="456" y="108"/>
      <point x="420" y="60"/>
      <point x="379" y="60" type="curve" smooth="yes"/>
      <point x="339" y="60"/>
      <point x="316" y="90"/>
    </contour>
    <contour>
      <point x="398" y="667" type="curve" smooth="yes"/>
      <point x="420" y="667"/>
      <point x="431" y="643"/>
      <point x="431" y="599" type="curve" smooth="yes"/>
      <point x="431" y="525"/>
      <point x="419" y="445"/>
      <point x="318" y="370" type="curve"/>
      <point x="325" y="592"/>
      <point x="362" y="667"/>
    </contour>
  </outline>
</glyph>
<glyph name="numero" format="2">
  <advance width="1229"/>
  <unicode hex="2116"/>
  <outline>
    <contour>
      <point x="788" y="239" type="line"/>
      <point x="788" y="183" type="line"/>
      <point x="1146" y="183" type="line"/>
      <point x="1146" y="239" type="line"/>
    </contour>
    <component base="N"/>
    <component base="ordmasculine" xOffset="700"/>
  </outline>
</glyph>
<glyph name="servicemark" format="2">
  <advance width="903"/>
  <unicode hex="2120"/>
  <outline>
    <contour>
      <point x="206" y="403" type="curve" smooth="yes"/>
      <point x="137" y="403"/>
      <point x="96" y="437"/>
      <point x="79" y="488" type="curve"/>
      <point x="45" y="488" type="line"/>
      <point x="45" y="366" type="line"/>
      <point x="78" y="366" type="line"/>
      <point x="87" y="411" type="line"/>
      <point x="112" y="380"/>
      <point x="152" y="363"/>
      <point x="218" y="363" type="curve" smooth="yes"/>
      <point x="303" y="363"/>
      <point x="362" y="402"/>
      <point x="362" y="484" type="curve" smooth="yes"/>
      <point x="362" y="558"/>
      <point x="314" y="587"/>
      <point x="228" y="606" type="curve" smooth="yes"/>
      <point x="187" y="615"/>
      <point x="156" y="624"/>
      <point x="156" y="652" type="curve" smooth="yes"/>
      <point x="156" y="669"/>
      <point x="173" y="678"/>
      <point x="203" y="678" type="curve" smooth="yes"/>
      <point x="261" y="678"/>
      <point x="291" y="649"/>
      <point x="309" y="615" type="curve"/>
      <point x="339" y="615" type="line"/>
      <point x="339" y="714" type="line"/>
      <point x="309" y="714" type="line"/>
      <point x="302" y="677" type="line"/>
      <point x="278" y="704"/>
      <point x="238" y="716"/>
      <point x="191" y="716" type="curve" smooth="yes"/>
      <point x="107" y="716"/>
      <point x="55" y="679"/>
      <point x="55" y="608" type="curve" smooth="yes"/>
      <point x="55" y="527"/>
      <point x="120" y="503"/>
      <point x="177" y="487" type="curve" smooth="yes"/>
      <point x="242" y="470"/>
      <point x="259" y="461"/>
      <point x="259" y="434" type="curve" smooth="yes"/>
      <point x="259" y="414"/>
      <point x="239" y="403"/>
    </contour>
    <contour>
      <point x="393" y="369" type="line"/>
      <point x="482" y="369" type="line"/>
      <point x="482" y="402" type="line"/>
      <point x="479" y="402" type="line" smooth="yes"/>
      <point x="469" y="402"/>
      <point x="458" y="403"/>
      <point x="458" y="406" type="curve" smooth="yes"/>
      <point x="458" y="662" type="line"/>
      <point x="543" y="368" type="line"/>
      <point x="617" y="368" type="line"/>
      <point x="706" y="663" type="line"/>
      <point x="706" y="406" type="line" smooth="yes"/>
      <point x="706" y="403"/>
      <point x="696" y="402"/>
      <point x="686" y="402" type="curve" smooth="yes"/>
      <point x="682" y="402" type="line"/>
      <point x="682" y="369" type="line"/>
      <point x="863" y="369" type="line"/>
      <point x="863" y="402" type="line"/>
      <point x="859" y="402" type="line" smooth="yes"/>
      <point x="847" y="402"/>
      <point x="839" y="405"/>
      <point x="839" y="418" type="curve" smooth="yes"/>
      <point x="839" y="661" type="line" smooth="yes"/>
      <point x="839" y="675"/>
      <point x="847" y="678"/>
      <point x="859" y="678" type="curve" smooth="yes"/>
      <point x="863" y="678" type="line"/>
      <point x="863" y="710" type="line"/>
      <point x="677" y="710" type="line"/>
      <point x="625" y="534" type="line"/>
      <point x="582" y="710" type="line"/>
      <point x="393" y="710" type="line"/>
      <point x="393" y="678" type="line"/>
      <point x="398" y="678" type="line" smooth="yes"/>
      <point x="409" y="678"/>
      <point x="417" y="675"/>
      <point x="417" y="661" type="curve" smooth="yes"/>
      <point x="417" y="418" type="line" smooth="yes"/>
      <point x="417" y="405"/>
      <point x="409" y="402"/>
      <point x="398" y="402" type="curve"/>
      <point x="393" y="402" type="line"/>
    </contour>
  </outline>
</glyph>
<glyph name="arrowup" format="2">
  <advance width="594"/>
  <unicode hex="2191"/>
  <outline>
    <contour>
      <point x="90" y="312" type="line"/>
      <point x="103" y="302" type="line"/>
      <point x="271" y="444" type="line"/>
      <point x="271" y="41" type="line"/>
      <point x="323" y="41" type="line"/>
      <point x="323" y="444" type="line"/>
      <point x="491" y="302" type="line"/>
      <point x="504" y="312" type="line"/>
      <point x="304" y="670" type="line"/>
      <point x="290" y="670" type="line"/>
    </contour>
  </outline>
</glyph>
<glyph name="partialdiff" format="2">
  <advance width="596"/>
  <unicode hex="2202"/>
  <outline>
    <contour>
      <point x="266" y="-10" type="curve" smooth="yes"/>
      <point x="464" y="-10"/>
      <point x="581" y="155"/>
      <point x="581" y="387" type="curve" smooth="yes"/>
      <point x="581" y="628"/>
      <point x="456" y="750"/>
      <point x="281" y="750" type="curve" smooth="yes"/>
      <point x="213" y="750"/>
      <point x="150" y="730"/>
      <point x="97" y="703" type="curve"/>
      <point x="117" y="656" type="line"/>
      <point x="154" y="677"/>
      <point x="190" y="689"/>
      <point x="229" y="689" type="curve" smooth="yes"/>
      <point x="301" y="689"/>
      <point x="338" y="642"/>
      <point x="348" y="532" type="curve"/>
      <point x="339" y="533"/>
      <point x="327" y="534"/>
      <point x="315" y="534" type="curve" smooth="yes"/>
      <point x="147" y="534"/>
      <point x="15" y="414"/>
      <point x="15" y="238" type="curve" smooth="yes"/>
      <point x="15" y="94"/>
      <point x="91" y="-10"/>
    </contour>
    <contour>
      <point x="245" y="198" type="curve" smooth="yes"/>
      <point x="245" y="362"/>
      <point x="276" y="484"/>
      <point x="342" y="484" type="curve" smooth="yes"/>
      <point x="345" y="484"/>
      <point x="348" y="484"/>
      <point x="351" y="483" type="curve"/>
      <point x="351" y="465" type="line" smooth="yes"/>
      <point x="351" y="206"/>
      <point x="319" y="40"/>
      <point x="276" y="40" type="curve" smooth="yes"/>
      <point x="252" y="40"/>
      <point x="245" y="70"/>
    </contour>
  </outline>
</glyph>
<glyph name="emptyset" format="2">
  <advance width="696"/>
  <unicode hex="2205"/>
  <outline>
    <contour>
      <point x="66" y="270" type="curve" smooth="yes"/>
      <point x="66" y="199"/>
      <point x="91" y="135"/>
      <point x="133" y="87" type="curve"/>
      <point x="39" y="-10" type="line"/>
      <point x="76" y="-46" type="line"/>
      <point x="171" y="51" type="line"/>
      <point x="219" y="12"/>
      <point x="281" y="-10"/>
      <point x="348" y="-10" type="curve" smooth="yes"/>
      <point x="503" y="-10"/>
      <point x="630" y="110"/>
      <point x="630" y="270" type="curve" smooth="yes"/>
      <point x="630" y="341"/>
      <point x="605" y="405"/>
      <point x="563" y="453" type="curve"/>
      <point x="656" y="549" type="line"/>
      <point x="619" y="585" type="line"/>
      <point x="525" y="489" type="line"/>
      <point x="477" y="528"/>
      <point x="415" y="550"/>
      <point x="348" y="550" type="curve" smooth="yes"/>
      <point x="193" y="550"/>
      <point x="66" y="430"/>
    </contour>
    <contour>
      <point x="122" y="270" type="curve" smooth="yes"/>
      <point x="122" y="404"/>
      <point x="223" y="500"/>
      <point x="348" y="500" type="curve" smooth="yes"/>
      <point x="403" y="500"/>
      <point x="452" y="483"/>
      <point x="490" y="453" type="curve"/>
      <point x="170" y="125" type="line"/>
      <point x="140" y="163"/>
      <point x="122" y="213"/>
    </contour>
    <contour>
      <point x="348" y="40" type="curve" smooth="yes"/>
      <point x="294" y="40"/>
      <point x="245" y="58"/>
      <point x="207" y="88" type="curve"/>
      <point x="527" y="416" type="line"/>
      <point x="557" y="378"/>
      <point x="574" y="327"/>
      <point x="574" y="270" type="curve" smooth="yes"/>
      <point x="574" y="135"/>
      <point x="477" y="40"/>
    </contour>
  </outline>
</glyph>
<glyph name="summation" format="2">
  <advance width="616"/>
  <unicode hex="2211"/>
  <outline>
    <contour>
      <point x="371" y="548" type="line" smooth="yes"/>
      <point x="471" y="548"/>
      <point x="501" y="541"/>
      <point x="514" y="463" type="curve" smooth="yes"/>
      <point x="525" y="398" type="line"/>
      <point x="570" y="398" type="line"/>
      <point x="570" y="710" type="line"/>
      <point x="20" y="710" type="line"/>
      <point x="20" y="556" type="line"/>
      <point x="260" y="174" type="line"/>
      <point x="20" y="-74" type="line"/>
      <point x="20" y="-223" type="line"/>
      <point x="590" y="-223" type="line"/>
      <point x="590" y="89" type="line"/>
      <point x="545" y="89" type="line"/>
      <point x="534" y="24" type="line" smooth="yes"/>
      <point x="521" y="-54"/>
      <point x="491" y="-61"/>
      <point x="391" y="-61" type="curve" smooth="yes"/>
      <point x="107" y="-61" type="line"/>
      <point x="408" y="252" type="line"/>
      <point x="408" y="296" type="line"/>
      <point x="251" y="548" type="line"/>
    </contour>
  </outline>
</glyph>
<glyph name="radical" format="2">
  <advance width="655"/>
  <unicode hex="221A"/>
  <outline>
    <contour>
      <point x="30" y="379" type="line"/>
      <point x="103" y="379" type="line"/>
      <point x="235" y="0" type="line"/>
      <point x="391" y="0" type="line"/>
      <point x="625" y="710" type="line"/>
      <point x="570" y="710" type="line"/>
      <point x="386" y="148" type="line"/>
      <point x="288" y="431" type="line"/>
      <point x="30" y="431" type="line"/>
    </contour>
  </outline>
</glyph>
<glyph name="infinity" format="2">
  <advance width="776"/>
  <unicode hex="221E"/>
  <outline>
    <contour>
      <point x="206" y="134" type="curve" smooth="yes"/>
      <point x="273" y="134"/>
      <point x="325" y="181"/>
      <point x="355" y="246" type="curve"/>
      <point x="394" y="181"/>
      <point x="449" y="134"/>
      <point x="532" y="134" type="curve" smooth="yes"/>
      <point x="647" y="134"/>
      <point x="726" y="221"/>
      <point x="726" y="347" type="curve" smooth="yes"/>
      <point x="726" y="472"/>
      <point x="663" y="556"/>
      <point x="571" y="556" type="curve" smooth="yes"/>
      <point x="505" y="556"/>
      <point x="453" y="509"/>
      <point x="421" y="446" type="curve"/>
      <point x="384" y="506"/>
      <point x="331" y="556"/>
      <point x="244" y="556" type="curve" smooth="yes"/>
      <point x="130" y="556"/>
      <point x="50" y="469"/>
      <point x="50" y="343" type="curve" smooth="yes"/>
      <point x="50" y="218"/>
      <point x="113" y="134"/>
    </contour>
    <contour>
      <point x="460" y="370" type="curve" smooth="yes"/>
      <point x="455" y="380"/>
      <point x="451" y="391"/>
      <point x="446" y="401" type="curve"/>
      <point x="469" y="436"/>
      <point x="507" y="459"/>
      <point x="563" y="459" type="curve" smooth="yes"/>
      <point x="632" y="459"/>
      <point x="671" y="416"/>
      <point x="671" y="350" type="curve" smooth="yes"/>
      <point x="671" y="285"/>
      <point x="643" y="243"/>
      <point x="585" y="243" type="curve" smooth="yes"/>
      <point x="523" y="243"/>
      <point x="495" y="289"/>
    </contour>
    <contour>
      <point x="105" y="345" type="curve" smooth="yes"/>
      <point x="105" y="405"/>
      <point x="138" y="447"/>
      <point x="195" y="447" type="curve" smooth="yes"/>
      <point x="256" y="447"/>
      <point x="287" y="402"/>
      <point x="315" y="331" type="curve" smooth="yes"/>
      <point x="320" y="318"/>
      <point x="326" y="304"/>
      <point x="332" y="291" type="curve"/>
      <point x="310" y="256"/>
      <point x="271" y="231"/>
      <point x="213" y="231" type="curve" smooth="yes"/>
      <point x="144" y="231"/>
      <point x="105" y="269"/>
    </contour>
  </outline>
</glyph>
<glyph name="integral" format="2">
  <advance width="701"/>
  <unicode hex="222B"/>
  <outline>
    <contour>
      <point x="446" y="7" type="curve" smooth="yes"/>
      <point x="463" y="598" type="line" smooth="yes"/>
      <point x="465" y="674"/>
      <point x="484" y="700"/>
      <point x="523" y="700" type="curve" smooth="yes"/>
      <point x="533" y="700"/>
      <point x="542" y="698"/>
      <point x="550" y="695" type="curve"/>
      <point x="550" y="588" type="line"/>
      <point x="694" y="588" type="line"/>
      <point x="694" y="701" type="line"/>
      <point x="675" y="716"/>
      <point x="610" y="750"/>
      <point x="500" y="750" type="curve" smooth="yes"/>
      <point x="331" y="750"/>
      <point x="223" y="664"/>
      <point x="218" y="507" type="curve" smooth="yes"/>
      <point x="202" y="-33" type="line" smooth="yes"/>
      <point x="198" y="-159"/>
      <point x="184" y="-186"/>
      <point x="145" y="-186" type="curve" smooth="yes"/>
      <point x="134" y="-186"/>
      <point x="124" y="-183"/>
      <point x="116" y="-178" type="curve"/>
      <point x="116" y="-71" type="line"/>
      <point x="-30" y="-71" type="line"/>
      <point x="-30" y="-187" type="line"/>
      <point x="-11" y="-202"/>
      <point x="55" y="-236"/>
      <point x="167" y="-236" type="curve" smooth="yes"/>
      <point x="334" y="-236"/>
      <point x="441" y="-150"/>
    </contour>
  </outline>
</glyph>
<glyph name="notequal" format="2">
  <advance width="560"/>
  <unicode hex="2260"/>
  <outline>
    <contour>
      <point x="505" y="266" type="line"/>
      <point x="265" y="266" type="line"/>
      <point x="354" y="416" type="line"/>
      <point x="505" y="416" type="line"/>
      <point x="505" y="466" type="line"/>
      <point x="384" y="466" type="line"/>
      <point x="465" y="601" type="line"/>
      <point x="405" y="601" type="line"/>
      <point x="324" y="466" type="line"/>
      <point x="55" y="466" type="line"/>
      <point x="55" y="416" type="line"/>
      <point x="294" y="416" type="line"/>
      <point x="205" y="266" type="line"/>
      <point x="55" y="266" type="line"/>
      <point x="55" y="216" type="line"/>
      <point x="175" y="216" type="line"/>
      <point x="95" y="82" type="line"/>
      <point x="155" y="82" type="line"/>
      <point x="235" y="216" type="line"/>
      <point x="505" y="216" type="line"/>
    </contour>
  </outline>
</glyph>
<glyph name="lessequal" format="2">
  <advance width="560"/>
  <unicode hex="2264"/>
  <outline>
    <contour>
      <point x="474" y="233" type="line"/>
      <point x="147" y="379" type="line"/>
      <point x="474" y="525" type="line"/>
      <point x="474" y="587" type="line"/>
      <point x="86" y="408" type="line"/>
      <point x="86" y="346" type="line"/>
      <point x="474" y="167" type="line"/>
    </contour>
    <contour>
      <point x="505" y="50" type="line"/>
      <point x="55" y="50" type="line"/>
      <point x="55" y="0" type="line"/>
      <point x="505" y="0" type="line"/>
    </contour>
  </outline>
</glyph>
<glyph name="greaterequal" format="2">
  <advance width="560"/>
  <unicode hex="2265"/>
  <outline>
    <contour>
      <point x="86" y="521" type="line"/>
      <point x="413" y="375" type="line"/>
      <point x="86" y="229" type="line"/>
      <point x="86" y="167" type="line"/>
      <point x="474" y="346" type="line"/>
      <point x="474" y="408" type="line"/>
      <point x="86" y="587" type="line"/>
    </contour>
    <contour>
      <point x="505" y="50" type="line"/>
      <point x="55" y="50" type="line"/>
      <point x="55" y="0" type="line"/>
      <point x="505" y="0" type="line"/>
    </contour>
  </outline>
</glyph>
<glyph name="hook" format="2">
  <advance width="510"/>
  <unicode hex="2440"/>
  <anchor x="234.0" y="517.0" name="_top"/>
  <outline>
    <contour>
      <point x="70" y="695" type="curve"/>
      <point x="179" y="695" type="line"/>
      <point x="182" y="732"/>
      <point x="198" y="751"/>
      <point x="224" y="751" type="curve" smooth="yes"/>
      <point x="250" y="751"/>
      <point x="259" y="733"/>
      <point x="259" y="715" type="curve" smooth="yes"/>
      <point x="259" y="674"/>
      <point x="237" y="658"/>
      <point x="185" y="646" type="curve"/>
      <point x="185" y="575" type="line"/>
      <point x="250" y="575" type="line"/>
      <point x="250" y="613" type="line"/>
      <point x="324" y="625"/>
      <point x="380" y="655"/>
      <point x="380" y="720" type="curve" smooth="yes"/>
      <point x="380" y="770"/>
      <point x="329" y="806"/>
      <point x="229" y="806" type="curve" smooth="yes"/>
      <point x="117" y="806"/>
      <point x="75" y="751"/>
    </contour>
  </outline>
</glyph>
<glyph name="lozenge" format="2">
  <advance width="612"/>
  <unicode hex="25CA"/>
  <outline>
    <contour>
      <point x="334" y="710" type="line"/>
      <point x="278" y="710" type="line"/>
      <point x="35" y="377" type="line"/>
      <point x="35" y="332" type="line"/>
      <point x="278" y="0" type="line"/>
      <point x="334" y="0" type="line"/>
      <point x="577" y="332" type="line"/>
      <point x="577" y="377" type="line"/>
    </contour>
    <contour>
      <point x="91" y="354" type="line"/>
      <point x="306" y="650" type="line"/>
      <point x="521" y="354" type="line"/>
      <point x="306" y="59" type="line"/>
    </contour>
  </outline>
</glyph>
